<svg width="417" height="417" viewBox="0 0 417 417" fill="none" xmlns="http://www.w3.org/2000/svg">
<path d="M242.095 250.552C242.089 250.408 242.054 250.267 241.992 250.137C241.929 250.008 241.841 249.892 241.732 249.798C241.722 249.363 241.606 248.937 241.396 248.556C241.186 248.175 240.888 247.85 240.526 247.609C240.164 247.368 239.749 247.217 239.317 247.17C238.885 247.122 238.447 247.18 238.042 247.337C236.374 245.252 232.886 248.392 234.08 249.658C234.053 249.685 234.053 249.714 234.024 249.741C233.19 251.866 235.45 254.107 237.408 254.466C237.983 254.59 238.58 254.582 239.151 254.441C239.723 254.3 240.255 254.031 240.707 253.653C241.159 253.276 241.519 252.801 241.759 252.263C242 251.726 242.115 251.141 242.095 250.552Z" fill="#191919"/>
<path d="M181.205 271.744C180.979 271.37 180.643 271.075 180.243 270.899C179.843 270.724 179.398 270.677 178.97 270.764C178.763 270.822 178.574 270.932 178.423 271.084C178.271 271.236 178.16 271.425 178.102 271.632C177.423 273.642 179.447 275.802 180.842 274.903C181.772 274.48 181.689 272.509 181.205 271.744Z" fill="#191919"/>
<path d="M193.172 267.662C192.949 267.285 192.613 266.987 192.212 266.812C191.811 266.636 191.365 266.592 190.937 266.684C190.73 266.742 190.541 266.852 190.389 267.004C190.238 267.156 190.127 267.344 190.069 267.551C189.39 269.559 191.412 271.709 192.809 270.821C193.735 270.402 193.66 268.45 193.172 267.662Z" fill="#191919"/>
<path d="M194.039 279.907C192.582 276.852 190.841 273.941 188.839 271.213C188.331 270.308 187.611 269.54 186.741 268.975C186.652 268.928 186.55 268.907 186.45 268.915C186.349 268.924 186.252 268.962 186.172 269.024C186.093 269.086 186.032 269.17 185.999 269.266C185.966 269.362 185.962 269.465 185.986 269.563C186.12 270.429 186.38 270.552 188.559 274.065C190.259 276.836 191.763 279.722 193.061 282.703V282.786C191.718 282.759 188.084 282.761 187.692 282.843C186.743 283.051 186.937 284.302 187.692 284.575C188.84 284.877 190.032 284.981 191.215 284.884C192.262 285.015 193.325 284.939 194.343 284.661C196.351 283.768 194.626 281.137 194.039 279.907Z" fill="#191919"/>
<path d="M188.084 289.386C188.121 290.359 188.5 291.287 189.154 292.008C189.809 292.729 190.697 293.196 191.662 293.326C192.681 293.321 193.664 292.947 194.431 292.274C195.197 291.602 195.694 290.675 195.832 289.665C196.005 288.939 196.201 287.774 195.273 287.457C194.412 287.161 193.966 288.018 193.764 288.685C193.465 289.667 193.176 291.145 191.862 291.145C190.465 291.145 190.027 289.686 189.122 288.937C189.033 288.859 188.924 288.808 188.807 288.789C188.69 288.771 188.57 288.786 188.461 288.833C188.352 288.88 188.259 288.957 188.192 289.054C188.126 289.152 188.088 289.267 188.084 289.386Z" fill="#191919"/>
<path d="M159.148 309.622C156.896 309.963 154.692 310.563 152.578 311.411C137.395 316.73 121.579 322.906 108.043 332.574C105.981 334.006 104.011 335.565 102.144 337.242C100.221 338.789 98.816 340.886 98.1181 343.254C97.9513 344.008 98.9521 344.794 99.5442 344.088C100.83 342.424 102.201 340.829 103.654 339.309C108.776 334.907 114.352 331.063 120.288 327.841C130.593 322.386 141.316 317.759 152.355 314.003C154.83 313.26 157.212 312.237 159.455 310.955C160.099 310.605 159.93 309.541 159.148 309.622Z" fill="#191919"/>
<path d="M198.623 311.22C218.083 320.483 236.689 321.228 252.416 340.491C257.372 346.558 258.417 350.182 260.831 353.182C261.48 353.989 262.564 353.099 262.397 352.261C261.79 349.984 260.797 347.828 259.461 345.887C255.789 339.901 251.151 334.563 245.736 330.091C236.33 322.362 228.914 320.16 218.645 316.39C203.458 310.819 202.977 310.748 199.242 309.877C198.4 309.681 197.843 310.849 198.623 311.22Z" fill="#191919"/>
<path d="M294.853 258.436C294.348 259.27 293.869 260.981 294.713 261.79C294.864 261.927 295.041 262.032 295.233 262.099C295.425 262.166 295.629 262.194 295.832 262.181C296.035 262.168 296.233 262.114 296.416 262.023C296.598 261.932 296.76 261.806 296.892 261.651C297.322 261.097 297.567 260.423 297.592 259.722C297.832 257.418 295.718 257.014 294.853 258.436Z" fill="#191919"/>
<path d="M307.823 259.443C307.648 259.343 307.454 259.279 307.254 259.256C307.053 259.233 306.85 259.251 306.657 259.308C306.464 259.366 306.284 259.462 306.129 259.591C305.974 259.72 305.846 259.878 305.754 260.058C305.252 260.892 304.77 262.604 305.615 263.413C305.766 263.549 305.943 263.653 306.135 263.72C306.328 263.787 306.531 263.815 306.735 263.802C306.938 263.789 307.136 263.735 307.318 263.644C307.501 263.554 307.663 263.427 307.796 263.273C308.226 262.72 308.471 262.045 308.494 261.344C308.579 260.996 308.561 260.631 308.442 260.294C308.322 259.956 308.107 259.66 307.823 259.443Z" fill="#191919"/>
<path d="M296.949 270.216C298.273 269.327 299.382 268.152 300.193 266.778C301.319 264.835 302.006 262.668 302.205 260.431C302.257 259.789 301.34 259.622 301.031 260.125C299.572 262.493 298.904 265.717 296.307 267.868C295.742 268.337 294.766 268.65 294.349 269.294C293.448 270.687 295.495 272.145 296.446 272.901C297.676 273.879 299.436 275.247 301.087 274.857C301.205 274.823 301.313 274.763 301.403 274.682C301.494 274.6 301.565 274.499 301.611 274.386C301.656 274.273 301.676 274.151 301.668 274.029C301.659 273.907 301.624 273.789 301.563 273.683C300.72 272.301 298.756 272.092 296.949 270.216Z" fill="#191919"/>
<path d="M305.036 276.721C302.446 277.926 299.51 278.164 296.76 277.39C295.951 277.056 295.091 276.858 294.217 276.804C294.117 276.809 294.02 276.838 293.935 276.89C293.85 276.941 293.779 277.014 293.729 277.1C293.679 277.186 293.651 277.283 293.649 277.383C293.646 277.482 293.669 277.581 293.714 277.67C294.692 279.405 297.676 279.828 299.473 279.963C300.982 280.064 302.496 279.894 303.945 279.461C301.714 286.156 297.117 286.758 296.398 284.661C295.891 283.18 296.083 281.587 295.616 280.103C295.559 279.926 295.448 279.772 295.298 279.663C295.148 279.553 294.967 279.494 294.782 279.494C294.596 279.494 294.415 279.553 294.265 279.663C294.116 279.772 294.004 279.926 293.948 280.103C293.43 282.125 293.639 284.265 294.536 286.149C295.051 286.944 295.822 287.541 296.721 287.84C297.62 288.14 298.594 288.125 299.483 287.799C303.215 286.983 305.888 281.752 306.612 277.987C306.682 277.778 306.685 277.553 306.623 277.342C306.561 277.13 306.436 276.943 306.264 276.806C306.092 276.668 305.883 276.586 305.663 276.571C305.444 276.556 305.225 276.608 305.036 276.721Z" fill="#191919"/>
<path d="M317.44 312.959C316.562 312.729 315.63 312.818 314.811 313.211C309.953 314.565 304.759 314.005 300.302 311.645C298.488 310.717 296.945 309.366 295.187 308.374C295.1 308.323 295.002 308.293 294.901 308.287C294.799 308.281 294.698 308.3 294.606 308.34C294.513 308.381 294.431 308.443 294.367 308.521C294.303 308.599 294.258 308.692 294.236 308.791C293.288 308.52 293.217 308.816 288.757 309.183C280.576 309.856 262.903 307.602 252.076 318.436C249.371 320.836 247.575 324.094 246.988 327.662C246.992 327.887 247.069 328.105 247.207 328.283C247.345 328.461 247.536 328.59 247.754 328.65C247.971 328.71 248.201 328.697 248.411 328.615C248.621 328.533 248.798 328.385 248.917 328.194C250.105 325.478 251.688 322.953 253.614 320.7C263.697 310.083 280.215 312.612 288.951 311.587C290.657 311.378 293.369 311.28 294.58 309.881C294.608 309.854 294.608 309.854 294.608 309.825C297.641 314.647 305.821 317.014 311.969 316.311C313.675 316.117 317.126 315.913 317.924 314.047C317.973 313.945 317.999 313.833 318 313.72C318.002 313.607 317.979 313.495 317.933 313.391C317.887 313.288 317.819 313.196 317.734 313.121C317.649 313.046 317.549 312.991 317.44 312.959Z" fill="#191919"/>
<path d="M265.132 238.251C264.041 236.768 260.597 235.257 259.457 237.525C259.415 237.593 259.39 237.67 259.384 237.749C259.378 237.828 259.39 237.907 259.42 237.981C259.45 238.054 259.497 238.119 259.557 238.171C259.617 238.223 259.688 238.261 259.765 238.28C260.436 238.386 261.106 238.199 261.75 238.334C262.139 238.427 262.501 238.609 262.807 238.867C263.113 239.124 263.354 239.449 263.512 239.817C265.409 243.724 262.009 248.937 258.925 247.869C258.258 247.638 257.864 247.035 257.276 246.695C256.412 246.203 255.399 247.141 256.102 248.68C255.924 248.759 255.77 248.885 255.656 249.043C253.916 252.078 251.53 254.693 248.667 256.703C241.352 261.178 233.446 257.915 232.06 251.251C231.017 246.201 232.028 237.567 232.925 232.548C233.321 230.34 233.951 228.074 234.128 225.839C234.128 225.694 234.08 225.553 233.992 225.438C233.904 225.323 233.781 225.24 233.641 225.202C233.501 225.163 233.353 225.172 233.218 225.227C233.084 225.281 232.971 225.378 232.898 225.503C230.187 230.953 228.596 246.664 230.075 252.454C230.953 255.537 233.018 258.145 235.816 259.709C238.614 261.272 241.918 261.662 245.003 260.794C244.926 261.649 245.137 262.274 244.947 265.489C244.714 269.465 244.113 269.968 244.78 270.942C244.831 271.028 244.899 271.103 244.979 271.162C245.06 271.222 245.151 271.264 245.248 271.288C245.345 271.311 245.446 271.315 245.545 271.299C245.644 271.283 245.738 271.247 245.823 271.194C246.709 270.596 246.74 269.682 246.884 268.648C247.168 266.645 247.225 264.617 247.053 262.602C247.029 261.816 246.907 261.036 246.69 260.281C247.276 260.058 247.87 259.847 248.45 259.583C252.547 257.598 255.736 254.13 257.369 249.881C263.568 252.838 268.872 243.336 265.132 238.251Z" fill="#191919"/>
<path d="M261.667 251.42C260.629 254.044 260.181 256.864 260.355 259.681C260.529 262.497 261.32 265.241 262.672 267.718C263.233 268.64 264.93 268.029 264.49 266.936C261.93 260.562 262.036 258.409 262.785 251.726C262.787 251.594 262.745 251.464 262.665 251.358C262.585 251.252 262.473 251.175 262.345 251.14C262.217 251.105 262.081 251.113 261.958 251.164C261.835 251.215 261.733 251.305 261.667 251.42Z" fill="#191919"/>
<path d="M285.487 215.103C286.232 213.827 286.7 212.407 286.858 210.938C287.017 209.468 286.864 207.982 286.408 206.576C285.985 205.535 285.268 204.64 284.344 203.999C283.421 203.359 282.332 203.001 281.208 202.968C281.936 199.53 281.711 195.423 279.253 192.877C278.489 192.102 277.504 191.581 276.433 191.386C275.362 191.191 274.257 191.331 273.269 191.787C273.045 190.492 272.486 189.279 271.647 188.269C270.808 187.258 269.719 186.486 268.488 186.028C267.316 185.657 266.06 185.648 264.883 186.002C263.706 186.356 262.663 187.057 261.891 188.013C259.644 186.163 256.902 185.016 254.008 184.714C253.086 184.518 252.126 184.624 251.27 185.016C250.413 185.409 249.706 186.067 249.254 186.893C247.99 186.077 246.525 185.624 245.021 185.585C243.517 185.545 242.031 185.921 240.726 186.67C239.548 187.429 238.624 188.525 238.076 189.815C237.528 191.105 237.379 192.53 237.651 193.905C236.242 193.835 234.837 194.111 233.56 194.711C232.283 195.31 231.172 196.214 230.326 197.343C229.538 198.502 229.091 199.86 229.037 201.261C228.983 202.662 229.323 204.049 230.02 205.266C228.846 205.6 227.811 206.302 227.066 207.268C226.321 208.234 225.906 209.413 225.881 210.633C225.929 211.398 226.148 212.142 226.521 212.812C226.893 213.481 227.41 214.059 228.034 214.504C228.658 214.948 229.374 215.248 230.128 215.382C230.883 215.515 231.658 215.478 232.396 215.274C232.543 215.233 232.68 215.163 232.8 215.069C232.92 214.975 233.02 214.858 233.095 214.726C233.17 214.593 233.218 214.447 233.236 214.295C233.254 214.144 233.242 213.991 233.201 213.844C233.16 213.697 233.091 213.56 232.997 213.44C232.902 213.32 232.786 213.22 232.653 213.145C232.52 213.07 232.374 213.023 232.222 213.004C232.071 212.986 231.918 212.998 231.771 213.039C231.364 213.126 230.943 213.122 230.538 213.029C230.132 212.936 229.752 212.755 229.425 212.499C229.097 212.243 228.829 211.918 228.64 211.547C228.451 211.177 228.345 210.769 228.331 210.354C228.5 209.464 228.989 208.666 229.704 208.11C230.42 207.555 231.313 207.279 232.217 207.334C232.456 207.332 232.688 207.259 232.886 207.126C233.084 206.993 233.238 206.805 233.33 206.585C233.423 206.365 233.448 206.123 233.405 205.889C233.361 205.655 233.25 205.438 233.085 205.266C232.173 204.424 231.599 203.278 231.47 202.043C231.342 200.808 231.667 199.569 232.386 198.557C233.206 197.579 234.297 196.867 235.521 196.508C236.746 196.15 238.049 196.162 239.267 196.542C240.188 196.799 241.233 195.671 240.609 194.783C240.278 194.279 240.055 193.712 239.953 193.118C239.851 192.524 239.873 191.916 240.017 191.33C240.161 190.745 240.425 190.196 240.791 189.717C241.158 189.239 241.619 188.841 242.146 188.549C243.381 187.971 244.772 187.814 246.105 188.102C247.438 188.39 248.64 189.106 249.527 190.142C250.394 191.09 252.079 189.875 251.345 188.743C250.77 187.858 251.904 187.185 252.686 187.075C254.313 187.068 255.926 187.386 257.43 188.01C258.933 188.634 260.298 189.552 261.443 190.709C261.587 190.846 261.765 190.944 261.958 190.994C262.151 191.044 262.353 191.043 262.546 190.993C262.739 190.943 262.916 190.844 263.061 190.706C263.205 190.569 263.312 190.397 263.371 190.206C263.56 189.768 263.834 189.372 264.179 189.042C264.523 188.712 264.931 188.454 265.377 188.285C265.823 188.115 266.298 188.037 266.775 188.055C267.252 188.072 267.72 188.186 268.152 188.388C269.194 188.993 270.041 189.884 270.591 190.956C271.141 192.028 271.372 193.235 271.257 194.435C271.266 194.708 271.372 194.969 271.555 195.172C271.739 195.375 271.988 195.507 272.259 195.544C272.53 195.581 272.805 195.52 273.036 195.374C273.267 195.227 273.439 195.004 273.521 194.743C273.735 194.339 274.074 194.015 274.487 193.818C274.9 193.622 275.366 193.564 275.815 193.653C276.382 193.767 276.912 194.022 277.356 194.393C277.801 194.764 278.146 195.24 278.36 195.777C279.47 198.478 279.49 201.504 278.415 204.219C278.031 205.314 279.284 205.931 280.149 205.562C282.278 204.653 284.2 206.736 284.509 208.665C284.615 211.097 283.981 213.504 282.693 215.57C282.581 215.774 282.532 216.007 282.55 216.238C282.569 216.47 282.654 216.692 282.796 216.876C282.939 217.06 283.131 217.198 283.351 217.275C283.571 217.351 283.808 217.361 284.034 217.305C285.21 217.082 286.052 218.31 286.16 219.317C286.182 220.669 285.812 221.999 285.097 223.147C284.697 224.172 284.052 225.084 283.218 225.802C282.385 226.52 281.387 227.022 280.314 227.265C279.449 227.378 279.271 228.606 279.811 229.141C280.351 229.677 280.051 231.714 280.035 232.44C280.048 233.683 279.762 234.911 279.201 236.02C278.806 236.873 278.116 237.554 277.257 237.937C276.399 238.321 275.431 238.38 274.532 238.105C274.321 237.99 274.079 237.946 273.841 237.98C273.602 238.014 273.382 238.124 273.212 238.294C273.042 238.464 272.931 238.685 272.897 238.923C272.862 239.16 272.906 239.403 273.021 239.614C273.298 240.241 273.413 240.927 273.355 241.61C273.298 242.293 273.069 242.95 272.69 243.521C272.311 244.093 271.795 244.559 271.188 244.878C270.582 245.197 269.905 245.358 269.22 245.346C268.959 245.355 268.711 245.457 268.518 245.632C268.325 245.808 268.201 246.046 268.168 246.305C268.134 246.563 268.193 246.825 268.335 247.044C268.476 247.263 268.691 247.424 268.94 247.5C269.233 247.657 269.485 247.881 269.676 248.154C269.866 248.427 269.989 248.741 270.036 249.07C270.082 249.4 270.05 249.735 269.942 250.05C269.835 250.365 269.654 250.65 269.416 250.882C268.048 252.199 265.629 251.37 264.382 250.323C263.79 249.825 262.737 250.461 263.209 251.188C263.622 251.835 264.173 252.381 264.823 252.789C265.473 253.197 266.205 253.456 266.967 253.547C267.729 253.637 268.502 253.558 269.229 253.315C269.957 253.072 270.622 252.67 271.175 252.139C271.77 251.441 272.128 250.573 272.199 249.659C272.269 248.745 272.048 247.832 271.567 247.052C272.855 246.55 273.94 245.636 274.654 244.452C275.367 243.268 275.668 241.882 275.51 240.509C276.608 240.515 277.688 240.235 278.645 239.695C279.601 239.156 280.4 238.376 280.962 237.434C281.812 235.892 282.264 234.163 282.276 232.402C282.399 231.285 282.37 230.157 282.19 229.048C283.577 228.354 284.806 227.384 285.802 226.196C286.797 225.008 287.538 223.628 287.978 222.142C289.323 218.554 287.743 215.854 285.487 215.103Z" fill="#191919"/>
<path d="M238.155 231.681C238.065 231.531 237.939 231.404 237.79 231.312C237.641 231.22 237.472 231.165 237.297 231.151C237.122 231.138 236.946 231.166 236.784 231.234C236.622 231.302 236.479 231.407 236.366 231.541C236.017 231.888 235.771 232.326 235.657 232.805C235.544 233.284 235.566 233.785 235.722 234.252C235.764 234.407 235.841 234.551 235.948 234.671C236.054 234.792 236.187 234.886 236.336 234.947C236.485 235.007 236.646 235.032 236.807 235.02C236.967 235.008 237.122 234.959 237.261 234.877C237.777 234.548 238.153 234.04 238.318 233.45C238.483 232.86 238.425 232.231 238.155 231.681Z" fill="#191919"/>
<path d="M245.842 232.686C245.752 232.535 245.627 232.409 245.478 232.316C245.328 232.224 245.159 232.168 244.984 232.155C244.809 232.141 244.633 232.169 244.471 232.237C244.309 232.306 244.166 232.411 244.053 232.546C243.704 232.893 243.458 233.33 243.344 233.81C243.231 234.289 243.254 234.79 243.411 235.257C243.453 235.412 243.53 235.555 243.637 235.675C243.743 235.796 243.876 235.89 244.025 235.95C244.173 236.011 244.334 236.036 244.494 236.024C244.654 236.013 244.81 235.964 244.948 235.882C245.462 235.551 245.837 235.043 246.001 234.454C246.166 233.865 246.11 233.236 245.842 232.686Z" fill="#191919"/>
<path d="M239.916 233.47C238.845 234.74 237.969 236.162 237.316 237.69C236.521 239.225 235.911 240.849 235.498 242.527C234.808 246.191 239.526 245.523 241.622 244.652C242.489 244.291 241.984 243.003 241.173 243.003C239.854 243.003 238.309 243.499 237.819 243.253C237.539 243.449 237.485 243.338 237.623 242.973C237.708 242.75 237.764 242.471 237.846 242.248C239.76 236.969 240.268 236.385 240.894 234.056C241.044 233.501 240.31 233.028 239.916 233.47Z" fill="#191919"/>
<path d="M262.367 221.729C259.529 214.165 251.733 211.148 243.998 212.447C239.954 212.931 236.201 214.798 233.375 217.73C233.179 217.674 233.202 217.951 233.375 217.73L233.347 217.814C233.262 217.787 233.235 217.814 233.179 217.899C232.591 218.961 231.917 220.447 232.816 221.533C233.789 222.711 235.614 222.24 236.869 221.925C240.714 220.956 244.483 218.589 249.869 220.107C255.202 221.619 258.001 226.06 259.402 231.402C259.798 232.913 259.858 234.963 261.472 235.511C261.628 235.559 261.792 235.574 261.954 235.556C262.117 235.537 262.273 235.486 262.415 235.405C262.556 235.323 262.68 235.214 262.777 235.083C262.875 234.952 262.944 234.803 262.982 234.644C263.741 230.347 263.531 225.935 262.367 221.729Z" fill="#38A1FF"/>
<path d="M242.125 271.911C242.87 273.946 245.512 275.005 247.438 275.574C249.792 276.191 252.216 276.501 254.65 276.496C257.349 276.683 260.057 276.328 262.617 275.454C264.464 274.73 267.156 273.302 267.427 271.121C267.463 270.96 267.451 270.791 267.394 270.636C267.337 270.481 267.237 270.345 267.106 270.245C266.974 270.145 266.817 270.085 266.652 270.072C266.487 270.058 266.322 270.093 266.176 270.17C264.187 271.35 263.465 274.459 254.406 274.113C245.68 273.777 244.899 271.719 242.776 271.194C242.679 271.166 242.576 271.166 242.48 271.194C242.383 271.222 242.296 271.276 242.228 271.35C242.16 271.425 242.115 271.517 242.097 271.616C242.079 271.715 242.089 271.817 242.125 271.911Z" fill="#191919"/>
<path d="M241.235 272.051C234.044 272.882 226.954 274.427 220.07 276.665C215.3 278.088 210.843 280.402 206.934 283.485C206.395 283.961 205.932 284.518 205.565 285.136C205.164 285.81 204.98 286.59 205.035 287.371C205.04 287.521 205.088 287.666 205.173 287.79C205.258 287.913 205.376 288.01 205.514 288.068C205.652 288.127 205.804 288.145 205.951 288.121C206.099 288.096 206.237 288.03 206.349 287.93C207.249 286.959 208.162 285.833 209.145 284.967C213.003 282.142 217.327 280.013 221.919 278.677C228.322 276.638 235.088 275.602 241.379 273.281C241.985 273.002 241.958 271.999 241.235 272.051Z" fill="#191919"/>
<path d="M268.656 271.995C271.12 273.366 273.778 274.356 276.539 274.93C277.715 275.314 278.912 275.637 280.061 276.106C281.093 276.756 282.227 277.228 283.416 277.503C283.53 277.503 283.644 277.476 283.746 277.424C283.849 277.372 283.938 277.297 284.006 277.205C284.074 277.112 284.119 277.005 284.139 276.892C284.158 276.778 284.15 276.662 284.116 276.552C283.593 274.269 279.738 273.412 277.826 272.862C272.405 271.296 270.847 270.666 268.992 270.737C268.846 270.742 268.705 270.794 268.591 270.884C268.477 270.975 268.395 271.1 268.357 271.241C268.319 271.382 268.328 271.532 268.382 271.667C268.436 271.803 268.532 271.918 268.656 271.995Z" fill="#191919"/>
<path d="M137.228 220.555C134.713 218.54 132.759 215.911 131.553 212.922C131.331 211.953 131.042 210.999 130.687 210.07C130.632 209.987 130.556 209.921 130.466 209.879C130.376 209.838 130.276 209.822 130.177 209.833C130.079 209.845 129.985 209.884 129.907 209.946C129.829 210.007 129.77 210.089 129.736 210.183C129.421 211.958 129.706 213.788 130.548 215.383C131.234 216.98 132.179 218.454 133.344 219.744C134.752 221.24 136.327 222.57 138.039 223.706C138.264 223.846 138.264 223.956 137.956 224.096C137.732 224.513 136.955 224.969 136.586 225.272C135.814 225.897 134.732 226.416 134.544 227.48C134.502 227.653 134.527 227.837 134.616 227.992C134.704 228.147 134.849 228.262 135.02 228.314C136.083 228.483 136.755 227.84 137.593 227.196C138.626 226.584 139.514 225.754 140.193 224.763C141.154 222.711 138.483 221.567 137.228 220.555Z" fill="#191919"/>
<path d="M130.073 235.092C129.929 235.369 129.679 235.953 129.374 236.07C128.895 236.255 128.45 235.653 128.227 235.344C127.602 234.394 127.631 233.151 126.997 232.24C126.789 231.929 126.18 231.823 125.99 232.24C125.672 233.24 125.722 234.321 126.13 235.288C126.367 236.287 126.952 237.168 127.779 237.775C128.185 238.044 128.655 238.202 129.141 238.231C129.627 238.261 130.112 238.162 130.548 237.944C130.946 237.694 131.276 237.349 131.509 236.941C131.743 236.534 131.873 236.075 131.889 235.605C132.016 234.615 130.508 234.248 130.073 235.092Z" fill="#191919"/>
<path d="M123.613 214.069C123.292 214.151 123.004 214.334 122.793 214.59C122.582 214.847 122.458 215.164 122.439 215.495C122.615 216.327 122.989 217.104 123.53 217.76C124.364 218.56 125.711 218.243 125.711 216.36C125.711 215.243 124.958 213.769 123.613 214.069Z" fill="#191919"/>
<path d="M105.666 228.971C105.583 228.833 105.449 228.733 105.294 228.691C105.139 228.649 104.973 228.668 104.832 228.745C103.848 229.296 103.66 230.37 102.987 231.179C102.252 232.08 101.203 232.669 100.051 232.828C98.7636 232.79 97.5077 232.42 96.4055 231.754C95.3032 231.088 94.3921 230.147 93.7607 229.025C90.9168 224.092 95.6747 216.857 99.3527 219.744C99.4996 219.894 99.6963 219.984 99.9055 219.998C100.115 220.012 100.322 219.949 100.487 219.82C100.653 219.691 100.765 219.506 100.803 219.3C100.841 219.094 100.802 218.881 100.693 218.702C100.291 218.065 99.7121 217.56 99.027 217.247C98.3419 216.935 97.5805 216.829 96.8361 216.942C92.7953 217.376 88.8964 223.823 91.3567 229.411C92.1116 231.059 93.3073 232.466 94.8118 233.478C96.3163 234.489 98.071 235.065 99.8822 235.142C101.528 235.048 103.082 234.354 104.25 233.191C105.28 232.163 106.652 230.393 105.666 228.971Z" fill="#191919"/>
<path d="M101.025 235.791C102.593 240.554 103.022 245.62 102.276 250.579C101.807 253.006 101.075 253.081 101.1 254.495C101.102 254.607 101.129 254.716 101.18 254.816C101.23 254.915 101.303 255.002 101.392 255.069C101.481 255.136 101.584 255.182 101.693 255.204C101.803 255.226 101.916 255.222 102.024 255.194C103.675 254.985 104.175 252.983 104.484 251.587C105.715 246.049 104.911 240.254 102.22 235.261C102.13 235.136 102.001 235.046 101.853 235.005C101.704 234.965 101.547 234.977 101.407 235.039C101.266 235.101 101.152 235.21 101.082 235.347C101.013 235.484 100.992 235.641 101.025 235.791Z" fill="#191919"/>
<path d="M96.915 197.908C97.351 197.292 97.5311 196.53 97.4175 195.784C97.3673 195.612 97.2523 195.466 97.0967 195.377C96.941 195.288 96.757 195.264 96.5835 195.308C95.101 195.527 94.4422 198.079 94.0669 199.334C92.6186 205.135 93.3556 211.265 96.1373 216.556C96.4667 217.182 97.3049 216.725 97.1985 216.11C96.1602 210.078 93.9438 204.455 96.915 197.908Z" fill="#191919"/>
<path d="M112.431 183.568C110.599 184.424 109.055 185.792 107.986 187.508C104.087 192.304 100.672 198.582 100.941 204.76C100.972 205.458 102.056 205.681 102.192 204.926C103.218 199.03 105.808 193.517 109.691 188.964C111.131 187.647 112.307 186.069 113.159 184.314C113.188 184.212 113.19 184.105 113.164 184.002C113.138 183.899 113.085 183.806 113.011 183.73C112.938 183.654 112.845 183.599 112.743 183.571C112.641 183.542 112.534 183.541 112.431 183.568Z" fill="#191919"/>
<path d="M126.857 178.893C126.853 178.792 126.828 178.694 126.782 178.604C126.736 178.515 126.671 178.436 126.591 178.375C126.512 178.313 126.419 178.27 126.321 178.248C126.223 178.226 126.121 178.227 126.023 178.249C124.726 178.666 124.891 179.468 122.27 182.191C118.379 186.243 113.546 189.589 112.233 195.275C112.097 195.863 112.992 196.317 113.275 195.692C116.676 188.067 127.288 182.377 126.857 178.893Z" fill="#191919"/>
<path d="M132.503 184.854C133.475 183.964 134.091 182.752 134.238 181.443C134.215 181.026 133.787 180.571 133.343 180.744C131.719 181.37 131.698 182.594 128.031 186.53C126.169 188.579 124.14 190.468 121.963 192.179C121.409 192.596 122.103 193.407 122.664 193.1C126.47 191.049 129.818 188.243 132.503 184.854Z" fill="#191919"/>
<path d="M137.79 189.318C138.453 188.417 139.404 187.279 139.103 186.103C139.083 186.025 139.048 185.951 138.998 185.887C138.949 185.823 138.887 185.77 138.816 185.731C138.745 185.692 138.667 185.668 138.587 185.66C138.507 185.652 138.426 185.661 138.349 185.686C137.342 185.909 136.804 186.966 136.251 187.754C134.041 190.794 131.5 193.579 128.674 196.057C128.149 196.511 128.81 197.335 129.375 196.98C132.675 195.029 135.539 192.421 137.79 189.318Z" fill="#191919"/>
<path d="M141.988 194.553C142.695 193.694 143.558 192.569 143.135 191.426C143.099 191.311 143.022 191.214 142.919 191.152C142.816 191.09 142.694 191.068 142.576 191.09C141 191.466 141.008 193.234 137.599 195.925C135.367 197.573 133.033 199.076 130.61 200.427C130.083 200.744 130.416 201.634 131.027 201.434C135.285 200.284 139.102 197.888 141.988 194.553Z" fill="#191919"/>
<path d="M144.331 194.22C144.265 194.1 144.159 194.006 144.032 193.955C143.904 193.904 143.763 193.898 143.632 193.938C142.515 194.33 142.019 195.761 141.481 196.707C140.764 197.912 139.92 199.037 138.964 200.062C137.047 202.092 134.808 203.791 132.338 205.093C132.214 205.169 132.122 205.287 132.079 205.425C132.035 205.563 132.043 205.712 132.101 205.845C132.159 205.978 132.263 206.086 132.394 206.148C132.525 206.21 132.674 206.223 132.813 206.184C137.187 204.788 140.917 201.872 143.326 197.964C143.937 196.945 144.908 195.437 144.331 194.22Z" fill="#191919"/>
<path d="M95.3496 305.096C96.2003 308.184 97.47 311.165 98.5375 314.212C100.504 319.829 100.706 321.509 101.892 322.737C101.966 322.811 102.058 322.865 102.158 322.893C102.259 322.921 102.365 322.923 102.467 322.897C102.568 322.872 102.661 322.821 102.737 322.749C102.813 322.677 102.869 322.587 102.899 322.487C103.029 321.009 102.798 319.522 102.228 318.152C100.82 313.454 98.9174 308.918 96.5526 304.621C96.478 304.478 96.3535 304.369 96.2031 304.313C96.0526 304.257 95.8869 304.259 95.7376 304.318C95.5884 304.377 95.4662 304.489 95.3946 304.633C95.3229 304.776 95.3069 304.941 95.3496 305.096Z" fill="#191919"/>
<path d="M124.453 259.134C124.257 259.181 124.069 259.257 123.895 259.359C124.183 258.47 124.192 257.514 123.922 256.62C123.063 250.819 123.73 247.187 123.167 245.569C123.141 245.48 123.089 245.401 123.019 245.341C122.948 245.281 122.861 245.242 122.769 245.231C122.677 245.219 122.584 245.234 122.501 245.275C122.417 245.315 122.347 245.379 122.3 245.459C121.849 246.451 121.611 247.527 121.601 248.618C121.405 251.231 121.48 253.857 121.824 256.455C121.968 257.545 121.937 258.832 122.867 259.583C122.957 259.659 123.062 259.716 123.175 259.751C122.617 260.058 122.11 260.377 121.526 260.673C118.06 262.045 114.239 262.241 110.651 261.232C104.131 259.695 101.66 255.49 99.0206 252.621C98.9294 252.538 98.8141 252.486 98.6916 252.474C98.5691 252.461 98.4458 252.488 98.3396 252.55C98.2334 252.613 98.15 252.707 98.1014 252.821C98.0529 252.934 98.0418 253.06 98.0698 253.18C99.1352 257.226 103.983 262.145 110.428 263.579C113.191 264.245 116.056 264.378 118.87 263.971C121.192 263.59 124.537 262.6 125.356 260.114C125.397 259.985 125.403 259.848 125.374 259.716C125.345 259.584 125.281 259.462 125.189 259.362C125.098 259.263 124.981 259.189 124.852 259.149C124.723 259.109 124.585 259.104 124.453 259.134Z" fill="#191919"/>
<path d="M95.6577 253.209C92.3159 253.427 89.0354 254.212 85.9562 255.529C65.9924 262.57 56.0052 276.027 54.2246 288.993C52.1271 304.281 58.9305 323.604 65.7422 331.042C66.3843 331.74 67.3872 330.848 66.9932 330.062C63.661 324.333 60.9611 318.259 58.9409 311.947C57.0371 305.586 56.187 298.957 56.4243 292.321C57.0102 279.711 65.2626 269.234 75.771 262.881C84.6531 257.512 93.358 255.859 95.9559 254.355C96.0736 254.289 96.166 254.185 96.2188 254.061C96.2716 253.937 96.2818 253.798 96.2477 253.667C96.2137 253.537 96.1374 253.421 96.0307 253.338C95.924 253.255 95.7929 253.209 95.6577 253.209Z" fill="#191919"/>
<path d="M140.361 260.7C140.069 259.585 138.766 258.972 137.79 258.519C134.19 256.801 130.173 256.15 126.214 256.643C126.093 256.682 125.987 256.758 125.912 256.861C125.837 256.964 125.797 257.089 125.797 257.216C125.797 257.343 125.837 257.468 125.912 257.571C125.987 257.674 126.093 257.75 126.214 257.789C129.817 258.289 133.34 259.248 136.7 260.642C137.65 261.059 138.831 261.784 139.915 261.451C140.071 261.406 140.203 261.303 140.286 261.164C140.369 261.024 140.396 260.858 140.361 260.7Z" fill="#191919"/>
<path d="M208.745 178.476C207.344 174.204 202.6 173.908 200.889 177.946C199.412 181.426 201.474 184.679 205.586 195.335C205.6 195.392 205.628 195.445 205.667 195.489C205.705 195.533 205.754 195.568 205.808 195.59C205.863 195.611 205.922 195.62 205.98 195.614C206.039 195.609 206.095 195.59 206.145 195.558C208.952 193.639 211.474 191.333 213.636 188.709C215.461 186.416 217.806 183.397 217.858 180.321C217.954 175.309 211.516 174.195 208.745 178.476Z" fill="#38A1FF"/>
<path d="M257.641 148.285C258.357 148.437 259.09 148.493 259.821 148.454C260.141 148.454 260.447 148.327 260.672 148.102C260.898 147.876 261.025 147.57 261.025 147.251C261.025 146.932 260.898 146.626 260.672 146.4C260.447 146.175 260.141 146.048 259.821 146.048C259.09 145.987 258.354 146.044 257.641 146.217C257.422 146.287 257.231 146.425 257.095 146.611C256.96 146.797 256.887 147.021 256.887 147.251C256.887 147.481 256.96 147.705 257.095 147.891C257.231 148.077 257.422 148.215 257.641 148.285Z" fill="#191919"/>
<path d="M259.877 158.07C259.145 158.017 258.41 158.074 257.696 158.239C257.472 158.305 257.276 158.441 257.137 158.627C256.997 158.814 256.922 159.04 256.922 159.273C256.922 159.506 256.997 159.732 257.137 159.919C257.276 160.105 257.472 160.242 257.696 160.307C258.412 160.462 259.145 160.518 259.877 160.474C260.194 160.471 260.499 160.344 260.724 160.119C260.949 159.895 261.076 159.591 261.08 159.273C261.081 159.115 261.05 158.958 260.99 158.811C260.93 158.665 260.842 158.532 260.73 158.42C260.618 158.308 260.485 158.219 260.338 158.159C260.192 158.099 260.035 158.069 259.877 158.07Z" fill="#191919"/>
<path d="M265.497 140.877C265.384 140.818 265.254 140.796 265.128 140.815C265.001 140.834 264.884 140.893 264.793 140.984C264.702 141.075 264.643 141.192 264.624 141.319C264.605 141.445 264.627 141.575 264.686 141.688C265.996 143.464 267.094 145.387 267.956 147.418C269.438 152.074 269.231 157.103 267.37 161.621C265.923 165.595 264.517 166.65 265.189 167.995C265.228 168.064 265.285 168.121 265.354 168.16C265.423 168.199 265.501 168.219 265.581 168.218C266.755 168.134 267.286 166.821 267.762 165.87C269.729 162.134 270.855 158.012 271.06 153.794C271.154 149.376 269.632 143.24 265.497 140.877Z" fill="#191919"/>
<path d="M211.21 98.0471C196.79 71.2215 159.471 70.1081 139.863 83.2562C125.427 92.941 119.255 110.432 119.566 127.233C119.929 146.73 133.927 162.497 150.516 165.255C152.836 165.641 155.184 165.814 157.532 165.983C157.817 168.837 161.639 174.677 167.681 177.78C169.049 178.482 171.09 179.708 172.656 178.953C174.039 178.953 173.129 175.995 173.073 175.292C172.75 171.068 173.617 167.753 173.465 164.557C183.377 164.391 192.884 160.601 200.193 153.904C207.663 147.232 212.169 137.468 214.619 127.934C217.288 117.898 216.07 107.224 211.21 98.0471ZM213.328 118.845C212.448 128.771 208.986 138.293 203.287 146.467C196.185 156.204 184.455 161.54 172.45 162.432C172.24 162.441 172.038 162.512 171.868 162.635C171.697 162.758 171.567 162.928 171.493 163.125C171.419 163.321 171.403 163.535 171.449 163.74C171.495 163.944 171.6 164.131 171.751 164.277C170.788 168.216 170.43 172.279 170.69 176.326C170.079 176.122 169.481 175.879 168.901 175.599C164.793 173.295 161.442 169.847 159.256 165.674C159.316 165.582 159.353 165.477 159.364 165.367C159.375 165.257 159.359 165.147 159.318 165.045C159.277 164.942 159.212 164.851 159.129 164.779C159.046 164.708 158.946 164.657 158.839 164.632C153.859 164.173 148.962 163.047 144.281 161.285C138.622 158.776 133.664 154.917 129.842 150.046C126.021 145.175 123.453 139.441 122.364 133.346C121.145 124.375 122.036 115.242 124.964 106.675C130.233 91.7004 141.773 81.3317 159.658 78.4106C168.342 76.968 177.243 77.5611 185.658 80.1432C193.851 82.7087 200.984 87.8746 205.977 94.8583C210.97 101.842 213.551 110.263 213.328 118.845Z" fill="#191919"/>
<path d="M145.872 119.887C145.3 120.284 144.835 120.814 144.517 121.432C144.198 122.05 144.036 122.737 144.045 123.432C144.075 124.4 144.466 125.322 145.142 126.016C145.817 126.711 146.727 127.128 147.694 127.185C148.504 127.147 149.275 126.822 149.867 126.268C150.46 125.713 150.835 124.966 150.926 124.16C151.501 120.492 148.194 118.428 145.872 119.887Z" fill="#38A1FF"/>
<path d="M164.521 119.904C163.937 120.295 163.46 120.826 163.135 121.449C162.811 122.072 162.648 122.767 162.663 123.47C162.693 124.438 163.084 125.361 163.76 126.055C164.435 126.75 165.346 127.166 166.314 127.223C167.124 127.185 167.895 126.86 168.487 126.306C169.079 125.751 169.454 125.003 169.544 124.197C170.113 120.565 166.908 118.511 164.521 119.904Z" fill="#38A1FF"/>
<path d="M185.709 120.317C185.215 119.675 184.503 119.238 183.707 119.088C182.911 118.938 182.088 119.086 181.395 119.504C180.824 119.901 180.36 120.431 180.042 121.049C179.724 121.667 179.562 122.353 179.571 123.048C179.6 124.017 179.99 124.939 180.666 125.634C181.341 126.328 182.252 126.745 183.219 126.801C186.412 126.814 187.442 122.454 185.709 120.317Z" fill="#38A1FF"/>
<path d="M68.0082 86.3043C67.5746 85.1639 67.2431 83.3416 65.967 82.8933C65.8394 82.8569 65.7042 82.8559 65.576 82.8904C65.4479 82.9249 65.3315 82.9937 65.2394 83.0893C64.2407 84.2423 65.1455 86.1688 65.6313 87.3948C66.9407 90.6954 71.2483 98.5099 73.9713 98.7163C74.1561 98.7147 74.3328 98.6406 74.4634 98.51C74.5941 98.3793 74.6682 98.2026 74.6698 98.0179C74.6094 95.4929 71.6132 95.8182 68.0082 86.3043Z" fill="#191919"/>
<path d="M91.2691 72.8291C90.5484 74.2081 90.1224 75.7219 90.0181 77.2743C89.4635 81.1545 89.2028 87.8911 90.6436 91.5878C90.693 91.7594 90.8024 91.9074 90.9519 92.005C91.1014 92.1025 91.281 92.1432 91.4579 92.1194C91.6348 92.0956 91.7973 92.0091 91.9157 91.8756C92.0341 91.742 92.1006 91.5703 92.1031 91.3919C92.5409 86.5818 91.5297 85.9333 92.4679 77.4974C92.7365 76.0128 92.8115 74.4997 92.691 72.9959C92.5263 72.3266 91.5797 72.3287 91.2691 72.8291Z" fill="#191919"/>
<path d="M120.427 64.414C120.377 63.9094 119.893 63.3152 119.307 63.5466C118.015 64.0616 117.506 65.3168 116.876 66.4552C114.729 70.1156 113.004 74.0074 111.733 78.0562C111.696 78.2142 111.716 78.3801 111.79 78.5247C111.864 78.6693 111.986 78.7834 112.135 78.8468C112.284 78.9103 112.451 78.9191 112.606 78.8718C112.762 78.8244 112.895 78.7239 112.984 78.5878C115.586 74.2093 116.401 72.4141 118.968 67.9085C119.562 66.8743 120.554 65.6984 120.427 64.414Z" fill="#191919"/>
<path d="M329.294 188.738C327.677 188.399 326.025 188.249 324.373 188.292C321.058 188.125 315.135 187.64 311.317 187.202C313.556 183.891 317.833 176.629 318.279 173.418C318.373 172.748 317.497 171.937 316.938 172.663C315.378 175.062 313.984 177.566 312.768 180.156C311.3 182.714 309.704 185.196 307.987 187.594C307.372 188.459 308.21 189.376 309.048 189.47C311.853 189.772 326.462 191.395 329.233 190.757C329.453 190.699 329.648 190.571 329.789 190.394C329.93 190.216 330.01 189.997 330.017 189.77C330.024 189.543 329.957 189.32 329.827 189.134C329.697 188.948 329.51 188.809 329.294 188.738Z" fill="#191919"/>
<path d="M407.379 156.421C407.116 139.814 398.903 122.402 383.61 114.765C366.015 105.974 336.789 108.251 323.643 125.277C313.946 137.833 312.511 162.211 317.017 170.568C317.497 171.458 318.829 170.82 318.61 169.896C316.826 161.928 316.693 153.679 318.218 145.658C319.788 136.795 323.003 128.33 329.961 122.306C341.937 111.95 362.291 110.005 376.844 114.731C392.776 119.906 402.029 134.007 404.41 150.433C405.753 159.698 404.233 167.204 401.139 176.041C398.14 184.606 394.098 190.777 385.455 195.806C373.517 202.515 359.423 204.271 346.203 200.698C340.484 199.35 335.268 196.402 331.162 192.199C330.57 191.649 329.408 192.408 329.961 193.123C343.897 210.946 386.971 208.552 400.161 184.456C404.69 175.79 407.16 166.196 407.379 156.421Z" fill="#191919"/>
<path d="M384.958 144.232C383.206 143.676 381.376 143.403 379.537 143.421C377.636 143.321 343.836 142.247 342.885 142.247C341.854 142.296 340.827 142.408 339.81 142.583C339.001 142.677 338.634 143.928 339.587 144.149C342.846 144.899 339.326 144.739 379.312 146.217C381.205 146.379 383.112 146.238 384.96 145.8C385.121 145.741 385.26 145.634 385.358 145.494C385.457 145.354 385.509 145.187 385.509 145.015C385.509 144.844 385.456 144.677 385.357 144.537C385.259 144.397 385.119 144.29 384.958 144.232Z" fill="#191919"/>
<path d="M382.943 157.734C381.246 157.296 379.495 157.099 377.743 157.149C375.581 157.03 352.475 155.779 346.051 155.779C344.253 155.666 342.448 155.788 340.682 156.142C340.53 156.189 340.397 156.283 340.302 156.412C340.207 156.54 340.156 156.695 340.156 156.855C340.156 157.014 340.207 157.169 340.302 157.298C340.397 157.426 340.53 157.521 340.682 157.568C342.357 157.97 344.076 158.157 345.799 158.126C382.641 159.882 380.91 160.193 382.953 159.776C384.033 159.553 383.871 158.06 382.943 157.734Z" fill="#191919"/>
<path d="M381.071 169.141C377.721 168.557 374.324 168.285 370.924 168.33C367.56 168.18 364.196 168.068 360.83 167.995C354.106 167.665 347.367 167.852 340.672 168.553C339.807 168.668 340.113 169.932 340.868 170.013C349.085 170.832 355.03 170.109 370.671 170.907C374.022 171.276 377.395 171.406 380.765 171.297C381.939 171.178 382.358 169.45 381.071 169.141Z" fill="#191919"/>
<path d="M284.811 91.3646C281.731 90.4978 278.52 90.1948 275.332 90.4702C272.688 84.4967 272.953 79.8367 274.498 73.6109C275.025 72.0434 275.289 70.4 275.282 68.7466C275.193 68.0567 274.945 67.397 274.557 66.8194C274.17 66.2419 273.653 65.7623 273.048 65.4186C272.444 65.0749 271.767 64.8764 271.073 64.8388C270.378 64.8013 269.684 64.9256 269.046 65.2021C266.154 66.5441 263.886 68.9439 262.71 71.9074C261.431 74.8766 260.674 78.0444 260.472 81.2712C257.604 80.7605 254.683 80.6106 251.778 80.825C248.765 80.8488 245.803 81.5968 243.14 83.0059C239.374 85.3953 238.251 90.368 242.076 93.1265C241.214 93.6301 240.543 94.4057 240.169 95.3317C239.795 96.2576 239.738 97.2816 240.008 98.2431C240.29 99.0091 240.744 99.7 241.335 100.262C241.927 100.825 242.64 101.243 243.419 101.485C242.899 101.774 242.505 102.245 242.312 102.808C242.119 103.371 242.143 103.985 242.377 104.531C243.036 106.327 244.67 106.742 246.374 106.992C246.087 107.351 245.914 107.789 245.88 108.248C245.845 108.707 245.948 109.166 246.178 109.565C247.55 112.012 251.657 112.471 254.147 112.807C257.279 113.281 260.472 113.177 263.567 112.5C264.714 112.332 265.777 111.802 266.602 110.988C267.427 110.173 267.971 109.117 268.154 107.972C271.556 107.346 272.207 107.329 272.459 106.825C273.018 108.168 274.753 108.445 276.179 108.754C277.23 108.967 278.294 109.106 279.365 109.171C280.316 109.353 281.3 109.247 282.19 108.864C283.72 107.959 283.739 105.538 284.006 104.027C284.423 101.71 284.767 99.3502 285.209 97.0087C285.507 95.4116 286.721 92.3321 284.811 91.3646ZM242.694 98.3536C241.361 96.8941 242.548 94.267 245.377 94.5526C249.566 94.9696 252.773 95.8036 257.512 94.6923C257.762 94.6068 258.071 94.5526 258.321 94.4671C259.081 94.6993 259.792 95.0689 260.418 95.5576C260.55 95.6547 260.66 95.7774 260.743 95.9182C260.826 96.0591 260.879 96.2153 260.9 96.3774C260.921 96.5394 260.909 96.704 260.864 96.8613C260.82 97.0185 260.744 97.1651 260.641 97.2923C260.112 98.1034 258.8 98.3348 257.902 98.633C255.717 99.3314 253.47 99.8201 251.192 100.092C249.967 100.329 248.714 100.376 247.475 100.232C245.726 100.111 244.057 99.4551 242.694 98.3536ZM245.181 104.338C243.198 103.159 246.605 102.507 247.447 102.323C250.372 102.193 253.28 101.819 256.142 101.206C257.464 100.96 258.757 100.575 259.999 100.059C260.95 100.476 262.084 101.064 261.817 102.24C261.265 104.6 252.172 106.168 249.822 105.288C248.239 105.159 246.677 104.84 245.171 104.338H245.181ZM256.232 110.801C254.175 110.665 252.143 110.271 250.185 109.627C249.68 109.46 248.236 109.066 248.144 108.453C248.067 107.949 249.186 107.503 249.514 107.503C254.142 107.503 257.437 107.534 261.534 105.295C262.305 105.774 264.649 105.205 266.008 106.775C265.952 106.957 265.952 107.152 266.008 107.334C266.867 111.27 258.331 110.937 256.215 110.795L256.232 110.801ZM272.307 105.461C272.175 105.323 272.01 105.22 271.828 105.161C271.646 105.103 271.452 105.09 271.264 105.126C269.895 105.378 268.496 105.628 267.094 105.88C266.829 105.234 266.357 104.693 265.752 104.344C265.009 103.935 264.191 103.678 263.348 103.589C264.217 102.24 264.011 100.389 261.978 98.7789C262.4 98.3781 262.704 97.869 262.857 97.3073C263.01 96.7455 263.006 96.1526 262.845 95.593C262.669 95.0775 262.39 94.6032 262.025 94.1992C261.66 93.7951 261.216 93.4699 260.721 93.2432C260.804 93.1598 260.86 93.1327 260.944 93.0493C263.237 90.7767 260.827 88.0808 258.623 87.0654C255.969 85.6767 252.873 85.3956 250.012 86.2835C249.061 86.7005 249.62 88.1016 250.515 88.1287C252.654 87.7912 254.843 87.983 256.89 88.6875C257.783 89.0232 259.144 89.559 259.574 90.5035C260.147 91.7691 258.233 92.2174 257.42 92.4614C253.514 93.2617 249.482 93.2141 245.596 92.3217C243.647 91.6962 241.57 90.4764 241.989 88.1287C242.273 87.1006 242.831 86.1691 243.604 85.4344C244.378 84.6998 245.337 84.1896 246.378 83.9587C251.191 82.6163 256.262 82.4817 261.14 83.5668C261.3 83.6064 261.467 83.6096 261.629 83.5761C261.791 83.5426 261.943 83.4734 262.074 83.3734C262.205 83.2734 262.313 83.1452 262.388 82.9982C262.464 82.8513 262.505 82.6893 262.51 82.5243C262.53 78.8075 263.4 75.1446 265.053 71.8157C268.216 66.1049 272.365 65.9673 273.301 68.2941C274.296 70.7669 271.95 73.1272 271.623 80.2036C271.354 84.1348 272.269 88.0564 274.25 91.4626C274.097 91.8046 273.976 92.1598 273.887 92.5239C272.658 96.7191 272.122 101.087 272.301 105.455L272.307 105.461ZM283.405 95.9829C283.209 97.0734 282.144 103.308 281.783 105.322C281.614 106.272 281.673 107.038 280.582 107.167C279.46 107.214 278.337 107.1 277.246 106.831C276.521 106.691 274.669 106.554 274.34 105.824C274.293 101.696 274.783 97.58 275.799 93.5789C275.876 93.3266 275.939 92.5364 276.191 92.4322C276.387 92.3577 276.598 92.3292 276.806 92.3488C277.432 92.3488 283.666 93.1223 283.712 93.1598C284.108 93.4976 283.501 95.493 283.389 95.9767L283.405 95.9829Z" fill="#191919"/>
<path d="M133.706 231.318C134.17 233.115 134.479 234.948 134.628 236.798C134.921 238.385 134.655 240.026 133.873 241.439C130.537 246.026 120.335 241.305 115.479 238.391C114.035 237.644 112.769 236.597 111.766 235.319C110.762 234.04 110.045 232.562 109.662 230.983C109.414 229.64 107.368 230.201 107.593 231.541C108.044 233.394 108.885 235.128 110.062 236.628C111.239 238.128 112.723 239.358 114.416 240.236C118.081 242.39 122.021 244.036 126.129 245.129C129.432 245.786 133.635 245.596 135.747 242.5C136.663 240.941 137.046 239.126 136.838 237.329C136.69 235.094 136.341 232.876 135.795 230.703C135.689 230.457 135.497 230.258 135.254 230.143C135.011 230.029 134.735 230.008 134.478 230.084C134.22 230.16 134 230.327 133.858 230.555C133.715 230.782 133.661 231.054 133.706 231.318Z" fill="#191919"/>
<path d="M368.377 329.028C361.079 319.397 351.443 317.512 343.999 315.385C343.607 315.302 343.274 315.16 342.882 315.05C345.284 314.521 347.556 313.519 349.567 312.103C351.578 310.687 353.287 308.885 354.595 306.802C354.717 306.578 354.763 306.322 354.728 306.071C354.692 305.819 354.577 305.586 354.399 305.405C343.422 295.682 344.105 279.601 343.636 266.125C343.184 253.179 341.009 238.332 329.127 230.787C326.304 228.88 323.018 227.772 319.617 227.58C316.216 227.388 312.827 228.12 309.807 229.696C303.761 224.356 284.531 239.704 288.392 255.809C288.521 256.376 288.769 256.91 289.12 257.375C287.863 261.324 287.065 265.404 286.743 269.536C286.163 274.163 286.4 278.856 287.441 283.402C287.88 285.283 288.693 287.057 289.831 288.618C290.969 290.179 292.41 291.495 294.068 292.488C296.053 293.502 298.273 293.965 300.498 293.831C300.574 296.696 300.294 299.56 299.664 302.356C299.306 303.951 298.791 305.505 298.125 306.998C297.766 307.781 297.026 309.349 298.321 309.681C299.835 310.071 300.642 307.045 301.146 305.571C302.453 301.745 302.817 297.659 302.207 293.662C307.628 292.813 314.209 289.479 316.634 284.696C316.733 284.51 316.763 284.294 316.718 284.088C316.673 283.881 316.556 283.697 316.388 283.57C316.22 283.442 316.011 283.378 315.8 283.39C315.589 283.402 315.389 283.489 315.237 283.635C312.981 286.324 310.166 288.49 306.988 289.98C303.623 291.439 299.186 292.417 295.729 290.791C288.371 287.336 288.586 277.261 288.993 270.41C289.392 265.88 290.074 261.379 291.034 256.935C300.162 246.822 304.534 245.776 306.158 243.432C308.762 250.867 313.533 257.352 319.857 262.051C321.456 263.156 323.208 264.023 325.057 264.624C325.14 264.624 325.224 264.651 325.28 264.624C325.461 264.758 325.63 264.907 325.785 265.07C325.966 265.248 326.199 265.364 326.451 265.399C326.702 265.434 326.958 265.388 327.182 265.266C328.034 264.808 329.021 264.667 329.967 264.866C330.914 265.066 331.76 265.594 332.354 266.357C332.959 267.161 333.359 268.101 333.52 269.094C333.68 270.088 333.597 271.105 333.276 272.059C332.97 273.009 332.466 273.883 331.796 274.622C331.125 275.362 330.305 275.95 329.39 276.347C328.474 276.744 327.484 276.941 326.487 276.925C325.489 276.909 324.506 276.68 323.604 276.254C323.38 276.132 323.124 276.085 322.872 276.12C322.62 276.156 322.386 276.271 322.205 276.45C321.53 277.435 321.064 278.548 320.835 279.719C317.568 291.012 317.947 303.388 318.291 314.36C318.309 314.564 318.376 314.761 318.488 314.933C318.6 315.105 318.753 315.247 318.932 315.347C319.112 315.446 319.313 315.5 319.518 315.503C319.724 315.506 319.927 315.458 320.109 315.365C322.722 316.439 325.531 316.953 328.355 316.874C331.98 316.819 335.596 316.502 339.174 315.925C343.847 318.261 351.476 319.309 357.404 322.662C361.295 324.861 364.634 327.917 367.167 331.598C369.701 335.28 371.362 339.491 372.026 343.91C372.307 345.599 372.541 349.012 372.947 350.144C372.977 350.242 373.034 350.329 373.112 350.394C373.19 350.46 373.285 350.501 373.386 350.512C373.487 350.524 373.59 350.506 373.681 350.46C373.772 350.415 373.847 350.343 373.898 350.255C375.31 346.902 374.486 337.08 368.377 329.028ZM320.067 255.919C319.908 256.016 319.724 256.068 319.537 256.068C319.35 256.068 319.166 256.016 319.006 255.919C315.132 253.487 312.173 249.84 310.591 245.548C309.938 244.234 309.695 242.754 309.893 241.299C309.918 241.206 309.968 241.121 310.037 241.053C310.107 240.986 310.193 240.938 310.287 240.915C310.381 240.892 310.48 240.895 310.572 240.923C310.665 240.95 310.749 241.003 310.814 241.074C311.681 242.417 312.376 243.864 312.883 245.38C314.319 248.349 316.382 250.972 318.929 253.069C319.701 253.717 321.471 254.977 320.067 255.919ZM326.414 232.94C325.201 233.163 324.719 232.146 322.052 231.345C320.384 230.843 318.66 230.941 316.965 230.563C316.89 230.542 316.822 230.499 316.771 230.439C316.721 230.379 316.689 230.305 316.68 230.228C316.671 230.15 316.685 230.071 316.721 230.001C316.757 229.931 316.813 229.874 316.882 229.836C318.625 229.204 320.524 229.145 322.303 229.669C323.645 229.971 326.473 230.674 326.804 232.269C326.833 232.576 326.694 232.911 326.414 232.94Z" fill="#191919"/>
<path d="M206.115 241.41C207.079 236.041 207.266 230.003 204.466 225.111C203.369 223.045 201.698 221.339 199.655 220.198C197.612 219.057 195.284 218.531 192.949 218.681C187.918 219.307 184.609 223.389 180.62 226.089C170.595 232.894 158.84 230.49 151.684 238.978C143.761 248.361 145.281 261.705 150.175 272.13C148.263 272.986 146.689 274.453 145.7 276.3C145.005 277.663 144.661 279.178 144.7 280.707C144.74 282.237 145.161 283.732 145.926 285.057C146.81 286.501 148.03 287.71 149.482 288.581C150.934 289.452 152.575 289.96 154.266 290.061C156.036 290.343 157.85 290.15 159.522 289.502C161.822 295.473 162.675 301.903 162.011 308.267C161.935 308.767 161.916 309.274 161.955 309.779C161.759 309.583 161.567 309.412 161.367 309.218C161.266 309.125 161.138 309.067 161.002 309.052C160.866 309.037 160.729 309.066 160.61 309.135C160.491 309.203 160.398 309.308 160.343 309.434C160.288 309.56 160.275 309.699 160.306 309.833C161.25 313.273 164.809 315.446 167.937 316.682C174.664 319.197 182.057 319.297 188.849 316.964C192.015 315.863 196.003 314.193 197.963 311.372C198.605 310.448 197.404 309.608 196.566 309.973C195.666 310.399 194.805 310.905 193.993 311.482C193.937 309.971 192.471 309.468 192.204 303.628C192.167 302.817 192.288 301.979 192.204 301.195C193.983 300.97 195.701 300.404 197.265 299.527C199.044 298.359 200.527 296.794 201.599 294.955C202.671 293.117 203.302 291.055 203.442 288.931C203.672 283.568 202.891 278.209 201.141 273.135C199.681 267.607 197.647 262.248 195.073 257.143C201.203 253.211 204.764 248.949 206.115 241.41ZM201.141 284.602C201.449 286.655 201.314 288.751 200.745 290.747C200.176 292.744 199.185 294.595 197.84 296.176C194.877 299.168 190.069 299.337 186.099 298.999C181.849 298.691 177.824 296.969 174.665 294.108C174.545 293.996 174.389 293.931 174.225 293.923C174.06 293.915 173.899 293.965 173.768 294.065C173.638 294.165 173.547 294.308 173.511 294.468C173.476 294.629 173.498 294.796 173.575 294.942C174.531 296.749 176.026 298.214 177.851 299.135C181.754 300.982 186.07 301.781 190.376 301.456C189.675 304.434 189.9 307.555 191.02 310.402C191.341 311.207 191.606 312.135 192.361 312.554C188.878 314.492 185.023 315.667 181.051 316C177.079 316.333 173.082 315.816 169.326 314.485C167.115 313.644 165.063 312.434 163.258 310.905C164.718 309.927 164.643 307.381 164.795 305.817C165.443 299.156 163.348 291.106 161.44 288.456C161.86 288.186 162.209 287.819 162.458 287.386C162.706 286.953 162.846 286.467 162.866 285.968C162.865 285.786 162.816 285.606 162.724 285.449C162.631 285.291 162.499 285.161 162.341 285.07C162.182 284.98 162.003 284.932 161.82 284.933C161.638 284.933 161.458 284.982 161.3 285.074C159.603 285.883 159.18 288.17 154.255 287.394C153.012 287.296 151.81 286.902 150.75 286.246C149.69 285.589 148.802 284.688 148.161 283.618C147.653 282.691 147.37 281.658 147.335 280.601C147.301 279.545 147.516 278.495 147.962 277.537C148.409 276.579 149.075 275.74 149.906 275.087C150.738 274.434 151.711 273.986 152.748 273.779C154.571 273.262 156.515 273.375 158.265 274.101C160.016 274.826 161.47 276.121 162.393 277.776C163.033 278.952 165.162 278.475 165.022 277.078C164.475 271.804 165.264 266.477 167.316 261.588C178.858 264.055 186.523 262.324 193.651 258.123C194.514 260.656 200.35 274.655 201.141 284.602ZM196.666 245.546C199.035 242.142 200.357 238.119 200.469 233.972C200.523 232.686 200.302 231.4 200.357 230.113C200.361 229.966 200.407 229.823 200.491 229.702C200.574 229.58 200.691 229.486 200.828 229.43C200.964 229.374 201.113 229.359 201.258 229.386C201.403 229.413 201.537 229.482 201.643 229.583C203.772 231.591 203.103 235.678 202.734 238.305C202.328 241.473 201.125 244.485 199.239 247.062C198.105 248.549 195.521 247.058 196.666 245.548V245.546Z" fill="#191919"/>
<path d="M47.5977 164.892C48.5055 165.032 49.4295 165.032 50.3373 164.892C51.3309 164.773 52.2809 164.416 53.1062 163.85C53.8508 163.299 54.4307 162.555 54.7833 161.699C55.1359 160.843 55.2477 159.906 55.1067 158.991C54.9656 158.075 54.5771 157.216 53.9831 156.506C53.3891 155.795 52.6122 155.26 51.7364 154.959C50.5238 154.605 49.2769 154.38 48.0167 154.29C48.0988 157.829 47.9588 161.37 47.5977 164.892Z" fill="#38A1FF"/>
<path d="M84.9782 185.945C82.9264 185.033 81.1163 183.654 79.6927 181.918C79.0672 181.293 77.3992 179.554 76.8696 178.843C81.0699 172.79 83.2583 165.568 83.1246 158.201C83.4728 143.296 72.6141 125.382 55.586 121.968C47.9499 120.655 40.0943 121.741 33.1012 125.077C26.1081 128.414 20.3214 133.836 16.5381 140.598C10.5187 151.371 8.99455 166.623 15.3371 178.591C18.9178 185.158 24.1874 190.65 30.6014 194.499C38.8622 198.707 50.7759 198.824 57.8315 196.82C62.4956 195.494 65.4292 192.979 69.4616 189.105C69.481 189.131 69.5062 189.152 69.5352 189.167C69.5641 189.181 69.5961 189.189 69.6284 189.189C72.267 190.181 75.1141 190.489 77.9038 190.083C79.8345 189.814 84.0295 188.624 85.2013 187.177C85.3123 187.103 85.3992 186.999 85.4515 186.876C85.5037 186.753 85.5189 186.618 85.4951 186.487C85.4714 186.356 85.4098 186.235 85.3179 186.138C85.2261 186.042 85.108 185.975 84.9782 185.945ZM36.1892 153.794C36.2509 153.342 36.4711 152.926 36.8106 152.621C37.15 152.315 37.5867 152.14 38.043 152.127C38.4993 152.113 38.9456 152.262 39.3026 152.547C39.6595 152.831 39.9039 153.233 39.9922 153.681C40.574 157.082 35.62 156.262 36.1913 153.794H36.1892ZM37.2317 163.942C37.4337 163.616 37.7296 163.36 38.0802 163.207C38.4309 163.054 38.8198 163.011 39.1955 163.084C39.5712 163.157 39.9159 163.342 40.184 163.615C40.4521 163.888 40.631 164.236 40.697 164.613C41.3287 168.276 35.3239 166.979 37.2275 163.942H37.2317ZM49.6708 167.995C47.9111 168.086 44.8753 168.078 44.6397 165.814C44.561 163.529 44.7295 161.242 45.1422 158.994C45.432 156.673 45.7448 154.328 46.1847 151.976C46.2092 151.875 46.2573 151.782 46.3249 151.704C46.3926 151.627 46.4779 151.566 46.5738 151.528C46.6696 151.489 46.7733 151.474 46.876 151.484C46.9788 151.494 47.0777 151.528 47.1646 151.584C47.3064 151.415 48.1362 150.76 50.9656 151.361C60.8589 153.466 60.8401 167.409 49.6666 167.995H49.6708Z" fill="#38A1FF"/>
</svg>
