<svg width="295" height="295" viewBox="0 0 295 295" fill="none" xmlns="http://www.w3.org/2000/svg">
<path d="M212.616 40.6053C205.967 32.6113 196.782 27.134 186.588 25.0839C176.61 23.0439 164.409 22.8581 155.335 27.9955C155.197 28.0713 155.079 28.1769 154.988 28.3045C154.897 28.4322 154.835 28.5786 154.808 28.733C133.991 37.8869 119.379 74.34 140.091 100.94C141.599 100.397 142.933 100.186 144.563 99.6599C143.318 96.0815 143.597 92.2952 142.284 88.7331C141.229 85.8745 140.533 82.8581 140.897 81.2961C141.181 80.0866 143.949 80.4908 145.002 81.156C147.396 82.6679 147.938 86.6651 148.755 89.7508C148.721 88.9086 150.246 87.8333 151.106 87.8215C151.532 87.8431 151.947 87.9636 152.319 88.1736C152.69 88.3835 153.008 88.6771 153.246 89.031C153.696 89.5075 154.037 90.0763 154.245 90.6978C154.209 90.34 154.282 89.9798 154.454 89.6641C154.626 89.3484 154.889 89.0919 155.209 88.9278C155.59 88.6675 156.038 88.5238 156.499 88.5144C156.96 88.505 157.414 88.6302 157.805 88.8747C158.926 89.3526 159.103 89.5074 159.963 90.804C159.841 89.6122 160.524 89.5945 161.717 89.7523C162.845 89.9569 163.85 90.5915 164.519 91.5223C168.912 96.7054 167.129 110.059 164.66 116.217C174.002 118.104 183.701 116.987 192.369 113.023C201.036 109.06 208.227 102.454 212.91 94.1537C222.248 78.0968 224.978 55.8671 212.616 40.6053ZM198.287 49.0128C196.527 52.7814 193.62 55.8184 191.059 59.0811C174.254 80.4937 178.876 85.9261 173.802 89.2478C173.449 89.4559 173.038 89.5413 172.631 89.4906C172.225 89.4399 171.847 89.2559 171.557 88.9676C162.022 77.436 154.823 71.1511 153.035 68.3176C152.917 68.1093 152.871 67.8683 152.904 67.6313C152.936 67.3943 153.045 67.1745 153.214 67.0054C153.383 66.8363 153.603 66.7272 153.84 66.6949C154.077 66.6625 154.318 66.7087 154.526 66.8264C158.804 69.1687 169.669 81.184 172.855 84.8568C173.809 82.7578 174.33 74.2574 188.814 55.9881C191.066 52.8139 193.78 49.9941 196.865 47.6219C197.798 46.9758 198.672 48.1824 198.287 49.0069V49.0128Z" fill="#38A1FF"/>
<path d="M92.7341 140.457C91.8933 139.886 90.6691 139.916 90.5216 141.333C90.3741 142.75 92.327 144.481 93.4332 143.578C94.5395 142.675 93.5748 141.026 92.7341 140.457Z" fill="#191919"/>
<path d="M146.877 92.0312C146.39 89.1534 146.054 84.3287 143.298 82.6472C142.896 82.4009 142.216 82.7165 142.369 83.2372C142.822 84.7948 143.697 86.168 144.139 87.7448C145.163 92.1653 145.89 96.6495 146.315 101.167C144.474 100.794 142.56 101.124 140.949 102.091C139.339 103.058 138.148 104.593 137.612 106.393C137.441 107.288 137.477 108.21 137.717 109.089C137.957 109.967 138.395 110.779 138.997 111.463C140.615 113.701 142.417 115.802 144.382 117.742C144.677 118.024 145.287 117.729 145.031 117.321C141.668 111.936 139.131 110.495 138.962 107.92C138.943 107.006 139.179 106.104 139.645 105.317C140.112 104.53 140.788 103.89 141.599 103.467C143.158 102.604 144.722 102.8 146.369 102.467C146.387 103.221 146.381 103.975 146.352 104.729C146.349 104.839 146.389 104.946 146.463 105.028C146.537 105.109 146.639 105.16 146.749 105.168C146.859 105.177 146.968 105.144 147.053 105.075C147.139 105.007 147.196 104.908 147.211 104.799C147.87 100.557 147.757 96.2321 146.877 92.0312Z" fill="#191919"/>
<path d="M150.176 92.925C150.234 92.741 150.346 92.5786 150.497 92.4585C150.648 92.3384 150.831 92.2662 151.023 92.2512C151.216 92.2361 151.408 92.2789 151.576 92.374C151.744 92.4691 151.879 92.6121 151.965 92.7848C152.616 94.0842 153.178 95.426 153.648 96.8013C154.066 98.2763 153.943 100.341 154.946 101.537C155.005 101.608 155.08 101.665 155.164 101.701C155.249 101.738 155.341 101.755 155.433 101.75C155.525 101.744 155.615 101.718 155.695 101.672C155.775 101.626 155.843 101.561 155.893 101.484C156.735 100.192 156.178 98.2733 155.788 96.9119C155.326 95.2633 154.636 93.6875 153.737 92.2302C153.136 91.2671 152.299 90.1829 151.017 90.3127C150.47 90.4168 149.98 90.7164 149.638 91.1556C149.296 91.5949 149.125 92.1436 149.158 92.6993C149.136 93.2598 150.108 93.5548 150.176 92.925Z" fill="#191919"/>
<path d="M156.122 92.63C158.592 90.2597 159.219 95.9974 159.401 97.26C160.03 101.697 159.548 102.051 160.365 103.066C160.418 103.127 160.484 103.176 160.559 103.208C160.633 103.24 160.714 103.255 160.795 103.252C160.876 103.249 160.955 103.227 161.027 103.189C161.098 103.15 161.16 103.096 161.207 103.03C162.112 101.815 161.61 99.8044 161.454 98.3825C161.328 96.5709 160.986 94.7809 160.436 93.0504C159.601 90.7863 156.99 89.5915 155.333 91.894C154.973 92.3881 155.664 93.0725 156.122 92.63Z" fill="#191919"/>
<path d="M161.716 93.3469C163.781 93.7274 163.746 97.1347 163.874 98.7129C164.169 102.507 163.873 106.323 162.997 110.026C162.375 111.691 161.978 113.431 161.817 115.2C161.836 115.674 162.414 116.147 162.834 115.726C164.43 114.13 164.818 111.5 165.255 109.359C165.756 106.848 165.98 104.289 165.922 101.729C165.864 98.7793 166.059 91.9014 161.659 92.189C160.961 92.2347 161.138 93.2392 161.716 93.3469Z" fill="#191919"/>
<path d="M146.93 185.164C147.02 185.236 147.038 185.254 146.93 185.164V185.164Z" fill="#191919"/>
<path d="M46.3431 251.603C48.4892 239.972 50.0866 228.003 48.3432 216.226C48.2178 215.384 46.8534 215.595 46.8682 216.419C47.3387 240.6 42.5582 256.728 38.2556 277.484C37.7187 280.082 36.6199 283.08 36.6951 285.744C36.7703 288.371 39.2026 287.888 39.3604 286.463L39.5551 284.675C39.3648 283.347 44.1645 263.405 46.3431 251.603Z" fill="#191919"/>
<path d="M172.255 169.466C170.881 155.471 169.477 141.096 165.398 127.601C164.975 126.198 162.765 126.548 163.1 128.043C165.495 139.331 167.304 150.735 168.521 162.21C169.885 173.768 171.047 185.502 169.661 197.113C168.469 207.075 165.732 217.862 156.91 223.737C149.561 228.631 140.39 231.646 131.969 229.402C120.971 226.471 118.148 223.42 110.08 215.757C109.969 215.633 109.814 215.558 109.648 215.546C109.482 215.534 109.318 215.588 109.19 215.695C109.063 215.801 108.982 215.954 108.964 216.119C108.947 216.285 108.995 216.451 109.097 216.582C113.869 223.132 119.235 227.792 125.303 230.299C125.622 234.392 126.178 238.462 126.97 242.49C131.622 274.8 129.15 278.797 130.582 287.091C130.708 287.811 131.812 287.742 131.987 287.091C133.226 282.464 132.823 277.375 132.636 272.636C132.099 259.066 129.582 238.949 127.39 231.068C135.196 233.63 144.048 232.846 154.016 228.473C164.36 223.933 168.559 216.099 171.028 205.706C173.846 193.845 173.443 181.552 172.255 169.466Z" fill="#191919"/>
<path d="M278.404 19.8742C277.111 16.1026 274.142 11.7027 270.318 10.6834C267.669 10.1591 264.984 9.84249 262.286 9.73648C225.452 5.99735 198.664 7.78063 169.082 7.87798C168.908 7.8731 168.736 7.92203 168.591 8.0181C136.63 8.9975 109.717 7.03428 75.0771 12.3325C72.4471 12.7352 69.7671 12.8384 67.5708 14.6305C64.0411 17.5186 62.3685 22.0498 61.6959 26.609C59.1382 43.9211 60.0999 85.2078 61.1693 104.834C61.6693 114.016 61.9068 125.474 68.9042 131.406C67.5178 132.743 66.6115 134.5 66.3259 136.405C64.7653 145.193 69.8039 149.403 72.6404 155.82C73.8591 157.962 75.867 159.542 78.235 160.223C78.4916 162.574 78.1475 164.952 77.235 167.134C62.6413 168.609 53.9905 172.681 42.2775 180.376C36.2461 184.136 30.5537 188.414 25.2648 193.162C15.549 202.317 9.51333 214.525 11.9707 228.064C14.6345 242.745 26.1115 255.663 38.8747 262.81C40.034 263.459 40.8792 261.839 39.8924 261.074C34.8125 257.131 29.6161 253.461 25.2648 248.673C14.3351 236.646 11.7981 223.086 15.1272 212.49C19.1362 199.733 30.1146 191.213 41.1727 183.831C46.9286 179.687 53.129 176.199 59.6589 173.43C72.3011 168.595 86.1263 168.268 99.4559 169.448C107.331 170.147 116.137 172.885 123.695 175.289C131.185 177.673 144.25 185.725 147.022 186.04C147.022 186.04 149.728 186.738 148.126 184.848C146.92 183.424 142.988 181.323 137.971 178.99C138.129 178.94 138.271 178.852 138.384 178.732C138.498 178.612 138.579 178.465 138.62 178.305C138.909 175.871 138.927 173.413 138.673 170.975C138.298 145.854 143.725 128.732 145.321 120.988C145.347 120.889 145.343 120.783 145.308 120.686C145.274 120.589 145.211 120.505 145.128 120.444C148.109 120.602 151.109 120.444 154.09 120.549C157.001 120.654 160.195 121.415 163.07 120.991C163.215 120.96 163.346 120.884 163.444 120.772C163.542 120.661 163.601 120.521 163.613 120.373C163.625 120.225 163.589 120.078 163.51 119.952C163.431 119.826 163.314 119.729 163.176 119.676C160.391 118.541 156.792 118.78 153.827 118.729C150.682 118.572 147.53 118.76 144.426 119.289C144.3 119.318 144.188 119.388 144.108 119.488C144.028 119.588 143.984 119.713 143.984 119.842C143.984 119.97 144.028 120.095 144.108 120.195C144.188 120.295 144.3 120.366 144.426 120.394C143.013 121.202 136.285 145.911 136.675 172.1C136.692 173.374 136.599 177.283 137.288 178.659C127.15 173.994 112.734 168.761 104.893 167.821C100.91 167.343 96.8599 166.979 92.808 166.789C92.078 164.809 91.7559 162.701 91.8611 160.594C93.9836 160.889 96.2463 160.61 97.3333 158.787C99.1225 155.787 96.9366 152.016 96.7728 148.876C96.7686 148.746 96.7184 148.623 96.6312 148.526C96.5441 148.43 96.4256 148.368 96.2969 148.351C96.1682 148.335 96.0378 148.364 95.9288 148.434C95.8198 148.505 95.7395 148.612 95.702 148.736C94.64 151.381 96.6342 153.981 96.1932 156.664C95.5648 160.489 91.3729 157.672 89.0556 158.558C88.9152 158.602 88.7925 158.689 88.7053 158.807C88.6181 158.926 88.571 159.069 88.571 159.216C88.571 159.363 88.6181 159.506 88.7053 159.624C88.7925 159.743 88.9152 159.83 89.0556 159.874C89.6173 160.079 90.1912 160.249 90.774 160.383C90.5173 161.839 90.5173 163.328 90.774 164.784C90.8633 165.429 90.9864 166.069 91.1428 166.702C87.189 166.566 83.2309 166.642 79.2852 166.929C79.4627 166.225 79.5918 165.51 79.6717 164.788C79.8763 163.391 79.8464 161.968 79.5832 160.58C80.8223 160.921 82.106 161.07 83.3902 161.023C87.2134 160.79 89.4377 156.2 87.7753 152.71C89.9023 152.71 91.7785 150.328 90.212 148.885C90.1333 148.812 90.0353 148.762 89.9295 148.743C89.8237 148.724 89.7146 148.735 89.6151 148.776C89.5155 148.816 89.4296 148.885 89.3676 148.972C89.3056 149.06 89.27 149.164 89.2651 149.271C88.7916 153.238 84.3504 149.097 83.8282 147.149C83.2972 145.168 85.2811 142.557 87.442 144.22C87.9671 144.624 88.5099 143.677 88.3712 143.133C88.1928 142.432 88.0556 141.712 87.8624 141.01C88.1842 140.75 88.4832 140.463 88.7562 140.152C90.2593 139.354 91.6862 138.42 93.019 137.362C94.3148 140.799 96.4434 143.861 99.214 146.273C98.8456 146.508 98.431 146.661 97.9983 146.721C97.5656 146.781 97.125 146.748 96.7065 146.622C96.4948 146.564 96.2685 146.591 96.0774 146.7C95.8863 146.808 95.7459 146.987 95.6872 147.199C95.6286 147.411 95.6564 147.637 95.7645 147.828C95.8727 148.019 96.0523 148.16 96.264 148.218C97.1076 148.456 98.0007 148.454 98.8432 148.212C99.6857 147.971 100.444 147.499 101.034 146.851C101.186 146.697 101.272 146.489 101.272 146.272C101.272 146.055 101.186 145.847 101.034 145.693C95.8716 141.336 94.4674 136.769 93.9305 136.548C94.106 136.39 94.2816 136.215 94.4571 136.057C102.649 136.422 110.855 136.282 119.029 135.637C125.398 135.107 131.702 135.908 138.393 135.794C138.515 135.321 138.62 134.83 138.744 134.339C132.401 134.339 128.763 134.029 122.87 133.847C117.887 133.7 115.958 134.871 96.0353 134.374C100.277 129.211 100.4 123.016 97.9823 119.447C97.0709 118.01 95.7438 116.885 94.1775 116.221C92.6111 115.557 90.8798 115.385 89.2135 115.728C85.8962 116.613 84.0628 119.785 82.4078 122.513C79.1097 127.958 78.1141 127.81 73.1817 129.126C72.188 129.379 71.2369 129.777 70.3585 130.306C65.432 126.436 64.2137 120.01 63.5529 113.638C62.013 98.7778 61.3404 53.8611 62.7284 34.7997C63.0234 30.6962 63.1192 25.9497 64.6931 22.1014C65.6048 19.4797 67.3011 17.2021 69.5517 15.5775C70.5621 14.9668 71.0061 14.8474 78.7424 13.7352C108.76 9.4223 135.477 10.8088 163.93 10.1583C203.377 9.25563 231.893 8.33965 266.867 12.2632C269.568 12.5655 271.5 12.9446 273.444 15.104C276.22 18.1867 277.201 21.9436 277.9 26.0308C280.85 43.2883 282.357 95.2231 281.39 110.991C281.083 115.99 280.298 121.721 277.32 125.794C275.283 128.58 272.112 129.111 269.042 129.599C256.849 131.542 205.399 132.049 180.084 133.139C179.159 133.179 177.833 133.309 170.122 133.434C170.191 133.803 170.139 134.434 170.209 134.785C170.356 134.785 247.056 133.285 256.853 132.751C260.15 132.57 263.465 132.352 266.762 131.961C269.793 131.815 272.774 131.133 275.566 129.945C278.921 128.216 280.708 124.35 281.81 120.736C283.446 115.372 283.539 109.547 283.58 103.934C283.683 90.0532 282.874 32.9161 278.404 19.8742Z" fill="#191919"/>
</svg>
