<svg width="393" height="393" viewBox="0 0 393 393" fill="none" xmlns="http://www.w3.org/2000/svg">
<path d="M370.563 206.477C379.032 206.477 248.413 206.394 248.818 206.445C248.228 206.321 247.979 207.221 248.568 207.345C249.57 207.528 369.315 207.758 370.655 207.221C371.339 207.221 371.08 206.347 370.563 206.477Z" fill="#38A1FF"/>
<path d="M264.313 201.609C264.286 202.079 265.06 202.095 265.06 201.454C265.539 200.014 265.337 169.983 265.278 169.31C266.414 169.417 266.471 169.344 274.16 169.403C274.16 169.403 273.973 198.846 274.005 199.902C274.005 200.462 274.097 201.051 274.066 201.609C274.036 202.075 274.749 202.045 274.781 201.609C274.781 201.762 274.844 201.309 274.844 201.143C275.345 196.123 275.028 173.771 275.028 169.114C275.089 169.052 275.123 168.968 275.123 168.881C275.123 168.794 275.089 168.711 275.028 168.648C274.84 168.518 274.629 168.426 274.405 168.378C274.181 168.33 273.951 168.326 273.726 168.367C273.529 168.367 265.848 168.438 265.029 168.554C264.814 168.383 264.5 168.509 264.5 168.927C264.304 170.106 264.215 199.725 264.221 199.923C264.302 200.481 264.333 201.046 264.313 201.609Z" fill="#38A1FF"/>
<path d="M286.769 201.228C286.737 201.694 287.453 201.662 287.482 201.228C287.482 201.289 287.482 201.197 287.513 201.104C287.513 201.041 287.513 200.979 287.545 200.949C287.95 199.338 287.7 171.201 287.7 160.077C288.808 160.175 296.843 160.14 296.645 160.14C296.57 160.657 296.476 201.432 296.49 201.23C296.458 201.696 297.173 201.664 297.205 201.23C297.205 201.291 297.205 201.167 297.234 201.106C297.229 201.042 297.24 200.978 297.266 200.92C297.659 199.348 297.462 160.323 297.389 159.851L297.421 159.82C297.481 159.757 297.514 159.674 297.514 159.587C297.514 159.5 297.481 159.417 297.421 159.354C297.034 159.106 296.571 159.007 296.116 159.075C295.92 159.075 288.384 159.152 287.482 159.291C287.451 159.247 287.409 159.213 287.359 159.193C287.31 159.172 287.255 159.167 287.203 159.177C287.15 159.187 287.102 159.212 287.063 159.249C287.024 159.286 286.997 159.333 286.985 159.385C286.985 159.59 286.647 203.044 286.769 201.228Z" fill="#38A1FF"/>
<path d="M309.999 201.228C309.968 201.694 310.683 201.694 310.715 201.228C310.824 200.488 310.876 199.74 310.87 198.992C311.118 193.555 310.958 150.476 310.901 150.012C311.721 150.085 311.526 150.075 319.846 150.075C319.846 150.443 319.752 150.547 319.752 150.82V201.228C319.752 201.271 319.76 201.313 319.777 201.353C319.793 201.392 319.817 201.428 319.847 201.459C319.878 201.489 319.914 201.513 319.953 201.529C319.993 201.546 320.035 201.554 320.078 201.554C320.121 201.554 320.163 201.546 320.203 201.529C320.242 201.513 320.278 201.489 320.309 201.459C320.339 201.428 320.363 201.392 320.379 201.353C320.396 201.313 320.404 201.271 320.404 201.228C320.64 199.114 320.744 196.988 320.715 194.861C320.891 183.551 320.483 149.765 320.683 149.765C320.744 149.702 320.778 149.619 320.778 149.532C320.778 149.445 320.744 149.361 320.683 149.299C320.107 148.906 320.709 148.985 311.988 149.144C311.583 149.144 311.178 149.175 310.778 149.236C310.752 149.186 310.713 149.144 310.664 149.116C310.615 149.089 310.559 149.075 310.503 149.079C310.447 149.082 310.393 149.102 310.348 149.135C310.303 149.169 310.268 149.215 310.249 149.268C310.249 149.429 310.131 149.444 310.186 149.609C309.946 150.816 309.988 201.428 309.999 201.228Z" fill="#38A1FF"/>
<path d="M333.976 201.02V201.175C333.945 201.641 334.66 201.641 334.692 201.175V200.988C334.687 200.914 334.697 200.84 334.721 200.77C335.114 198.45 334.918 143.526 334.847 142.879C335.959 142.978 343.99 142.942 343.792 142.942C343.775 143.132 343.738 143.319 343.681 143.5V201.144C343.681 201.232 343.717 201.317 343.779 201.38C343.842 201.442 343.927 201.478 344.016 201.478C344.104 201.478 344.189 201.442 344.252 201.38C344.314 201.317 344.35 201.232 344.35 201.144V200.957C344.345 200.873 344.355 200.789 344.381 200.709C344.733 198.597 344.638 143.243 344.505 142.848V142.659C344.629 142.659 344.75 142.343 344.568 142.162C344.513 142.11 344.45 142.067 344.381 142.036C343.268 141.793 342.12 141.762 340.995 141.944C338.882 141.89 336.767 141.953 334.66 142.131C334.597 141.881 334.163 141.881 334.132 142.131C334.132 142.245 334.022 142.406 334.071 142.504C333.937 143.304 333.774 198.507 333.853 200.798C333.976 200.886 333.976 200.947 333.976 201.02Z" fill="#38A1FF"/>
<path d="M335.344 126.874C332.746 126.269 330.091 125.939 327.423 125.892C327.332 125.894 327.245 125.929 327.177 125.99C327.11 126.051 327.067 126.134 327.055 126.224C327.044 126.315 327.066 126.406 327.116 126.482C327.167 126.558 327.243 126.612 327.331 126.637C329.751 127.25 332.21 127.695 334.692 127.971C331.119 130.579 327.396 132.975 323.542 135.147C300.008 148.521 275.254 152.359 265.65 154.65C265.091 154.776 265.339 155.552 265.868 155.457C268.351 155.115 270.837 154.589 273.289 154.06C293.091 149.843 312.839 143.445 329.726 132.559C331.595 131.358 333.43 130.105 335.228 128.8C335.175 129.177 335.228 129.272 334.918 131.533C334.733 132.931 334.391 134.298 334.236 135.695C334.173 136.379 335.218 136.472 335.415 135.851C335.918 133.59 336.261 131.296 336.441 128.987C336.604 127.136 336.83 127.061 335.344 126.874Z" fill="#38A1FF"/>
<path d="M381.93 47.9876C381.919 47.8976 381.889 47.8108 381.844 47.7323C381.799 47.6538 381.738 47.5851 381.666 47.5303C381.594 47.4754 381.511 47.4355 381.423 47.4128C381.335 47.3901 381.244 47.3851 381.154 47.3981C380.958 47.3981 32.9169 48.1978 32.7165 48.298C32.6405 48.2001 32.5356 48.1286 32.4167 48.0937C32.2978 48.0588 32.1708 48.0622 32.054 48.1036C31.9372 48.1449 31.8363 48.222 31.7658 48.324C31.6953 48.4259 31.6587 48.5475 31.6613 48.6714C31.6613 51.0864 32.6968 234.264 32.5612 235.608C32.5298 236.447 33.8345 236.447 33.8974 235.608C34.1548 230.768 34.1588 230.383 32.9346 49.5714C37.0002 49.6303 380.284 48.5476 380.657 48.5476C380.657 57.901 381.683 233.548 381.557 234.8C381.528 235.639 382.83 235.639 382.893 234.8C383.803 217.699 381.956 48.2411 381.93 47.9876Z" fill="#191919"/>
<path d="M94.1224 224.148C94.0938 224.058 94.0449 223.975 93.9794 223.907C93.914 223.839 93.8339 223.787 93.7451 223.755C92.192 218.766 90.1283 213.95 87.5868 209.385C88.3276 208.137 88.1193 199.167 87.9424 196.854C87.9378 196.76 87.9125 196.669 87.8685 196.586C87.8245 196.503 87.7628 196.431 87.6878 196.375C87.6127 196.318 87.5262 196.279 87.4344 196.26C87.3426 196.241 87.2477 196.243 87.1564 196.264C77.3079 198.019 66.632 201.731 59.9805 209.216C59.4467 209.661 59.04 210.239 58.8015 210.892C58.6462 211.637 59.1748 212.476 59.4224 213.161C61.1317 217.489 63.1003 221.71 65.3174 225.8C65.3465 225.848 65.3868 225.888 65.4347 225.917C65.4826 225.945 65.5367 225.962 65.5925 225.965C63.7022 229.349 66.3785 234.218 69.6345 234.218C69.6954 234.839 69.945 235.46 70.0374 236.052C70.6269 239.302 69.381 241.129 69.664 242.169C69.6796 242.221 69.7067 242.27 69.7434 242.31C69.7801 242.351 69.8255 242.383 69.8762 242.404C69.9269 242.425 69.9816 242.434 70.0363 242.431C70.0911 242.428 70.1445 242.413 70.1926 242.387C71.6978 241.336 71.5268 235.706 70.7506 234.063C71.9709 233.75 73.0329 232.998 73.7335 231.951C73.7753 231.878 73.7952 231.794 73.7908 231.71C73.7865 231.626 73.7582 231.545 73.7092 231.476C73.6601 231.408 73.5925 231.355 73.5143 231.324C73.436 231.292 73.3505 231.284 73.2678 231.3C72.1419 231.589 69.5972 234.853 67.1488 231.361C65.1406 228.514 66.5279 225.073 68.8249 225.211C69.3429 225.29 69.8458 225.448 70.3164 225.678C70.5129 225.743 71.4836 225.413 71.4954 224.892C71.5583 222.338 71.9591 219.795 72.1792 217.253C72.246 216.467 72.0554 216.26 72.7373 215.918C77.3659 213.684 82.108 211.693 86.9442 209.953C87.4531 211.185 88.6498 213.586 88.8562 214.211C88.4299 214.109 87.9855 214.109 87.5594 214.212C87.1332 214.314 86.7373 214.516 86.4038 214.8C86.3422 214.864 86.303 214.947 86.2921 215.035C86.2813 215.123 86.2994 215.213 86.3437 215.29C86.388 215.367 86.4561 215.427 86.5378 215.462C86.6195 215.497 86.7104 215.505 86.7968 215.484C87.4103 215.281 88.0712 215.27 88.6911 215.453C88.8758 215.49 89.145 215.529 89.2806 215.392C90.5432 218.312 91.6479 221.298 92.5897 224.336C90.2073 226.506 87.2042 227.874 84.0034 228.248C80.8026 228.621 77.5653 227.981 74.7475 226.417C73.7453 225.417 73.0025 226.474 73.6294 227.099C75.301 228.743 76.4833 230.818 77.0445 233.094C77.3923 234.564 77.1094 235.537 78.4731 236.012C80.8473 236.909 83.341 237.449 85.8733 237.616C85.8025 238.365 86.1012 240.31 86.7654 240.736C86.9835 240.858 87.3549 240.766 87.3863 240.487C87.4826 239.917 86.9128 238.989 86.7359 237.641C92.3539 237.602 96.6199 232.383 94.1224 224.148ZM89.8996 232.534C89.5701 232.847 89.1554 233.055 88.7078 233.133C88.2601 233.21 87.7996 233.153 87.3844 232.969C86.9933 232.791 86.6554 232.514 86.4045 232.166C86.1535 231.817 85.9981 231.409 85.9539 230.982C85.9539 230.732 86.2663 230.607 86.3901 230.732C86.9481 231.292 87.3529 232.238 88.2843 232.224C89.2158 232.21 89.7463 231.206 90.1177 230.919C90.8153 230.369 91.1749 231.497 89.8937 232.534H89.8996Z" fill="#191919"/>
<path d="M87.9368 221.664C88.3206 222.326 88.6134 223.036 88.8073 223.776C88.8073 224.384 87.5182 224.501 86.9111 224.458C86.6084 224.458 86.2056 224.806 86.353 225.174C86.3933 225.283 86.4648 225.379 86.5587 225.449C86.6526 225.519 86.7648 225.56 86.8816 225.567C87.3734 225.649 87.8778 225.613 88.353 225.462C88.8283 225.311 89.2608 225.049 89.6149 224.698C90.2358 223.859 89.6758 222.802 89.3025 221.965C88.5144 220.069 87.3158 218.372 85.793 216.995C85.5139 216.777 85.0482 217.056 85.2664 217.388C86.2558 218.749 87.1482 220.178 87.9368 221.664Z" fill="#191919"/>
<path d="M79.553 219.615C79.7587 219.181 80.032 218.783 80.3625 218.436C80.6926 218.133 80.8872 218.176 81.1918 217.75C81.6673 217.082 80.9579 216.779 80.5197 216.895C80.0891 217.087 79.7081 217.376 79.4057 217.738C79.1033 218.1 78.8875 218.526 78.7748 218.984C78.6274 219.729 79.3388 220.039 79.553 219.615Z" fill="#191919"/>
<path d="M27.6836 257.288C28.6187 255.989 29.1486 254.444 29.2064 252.845C28.8295 251.239 28.31 249.67 27.6541 248.156C27.3118 246.477 27.4403 244.735 28.0255 243.124C28.0569 242.813 27.6226 242.69 27.436 242.876C27.0156 243.423 26.7084 244.048 26.5323 244.714C26.3562 245.381 26.3147 246.076 26.4102 246.759C26.5498 249.946 29.0885 251.96 27.8388 254.833C27.1996 255.963 26.6395 257.136 26.1626 258.343C25.8522 259.429 25.8207 261.168 27.0312 261.76C27.0878 261.79 27.1527 261.802 27.2163 261.793C27.28 261.783 27.3389 261.754 27.3844 261.708C27.4299 261.663 27.4595 261.604 27.4688 261.54C27.4781 261.477 27.4666 261.412 27.436 261.355C27.0858 260.724 26.9232 260.006 26.967 259.285C27.0109 258.565 27.2595 257.872 27.6836 257.288Z" fill="#191919"/>
<path d="M22.0332 243.124C22.1216 243.747 22.0941 244.615 22.5598 245.089C22.6164 245.139 22.6846 245.175 22.7582 245.193C22.8319 245.212 22.9089 245.211 22.9825 245.193C23.0561 245.175 23.1241 245.138 23.1805 245.088C23.237 245.037 23.2802 244.973 23.3065 244.902C23.5953 244.203 23.0432 243.36 22.9331 240.927C22.8408 239.591 22.8093 238.225 22.7465 236.889C22.717 236.518 22.157 236.423 22.0941 236.797C21.7782 238.893 21.7577 241.022 22.0332 243.124Z" fill="#191919"/>
<path d="M18.5238 245.081C18.5565 245.546 18.7299 245.99 19.0209 246.354C19.0727 246.409 19.1383 246.449 19.2108 246.47C19.2832 246.49 19.3599 246.491 19.4328 246.472C19.5057 246.453 19.5722 246.415 19.6252 246.361C19.6782 246.308 19.7159 246.241 19.7342 246.168C19.8378 245.736 19.8167 245.283 19.6733 244.863C19.1152 241.703 18.8032 238.505 18.7399 235.297C18.7105 234.955 18.1819 234.832 18.119 235.205C17.6641 238.495 17.8012 241.839 18.5238 245.081Z" fill="#191919"/>
<path d="M14.5405 244.957C14.7272 245.578 14.8195 246.509 15.5033 246.788C15.5858 246.816 15.6753 246.812 15.7553 246.778C15.8352 246.744 15.9 246.682 15.9376 246.604C16.419 245.737 15.24 245.061 14.1986 238.217C14.1357 237.783 13.391 237.875 13.4126 238.311C13.5451 240.561 13.9233 242.79 14.5405 244.957Z" fill="#191919"/>
<path d="M16.5062 260.363C12.9004 254.468 12.1832 248.541 10.5758 242.194C10.4815 241.801 9.7898 241.884 9.86054 242.289C10.3919 248.512 12.144 254.569 15.0167 260.115C15.451 260.901 15.9795 261.668 16.4138 262.444C17.3374 264.028 17.2568 264.354 17.75 264.619C17.8045 264.646 17.8641 264.661 17.9249 264.663C17.9856 264.664 18.046 264.653 18.102 264.629C18.1579 264.606 18.2081 264.57 18.2491 264.525C18.2901 264.48 18.3209 264.427 18.3395 264.369C18.6519 263.633 17.9151 262.668 16.5062 260.363Z" fill="#191919"/>
<path d="M14.4848 249.677C14.4441 249.722 14.4206 249.78 14.4182 249.84C14.4158 249.901 14.4346 249.96 14.4715 250.009C14.5084 250.057 14.561 250.09 14.6201 250.104C14.6793 250.117 14.7412 250.109 14.7952 250.082C20.195 247.319 21.8299 248.769 23.398 248.498C23.7399 248.435 23.7085 248.001 23.4923 247.814C22.3408 246.938 17.2377 246.926 14.4848 249.677Z" fill="#191919"/>
<path d="M281.49 253.031C282.386 251.8 282.897 250.33 282.959 248.809C282.609 247.277 282.12 245.78 281.499 244.336C281.194 242.737 281.322 241.085 281.873 239.553C281.902 239.243 281.499 239.149 281.313 239.335C280.917 239.858 280.628 240.453 280.463 241.087C280.297 241.722 280.259 242.382 280.35 243.031C280.485 246.036 282.861 247.944 281.716 250.671C281.12 251.745 280.592 252.855 280.134 253.994C279.853 255.02 279.792 256.696 280.939 257.256C280.992 257.285 281.052 257.295 281.11 257.287C281.169 257.279 281.224 257.251 281.266 257.209C281.308 257.167 281.335 257.113 281.344 257.054C281.352 256.995 281.341 256.935 281.313 256.883C280.991 256.285 280.838 255.611 280.869 254.933C280.9 254.254 281.115 253.597 281.49 253.031Z" fill="#191919"/>
<path d="M276.082 239.583C276.154 240.172 276.143 241.013 276.579 241.448C276.633 241.498 276.698 241.534 276.77 241.552C276.841 241.57 276.916 241.569 276.987 241.551C277.058 241.532 277.123 241.496 277.177 241.445C277.23 241.394 277.27 241.331 277.292 241.261C277.396 240.647 277.343 240.016 277.137 239.428C276.904 237.511 276.78 235.583 276.766 233.652C276.734 233.311 276.206 233.185 276.143 233.558C275.834 235.553 275.813 237.582 276.082 239.583Z" fill="#191919"/>
<path d="M272.762 241.448C272.804 241.886 272.965 242.305 273.228 242.658C273.28 242.706 273.343 242.74 273.412 242.757C273.48 242.774 273.552 242.773 273.62 242.755C273.688 242.736 273.751 242.701 273.801 242.652C273.852 242.602 273.889 242.541 273.91 242.474C274.014 242.062 273.992 241.629 273.849 241.23C273.325 238.223 273.023 235.181 272.947 232.13C272.918 231.819 272.42 231.695 272.358 232.037C271.93 235.173 272.067 238.36 272.762 241.448Z" fill="#191919"/>
<path d="M268.973 241.324C269.144 241.913 269.254 242.813 269.875 243.063C269.958 243.086 270.046 243.08 270.125 243.046C270.204 243.012 270.269 242.952 270.309 242.876C270.789 242.012 269.523 241.194 268.663 234.894C268.602 234.458 267.887 234.584 267.918 234.987C268.037 237.131 268.391 239.256 268.973 241.324Z" fill="#191919"/>
<path d="M270.837 255.983C267.395 250.284 266.799 245.175 265.184 238.714C265.092 238.341 264.439 238.404 264.5 238.807C265.018 244.725 266.686 250.486 269.413 255.765C269.847 256.509 270.313 257.256 270.747 258.001C271.637 259.526 271.509 259.846 272.02 260.082C272.07 260.109 272.126 260.125 272.183 260.129C272.24 260.133 272.297 260.124 272.35 260.104C272.404 260.083 272.452 260.051 272.492 260.01C272.531 259.969 272.561 259.92 272.58 259.866C272.814 259.272 272.47 258.683 270.837 255.983Z" fill="#191919"/>
<path d="M275.247 243.56C274.094 243.481 272.938 243.638 271.848 244.022C270.759 244.407 269.759 245.01 268.912 245.794C268.694 246.012 268.973 246.293 269.222 246.168C274.225 243.613 276.058 244.92 277.391 244.678C277.731 244.615 277.701 244.212 277.483 244.026C276.794 243.669 276.021 243.508 275.247 243.56Z" fill="#191919"/>
<path d="M155.707 238.062C154.805 237.286 153.655 236.944 152.724 236.26C151.791 235.437 150.729 234.773 149.58 234.295C149.054 234.119 148.494 234.072 147.947 234.159C147.399 234.246 146.881 234.464 146.436 234.794C143.292 237.123 143.881 238.724 144.292 241.222C144.495 242.662 144.431 244.127 144.105 245.545C144.086 245.616 144.093 245.692 144.125 245.758C144.157 245.825 144.212 245.878 144.279 245.908C144.347 245.938 144.422 245.943 144.493 245.922C144.564 245.902 144.625 245.856 144.665 245.794C146.63 242.257 143.838 239.176 145.597 237.036C146.14 236.26 146.894 235.656 147.77 235.295C149.735 234.706 151.435 236.942 152.958 237.781C153.824 238.117 154.608 238.636 155.255 239.302C155.393 239.443 155.495 239.616 155.551 239.805C155.607 239.994 155.617 240.195 155.578 240.388C155.539 240.582 155.454 240.763 155.329 240.916C155.204 241.07 155.044 241.19 154.862 241.267C154.147 241.511 153.385 241.587 152.635 241.49C151.886 241.394 151.169 241.126 150.539 240.709C150.146 240.381 149.731 240.079 149.297 239.807C149.016 239.652 148.768 239.931 148.892 240.212C149.555 241.049 150.426 241.696 151.419 242.089C152.411 242.481 153.49 242.605 154.545 242.448C155.059 242.439 155.555 242.263 155.959 241.946C156.363 241.63 156.652 241.19 156.784 240.694C156.915 240.198 156.881 239.672 156.687 239.197C156.492 238.722 156.148 238.324 155.707 238.062Z" fill="#191919"/>
<path d="M152.817 234.242C154.173 231.811 155.395 227.858 156.513 226.105C156.698 225.826 156.906 225.576 157.103 225.297C156.733 228.563 156.099 231.793 155.209 234.957C155.146 235.391 155.767 235.794 156.016 235.297C157.078 232.246 157.777 229.08 158.097 225.865C158.158 225.337 158.19 224.653 157.724 224.311C156.425 223.216 154.837 227.085 154.214 228.659C153.439 230.391 152.755 232.162 152.165 233.965C152.145 234.047 152.156 234.134 152.194 234.21C152.232 234.285 152.296 234.345 152.374 234.378C152.452 234.411 152.54 234.416 152.621 234.391C152.702 234.366 152.771 234.313 152.817 234.242Z" fill="#191919"/>
<path d="M155.861 237.131C155.664 237.469 156.14 237.875 156.419 237.565C156.959 236.941 157.612 236.425 158.344 236.044C159.636 235.397 159.842 236.136 160.394 236.231C160.983 236.376 161.241 235.248 159.804 234.855C158.997 234.81 158.194 235.002 157.494 235.406C156.793 235.81 156.226 236.409 155.861 237.131Z" fill="#191919"/>
<path d="M157.91 238.87C157.631 239.088 158.003 239.522 158.282 239.367C159.16 238.856 159.787 238.168 160.394 237.814C161.39 237.315 161.713 237.919 162.228 238.125C162.742 238.331 162.99 237.197 161.762 236.789C159.993 236.193 158.596 238.331 157.91 238.87Z" fill="#191919"/>
<path d="M162.94 240.485C162.681 239.162 160.905 239.432 159.897 240.64C159.68 240.888 159.959 241.353 160.27 241.137C160.549 240.951 161.698 240.267 162.009 240.64C162.133 240.795 162.009 241.385 161.948 241.571C161.321 244.706 154.556 248.121 154.556 251.448C154.56 251.526 154.589 251.601 154.638 251.662C154.687 251.723 154.754 251.767 154.83 251.788C154.906 251.809 154.986 251.805 155.06 251.777C155.133 251.75 155.196 251.7 155.239 251.634C155.903 250.279 156.784 249.041 157.847 247.97C159.46 246.311 163.506 243.352 162.94 240.485Z" fill="#191919"/>
<path d="M153.407 252.566C149.936 251.117 146.677 249.205 143.718 246.883C143.59 246.813 143.444 246.785 143.299 246.801C143.155 246.818 143.019 246.878 142.91 246.975C138.45 250.561 134.427 254.658 130.923 259.182C129.976 262.425 129.433 265.774 129.308 269.15C129.307 269.248 129.271 269.342 129.207 269.416C129.142 269.49 129.054 269.539 128.957 269.554C128.861 269.569 128.762 269.549 128.678 269.498C128.595 269.448 128.532 269.369 128.501 269.276C127.677 266.574 128.884 262.399 129.898 259.213C129.153 258.467 124.712 254.057 123.284 252.597C116.023 245.327 108.277 236.681 97.4732 236.484C94.5804 236.405 91.7204 237.114 89.2006 238.538C87.1295 239.734 86.0055 242.222 79.9317 242.804C77.1895 243.107 74.4158 242.944 71.7278 242.322C69.5074 241.536 71.1815 240.459 66.3221 240.459C56.6779 240.717 48.6371 249.353 44.0862 258.007C41.9054 262.277 40.044 266.703 38.5173 271.249C39.9125 273.558 44.6246 282.353 44.8938 285.028C44.9232 285.462 44.3652 285.525 44.1471 285.214C43.0133 283.587 43.0742 281.948 39.3328 275.057C36.9158 270.185 33.4345 265.919 29.1463 262.573C28.0812 261.683 27.8395 261.565 26.3206 262.232C25.9531 262.395 17.82 265.753 17.6235 265.833C17.4825 265.876 17.3585 265.962 17.2693 266.079C17.18 266.196 17.13 266.339 17.1264 266.486C17.0458 267.722 20.5592 281.699 29.2091 294.996C31.8481 299.034 35.1041 303.041 39.8614 304.624C45.0372 306.393 48.9102 304.654 52.7498 300.742C56.1075 297.251 59.0376 293.373 61.4784 289.189C60.5646 285.538 58.804 278.317 58.1556 274.591C58.1377 274.499 58.1555 274.404 58.2055 274.324C58.2555 274.245 58.3339 274.187 58.4247 274.164C58.5155 274.14 58.6119 274.152 58.6944 274.196C58.777 274.241 58.8393 274.316 58.8689 274.405C62.0659 284.676 62.0325 292.463 71.2307 307.792C71.3229 307.947 71.4718 308.059 71.6457 308.106C71.8196 308.152 72.0049 308.129 72.1621 308.042C89.0218 299.948 106.709 294.053 124.899 298.6C124.975 298.62 125.055 298.622 125.132 298.607C125.21 298.591 125.283 298.558 125.345 298.51C125.408 298.462 125.459 298.401 125.494 298.33C125.53 298.259 125.548 298.182 125.549 298.103C125.372 295.043 124.603 292.048 123.284 289.282C119.823 281.457 113.325 270.4 113.437 261.485C113.437 261.143 113.997 261.051 114.058 261.393C115.754 271.339 117.607 274.328 123.5 286.741C130.326 287.207 135.046 286.309 139.434 281.058C145.91 272.779 150.805 263.377 153.875 253.324C153.996 253.031 153.749 252.688 153.407 252.566ZM98.1551 279.865C96.516 278.81 94.9955 277.582 93.6199 276.201C92.2783 274.851 91.2036 273.261 90.4523 271.512C90.3285 271.202 90.8571 270.984 91.0123 271.263C92.8948 275.173 97.1785 277.893 98.5579 279.337C98.6182 279.393 98.6553 279.47 98.6622 279.553C98.669 279.635 98.6451 279.717 98.595 279.783C98.5449 279.849 98.4722 279.894 98.3909 279.909C98.3097 279.924 98.2256 279.909 98.1551 279.865Z" fill="#38A1FF"/>
<path d="M228.009 212.967C222.172 198.601 199.066 199.098 194.714 217.683C193.897 220.9 193.786 224.256 194.386 227.521C194.987 230.786 196.286 233.882 198.194 236.598C198.378 236.816 198.752 236.63 198.587 236.351C195.716 231.484 194.506 225.815 195.14 220.2C197.06 205.315 211.503 200.377 220.98 206.192C226.444 209.579 228.211 214.513 228.525 220.758C228.784 224.1 228.282 227.458 227.057 230.578C225.831 233.698 223.915 236.5 221.451 238.773C220.986 239.166 221.669 239.829 222.104 239.424C229.97 232.833 231.06 220.473 228.009 212.967Z" fill="#191919"/>
<path d="M212.634 226.229C211.891 226.331 211.174 226.574 210.522 226.944C210.211 227.099 210.429 227.565 210.74 227.502C213.206 226.83 214.434 227.142 214.866 226.881C214.916 226.852 214.959 226.812 214.991 226.764C215.023 226.715 215.042 226.66 215.048 226.602C215.055 226.545 215.047 226.487 215.026 226.433C215.005 226.379 214.972 226.33 214.929 226.292C214.184 226.064 213.391 226.042 212.634 226.229Z" fill="#191919"/>
<path d="M200.179 226.172C200.116 226.187 200.061 226.226 200.024 226.279C199.987 226.333 199.971 226.398 199.978 226.463C199.986 226.528 200.017 226.587 200.066 226.631C200.114 226.674 200.177 226.698 200.242 226.698C201.683 226.736 203.117 226.902 204.528 227.196C204.627 227.171 204.717 227.115 204.784 227.038C204.85 226.96 204.892 226.863 204.901 226.761C204.901 225.895 201.738 225.686 200.179 226.172Z" fill="#191919"/>
<path d="M207.664 225.918C207.603 225.608 207.138 225.7 207.138 225.981C207.17 227.505 206.639 228.987 205.646 230.143C205.397 230.422 205.025 230.67 205.025 231.074C205.025 231.953 207.232 233.12 207.727 232.503C207.787 232.434 207.82 232.346 207.82 232.254C207.82 232.163 207.787 232.075 207.727 232.006C207.541 231.758 207.075 231.788 206.796 231.695C206.576 231.607 205.957 231.249 205.957 231.106C206.646 230.448 207.162 229.631 207.46 228.726C207.758 227.821 207.828 226.857 207.664 225.918Z" fill="#191919"/>
<path d="M206.702 237.223C207.109 237.389 207.546 237.469 207.985 237.459C208.425 237.448 208.858 237.347 209.256 237.162C209.561 237.033 209.822 236.816 210.004 236.54C210.187 236.263 210.283 235.939 210.282 235.608C210.375 234.949 210.267 234.278 209.972 233.682C209.604 233.222 209.095 233.529 209.144 234.057C209.263 234.395 209.32 234.752 209.311 235.11C209.321 235.39 209.279 235.67 209.186 235.934C208.806 236.238 208.344 236.423 207.859 236.464C207.374 236.506 206.888 236.403 206.462 236.168C205.92 235.953 205.674 236.739 206.702 237.223Z" fill="#191919"/>
<path d="M71.0412 308.378C68.1527 313.265 62.1496 335.339 62.2203 337.882C62.2203 338.253 62.7804 338.44 62.9356 338.069C63.7216 336.497 64.6668 329.248 69.3946 315.178C70.0646 313.019 70.8424 310.894 71.725 308.812C71.9726 308.309 71.3163 307.916 71.0412 308.378Z" fill="#191919"/>
<path d="M125.641 299.309C125.616 299.216 125.554 299.136 125.47 299.088C125.386 299.04 125.287 299.026 125.193 299.05C125.099 299.074 125.019 299.134 124.969 299.217C124.919 299.3 124.904 299.4 124.926 299.494C127.044 308.386 128.538 317.415 129.399 326.515C129.894 333.266 129.837 333.119 130.021 334.217C130.114 334.744 130.827 334.559 130.859 334.094C131.236 329.435 129.118 309.881 125.641 299.309Z" fill="#191919"/>
<path d="M106.976 324.092C105.85 324.387 99.35 330.38 96.6344 337.167C96.5086 337.509 97.0372 337.727 97.2239 337.416C98.8548 334.334 100.846 331.457 103.156 328.845C103.032 330.272 103.001 331.732 102.97 333.168C102.78 334.749 102.811 336.349 103.062 337.921C103.086 338.007 103.138 338.082 103.209 338.135C103.28 338.189 103.366 338.218 103.455 338.218C103.544 338.218 103.63 338.189 103.701 338.135C103.772 338.082 103.823 338.007 103.848 337.921C104.123 336.353 104.207 334.757 104.097 333.168C104.178 331.425 104.15 329.679 104.013 327.939C104.209 327.753 104.253 327.672 104.439 327.485C106.477 325.448 107.008 325.357 107.357 324.689C107.566 324.341 107.318 324.003 106.976 324.092Z" fill="#191919"/>
<path d="M106.168 300.862C106.105 300.488 105.484 300.581 105.484 300.954C105.702 304.687 106.074 308.378 106.292 312.103C106.524 315.579 106.707 322.714 106.913 323.223C106.939 323.302 106.989 323.37 107.056 323.419C107.123 323.467 107.204 323.494 107.286 323.494C107.369 323.494 107.45 323.467 107.517 323.419C107.584 323.37 107.634 323.302 107.66 323.223C107.797 315.741 107.298 308.26 106.168 300.862Z" fill="#191919"/>
<path d="M102.13 319.495C102.104 321.415 102.291 323.332 102.69 325.21C102.708 325.274 102.747 325.33 102.8 325.37C102.854 325.41 102.918 325.432 102.985 325.432C103.052 325.432 103.116 325.41 103.17 325.37C103.223 325.33 103.261 325.274 103.28 325.21C103.414 324.284 103.424 323.344 103.311 322.415C102.808 314.638 102.443 308.774 101.543 302.196C101.511 301.854 100.983 301.854 101.014 302.196C101.248 308.028 101.769 313.876 102.13 319.495Z" fill="#191919"/>
<path d="M231.891 304.587C231.246 303.905 230.515 303.311 229.716 302.819C229.84 301.919 230.258 300.364 230.245 299.806C228.869 299.193 214.491 291.821 213.442 291.266C212.184 290.667 210.981 289.959 209.846 289.15C194.979 296.586 195.645 296.839 192.261 298.189C192.485 299.832 192.806 301.46 193.224 303.064C186.588 307.087 181.334 313.034 178.16 320.115C177.111 322.099 176.388 324.238 176.017 326.452C176.018 326.557 176.054 326.659 176.119 326.742C176.183 326.825 176.273 326.885 176.375 326.913C176.476 326.941 176.584 326.935 176.682 326.897C176.78 326.858 176.863 326.789 176.919 326.699C178.406 323.555 178.233 321.859 181.635 316.326C191.495 300.551 202.253 299.926 220.891 302.225C229.6 303.326 229.7 303.89 233.074 308.034C237.314 313.403 240.871 319.278 243.666 325.522C245.743 330.024 245.975 331.301 246.833 332.667C246.883 332.747 246.96 332.807 247.05 332.835C247.14 332.864 247.238 332.858 247.324 332.821C247.411 332.783 247.481 332.715 247.522 332.63C247.563 332.545 247.571 332.448 247.547 332.356C247.277 329.955 240.634 313.636 231.891 304.587Z" fill="#191919"/>
<path d="M246.705 268.064C246.638 260.542 244.615 253.168 240.836 246.665C239.225 243.875 236.616 241.799 233.536 240.856C231.475 240.26 229.311 240.112 227.188 240.421C225.065 240.729 223.032 241.488 221.227 242.646C220.411 239.965 220.209 237.135 220.637 234.366C221.18 234.332 221.71 234.187 222.195 233.94C222.679 233.694 223.108 233.35 223.455 232.931C223.801 232.511 224.058 232.026 224.209 231.503C224.36 230.981 224.403 230.433 224.333 229.893C224.08 228.125 222.685 226.582 221.072 226.881C221.072 226.237 220.832 226.28 220.203 224.179L220.016 223.621C220.066 223.616 220.114 223.6 220.156 223.574C220.199 223.548 220.235 223.513 220.261 223.471C220.288 223.429 220.305 223.381 220.311 223.332C220.317 223.282 220.312 223.232 220.295 223.185C219.221 220.267 204.968 216.897 199.736 219.77C199.704 219.722 199.66 219.685 199.607 219.663C199.555 219.64 199.497 219.633 199.441 219.643C199.385 219.653 199.333 219.679 199.291 219.718C199.25 219.757 199.221 219.807 199.207 219.862C198.762 222.678 198.524 225.522 198.494 228.373C198.423 234.378 200.142 241.353 206.102 242.255C206.047 243.172 205.9 244.08 205.662 244.967C201.07 242.261 195.096 243.444 190.915 246.449C186.1 249.895 183.151 255.238 180.386 260.329C175.352 269.588 167.551 285.874 174.02 294.153C175.797 296.285 178.253 297.742 180.976 298.279C184.631 298.988 188.407 298.75 191.944 297.588C193.426 296.861 203.976 290.394 225.638 280.577C217.89 276.938 207.095 278.415 198.836 280.608C194.877 281.569 191.057 283.03 187.466 284.955C186.063 286 185.599 285.102 186.212 284.464C187.846 283.353 189.613 282.453 191.473 281.787C191.476 279.357 191.919 276.948 192.78 274.676C193.012 273.869 193.426 273.125 193.99 272.503C194.048 272.451 194.12 272.418 194.197 272.409C194.275 272.4 194.353 272.415 194.421 272.453C194.489 272.49 194.544 272.548 194.578 272.617C194.612 272.687 194.623 272.766 194.611 272.842C194.365 274.434 192.825 275.535 192.406 281.416C197.868 279.527 203.525 278.256 209.27 277.625C215.145 277.036 221.685 277.085 226.599 280.327C227.48 280.151 228.374 280.047 229.272 280.017C229.272 279.82 229.352 278.73 229.364 278.527C229.435 277.37 229.395 271.901 229.395 271.477C229.395 271.103 230.016 270.98 230.079 271.382C230.458 274.255 230.552 277.157 230.358 280.048C231.288 280.099 232.213 280.223 233.123 280.421C233.836 280.577 234.937 280.695 235.328 281.353C235.355 281.403 235.371 281.459 235.375 281.516C235.379 281.573 235.37 281.63 235.35 281.683C235.329 281.736 235.297 281.785 235.256 281.824C235.215 281.864 235.166 281.894 235.112 281.913C234.551 282.1 234.043 281.744 232.936 281.538C230.746 281.104 228.497 281.052 226.289 281.384C222.486 283.116 218.47 284.904 210.569 288.806C211.944 289.264 217.138 291.938 217.619 292.192C233.251 300.237 234.033 301.296 238.426 298.745C241.224 296.925 243.367 294.259 244.545 291.137C246.941 285.348 247 274.299 246.705 268.064ZM210.398 259.025C208.973 254.377 207.807 249.653 206.904 244.877C207.121 244.062 207.2 243.216 207.138 242.375C209.921 242.403 212.606 241.346 214.622 239.428C215.739 238.569 216.642 237.463 217.261 236.197C217.417 235.792 216.868 235.608 216.609 235.824C215.18 237.644 213.434 239.191 211.455 240.391C210.502 240.903 209.457 241.222 208.38 241.328C207.303 241.434 206.215 241.326 205.181 241.009C204.099 240.586 203.129 239.921 202.343 239.065C201.557 238.21 200.976 237.187 200.645 236.073C198.527 230.473 200.021 223.042 199.901 220.45C201.193 220.082 202.511 219.812 203.844 219.642C208.037 219.349 212.242 220.008 216.143 221.57C217.394 221.965 218.541 222.637 219.498 223.535C219.492 223.835 219.502 224.136 219.529 224.435C219.67 225.251 219.921 226.044 220.274 226.793C220.353 226.917 220.459 227.022 220.584 227.101C220.305 227.231 220.076 227.45 219.934 227.724C219.901 227.79 219.892 227.865 219.909 227.937C219.925 228.009 219.967 228.073 220.026 228.117C220.085 228.161 220.158 228.183 220.231 228.179C220.305 228.176 220.375 228.146 220.429 228.096C221.301 227.194 223.3 228.347 223.377 230.454C223.382 230.863 223.303 231.268 223.143 231.645C222.984 232.022 222.747 232.361 222.449 232.642C222.151 232.922 221.798 233.137 221.413 233.274C221.027 233.41 220.617 233.465 220.209 233.434C220.097 233.432 219.986 233.467 219.896 233.534C219.806 233.602 219.741 233.697 219.712 233.806C219.277 236.144 219.277 238.542 219.712 240.88C219.79 241.355 220.003 242.888 220.508 243.297C219.961 244.269 210.529 258.828 210.398 259.025Z" fill="#191919"/>
<path d="M319.008 227.689C318.44 228.048 318.453 229.007 317.487 229.273C316.68 229.344 315.877 229.099 315.248 228.589C315.195 228.538 315.124 228.507 315.05 228.503C314.976 228.499 314.902 228.521 314.843 228.566C314.783 228.611 314.742 228.675 314.726 228.748C314.709 228.82 314.719 228.896 314.753 228.962C315.071 229.418 315.509 229.777 316.02 229.996C316.531 230.216 317.092 230.288 317.642 230.204C318.013 230.113 318.361 229.943 318.661 229.706C318.961 229.468 319.207 229.169 319.381 228.828C319.564 228.599 319.662 228.314 319.66 228.021C319.653 227.948 319.628 227.878 319.587 227.817C319.546 227.757 319.491 227.708 319.425 227.675C319.36 227.641 319.288 227.625 319.215 227.628C319.142 227.63 319.07 227.651 319.008 227.689Z" fill="#191919"/>
<path d="M324.132 275.332C323.902 275.155 323.632 275.037 323.346 274.99C321.381 274.334 320.5 271.282 319.058 269.647C317.744 268.407 316.259 267.362 314.649 266.543C314.243 266.201 313.915 265.777 313.686 265.299C313.438 264.804 312.817 265.175 312.878 265.641C313.214 267.765 316.447 268.077 318.5 270.486C319.897 272.153 320.308 274.312 322.383 275.58C322.849 275.829 323.593 276.201 324.091 275.89C324.13 275.856 324.163 275.815 324.186 275.769C324.21 275.722 324.224 275.672 324.228 275.62C324.232 275.568 324.225 275.516 324.209 275.466C324.192 275.417 324.166 275.371 324.132 275.332Z" fill="#191919"/>
<path d="M306.831 270.889C308.323 271.726 309.937 272.323 311.614 272.658C312.298 272.784 313.447 273.124 314.068 272.658C314.109 272.632 314.143 272.598 314.168 272.558C314.194 272.518 314.21 272.472 314.216 272.425C314.222 272.378 314.218 272.33 314.203 272.284C314.188 272.239 314.164 272.198 314.131 272.163C313.491 271.522 312.999 272 309.596 270.95C308.112 270.366 306.661 269.703 305.247 268.964C305.183 268.947 305.116 268.95 305.053 268.972C304.99 268.994 304.936 269.034 304.896 269.087C304.856 269.14 304.833 269.203 304.829 269.27C304.825 269.336 304.841 269.402 304.874 269.459C305.415 270.072 306.083 270.56 306.831 270.889Z" fill="#191919"/>
<path d="M311.584 276.476C312.401 276.576 312.487 276.582 313.012 276.32C313.23 276.226 313.167 275.947 313.012 275.821C312.172 275.409 311.27 275.137 310.342 275.016C307.652 274.129 305.292 272.451 303.572 270.201C303.291 269.86 302.786 270.294 302.983 270.667C303.922 272.191 305.174 273.497 306.657 274.498C308.14 275.5 309.82 276.174 311.584 276.476Z" fill="#191919"/>
<path d="M306.366 277.443C307.057 277.836 309.781 279.211 310.528 278.934C310.578 278.915 310.623 278.886 310.662 278.848C310.7 278.811 310.73 278.766 310.751 278.717C310.771 278.667 310.781 278.614 310.78 278.561C310.78 278.507 310.768 278.454 310.746 278.405C310.201 277.5 307.209 277.731 303.601 274.12C303.547 274.069 303.477 274.038 303.402 274.034C303.328 274.03 303.255 274.052 303.195 274.097C303.136 274.142 303.094 274.206 303.078 274.279C303.062 274.351 303.072 274.427 303.106 274.493C303.92 275.741 305.043 276.757 306.366 277.443Z" fill="#191919"/>
<path d="M314.691 283.438C310.041 282.007 307.395 281.42 304.162 278.189C304.11 278.139 304.041 278.11 303.968 278.107C303.896 278.103 303.824 278.127 303.767 278.172C303.711 278.217 303.672 278.281 303.659 278.353C303.646 278.424 303.659 278.498 303.696 278.561C306.554 283.493 314.541 283.766 319.35 286.387C319.978 286.818 320.656 287.173 321.368 287.444C321.432 287.46 321.5 287.457 321.562 287.434C321.624 287.412 321.679 287.372 321.719 287.319C321.758 287.266 321.782 287.203 321.786 287.137C321.79 287.07 321.774 287.005 321.741 286.947C320.884 285.375 316.408 283.968 314.691 283.438Z" fill="#191919"/>
<path d="M335.841 244.181C332.124 244.307 328.419 244.68 324.752 245.299C315.636 246.767 306.723 249.299 298.197 252.845C298.033 252.887 297.882 252.969 297.759 253.085C297.635 253.201 297.542 253.346 297.49 253.508C297.437 253.669 297.426 253.84 297.458 254.007C297.49 254.173 297.563 254.329 297.671 254.46C302.296 262.267 303.09 264.114 305.682 268.25C305.9 268.624 306.429 268.311 306.271 267.908C304.442 263.957 299.372 255.358 298.942 254.678C298.4 253.731 298.353 253.892 298.692 253.715C309.625 249.213 321.174 246.386 332.95 245.329C333.787 245.268 334.595 245.205 335.403 245.081C335.724 245.997 336.13 246.881 336.615 247.722C346.002 267.12 346.91 272.968 348.23 275.145C348.385 275.425 348.945 275.332 348.882 274.959C348.574 271.563 336.937 244.303 335.841 244.181Z" fill="#191919"/>
<path d="M332.643 292.475C330.176 292.278 319.497 294.422 317.082 294.929C312.822 285.389 312.737 285.171 312.169 284.462C311.983 284.214 311.609 284.493 311.672 284.743C311.924 285.998 316.331 295.477 316.423 295.674C316.665 296.153 316.649 295.815 324.84 294.369C327.505 294.1 330.15 293.665 332.76 293.064C333.077 292.982 332.984 292.502 332.643 292.475Z" fill="#191919"/>
<path d="M359.103 239.025C355.676 232.888 351.129 231.57 344.289 232.409C340.884 232.718 337.588 233.774 334.637 235.5C333.265 232.382 332.473 229.041 332.3 225.639C332.959 225.595 333.587 225.348 334.099 224.932C334.611 224.515 334.98 223.95 335.158 223.315C343.499 218.685 343.927 208.819 339.874 200.324C333.051 186.151 312.377 188.477 306.052 200.356C304.632 202.716 304.131 205.517 304.642 208.223C305.153 210.93 306.642 213.354 308.825 215.034C304.042 216.651 304.317 222.466 308.724 223.277C308.648 228.41 309.357 233.273 314.097 235.174C315.299 235.666 316.586 235.918 317.885 235.916C317.932 236.972 317.842 238.028 317.616 239.06C314.592 238.344 311.487 238.028 308.381 238.121C299.055 238.318 295.018 246.354 291.609 254.953C290.219 258.202 289.166 261.584 288.465 265.047C288.465 265.419 289.025 265.607 289.181 265.234C289.725 263.842 290.191 262.422 290.578 260.978C291.946 256.778 293.607 252.679 295.547 248.71C297.999 244.02 301.851 239.705 307.41 239.269C310.765 239.106 314.127 239.293 317.443 239.829C317.423 239.896 317.418 239.968 317.428 240.038C317.439 240.108 317.465 240.175 317.504 240.233C319.212 242.218 322.194 242.218 324.617 242.063C327.444 242.037 330.2 241.173 332.536 239.581C336.838 236.353 332.711 236.86 338.691 234.828C343.098 233.326 349.278 232.334 353.314 234.454C356.543 236.199 358.311 239.644 359.773 242.996C362.17 248.668 363.809 254.631 364.65 260.73C365.517 266.753 366.124 278.341 364.65 284.242C362.762 291.925 357.032 295.676 349.431 295.607C345.323 295.312 341.282 294.401 337.445 292.905C333.122 291.54 322.511 288.189 321.511 287.843C323.046 284.021 324.161 280.043 324.835 275.979C324.896 275.702 324.896 275.421 325.207 275.295C325.509 275.208 325.823 275.167 326.138 275.173C332.439 274.523 338.798 274.701 345.053 275.702C347.746 276.125 350.411 276.705 353.035 277.439C353.408 277.533 353.811 277.533 354.214 277.594C354.308 277.592 354.399 277.559 354.473 277.501C354.547 277.443 354.6 277.362 354.625 277.272C354.649 277.181 354.644 277.084 354.609 276.997C354.574 276.91 354.512 276.836 354.432 276.786C353.157 276.15 354.391 276.521 350.27 275.482C342.436 273.666 334.357 273.152 326.356 273.961C322.874 274.334 324.523 274.428 322.033 283.029C320.514 288.303 320.446 288.563 321.039 288.743C325.543 290.174 338.96 294.458 341.165 295.143C347.256 296.983 353.825 297.623 359.364 293.931C361.27 309.582 361.441 308.562 361.072 308.745C360.814 308.844 360.541 308.897 360.264 308.9C350.675 310.439 340.967 311.115 331.257 310.918C320.695 310.918 310.294 310.828 300.169 308.592C300.35 299.229 301.086 289.884 302.374 280.608C302.405 280.205 301.784 280.141 301.69 280.514C301.297 282.316 300.976 284.147 300.695 285.981C299.959 285.981 297.648 289.461 292.342 290.732C290.783 291.13 289.159 291.208 287.569 290.962C285.978 290.717 284.454 290.153 283.087 289.303C275.62 284.532 273.51 268.628 271.44 260.546C274.504 260.634 277.728 258.873 280.664 257.624C280.914 257.502 281.159 257.402 281.409 257.282C282.205 256.906 282.016 257.062 283.211 258.657C289.988 268.133 290.505 275.336 291.69 277.541C291.821 277.785 292.128 277.633 292.155 277.417C291.981 275.068 291.436 272.761 290.54 270.583C288.97 266.199 286.807 262.051 284.111 258.254C282.042 255.429 282.694 255.639 278.609 257.447C271.951 260.514 270.552 259.4 270.719 260.212C270.68 260.245 270.651 260.288 270.635 260.337C270.618 260.386 270.616 260.438 270.627 260.489C271.61 267.944 273.519 275.248 276.31 282.231C277.492 285.236 279.441 287.878 281.963 289.895C287.532 293.947 295.915 292.276 300.534 287.319C299.62 294.51 299.133 301.748 299.076 308.997C299.084 309.114 299.127 309.227 299.199 309.321C299.27 309.414 299.368 309.485 299.479 309.523C309.589 311.443 319.878 312.266 330.164 311.978C340.491 312.25 350.819 311.522 361.005 309.804C361.27 309.795 361.527 309.712 361.747 309.564C361.967 309.415 362.14 309.208 362.247 308.965C362.345 308.291 362.303 307.604 362.123 306.947C361.937 305.456 361.75 303.964 361.534 302.504C360.321 292.935 360.424 293.465 360.135 293.312C365.533 289.164 366.482 282.632 366.596 275.794C366.798 264.006 364.9 249.119 359.103 239.025ZM306.425 219.349C306.547 218.568 306.904 217.842 307.449 217.267C307.993 216.693 308.699 216.298 309.473 216.135C309.903 216.141 310.328 216.237 310.719 216.415C311.11 216.594 311.46 216.853 311.746 217.174C312.032 217.495 312.249 217.873 312.381 218.282C312.514 218.691 312.56 219.124 312.517 219.552C312.414 220.212 312.112 220.824 311.651 221.307C311.191 221.79 310.593 222.12 309.939 222.254C309.512 222.33 309.073 222.313 308.654 222.203C308.234 222.092 307.843 221.892 307.509 221.616C307.175 221.339 306.904 220.993 306.717 220.602C306.53 220.211 306.431 219.783 306.425 219.349ZM326.989 240.64C324.167 241.317 321.202 241.059 318.54 239.905C318.962 238.604 318.995 237.208 318.636 235.889C322.789 235.332 326.558 233.168 329.133 229.862C329.422 229.497 328.848 228.862 328.388 229.273C326.539 231.158 324.413 232.748 322.082 233.989C317.541 236.062 311.864 234.957 310.292 229.827C309.728 227.743 309.486 225.586 309.577 223.429C310.477 223.352 311.332 223 312.026 222.422C312.721 221.844 313.221 221.068 313.46 220.196C313.517 219.93 313.558 219.661 313.584 219.391L314.329 219.206C313.967 220.485 313.667 221.78 313.429 223.087C313.242 224.069 312.776 225.641 314.173 225.913C315.387 226.126 316.637 225.883 317.683 225.231C317.787 225.161 317.86 225.054 317.887 224.933C317.915 224.811 317.895 224.683 317.831 224.575C317.768 224.468 317.666 224.389 317.545 224.354C317.425 224.32 317.297 224.332 317.186 224.39C316.745 224.626 316.275 224.804 315.789 224.92C315.31 225.043 314.808 225.043 314.329 224.92C314.063 224.773 314.12 224.425 314.67 221.937C314.888 221.006 315.136 220.074 315.415 219.141C315.877 219.179 316.329 219.294 316.751 219.483C316.725 220.049 316.818 220.614 317.022 221.142C317.227 221.67 317.54 222.149 317.94 222.55C318.341 222.95 318.821 223.263 319.349 223.467C319.877 223.672 320.442 223.764 321.008 223.737C321.922 223.674 322.795 223.33 323.506 222.752C324.218 222.174 324.734 221.391 324.983 220.509C325.117 219.923 325.127 219.316 325.014 218.726C324.9 218.136 324.665 217.577 324.323 217.083C323.981 216.589 323.539 216.172 323.027 215.858C322.515 215.544 321.943 215.341 321.348 215.26C320.391 215.298 319.467 215.619 318.693 216.183C317.919 216.747 317.33 217.528 317.001 218.428C316.604 218.262 316.185 218.158 315.757 218.117C316.036 217.217 316.286 216.349 316.543 215.445C316.635 215.105 316.101 214.855 315.92 215.197C315.445 216.14 315.041 217.116 314.71 218.117C314.322 218.154 313.943 218.259 313.592 218.428C313.452 217.612 313.082 216.854 312.525 216.243C311.968 215.632 311.247 215.193 310.448 214.979C310.581 214.15 310.841 212.792 310.915 212.501C312.629 210.884 319.518 211.55 321.752 211.843C324.09 212.177 326.396 212.706 328.646 213.427C329.282 213.623 329.414 213.623 329.516 214.327C329.748 216.056 330.252 217.737 331.009 219.308C330.565 219.744 330.962 220.22 331.318 220.012C332.747 219.141 334.114 220.509 334.299 221.937C334.357 222.278 334.337 222.628 334.239 222.96C334.142 223.292 333.969 223.597 333.735 223.852C333.501 224.107 333.212 224.305 332.89 224.431C332.568 224.557 332.221 224.607 331.876 224.578C331.796 224.558 331.711 224.556 331.63 224.572C331.549 224.589 331.472 224.624 331.407 224.675C331.341 224.726 331.287 224.791 331.251 224.865C331.214 224.94 331.195 225.022 331.194 225.105C331.267 228.052 332.332 234.024 334.039 236.325C333.243 237.509 332.201 238.507 330.985 239.251C329.768 239.996 328.405 240.47 326.989 240.64ZM318.105 218.805C318.392 217.974 320.369 215.814 322.114 216.695C322.723 216.966 323.229 217.426 323.556 218.006C323.884 218.587 324.015 219.258 323.931 219.92C323.848 220.581 323.553 221.198 323.091 221.679C322.629 222.16 322.025 222.479 321.367 222.59C320.869 222.691 320.352 222.657 319.871 222.492C319.389 222.327 318.961 222.038 318.629 221.652C318.296 221.267 318.073 220.8 317.981 220.3C317.889 219.799 317.932 219.283 318.105 218.805Z" fill="#191919"/>
<path d="M302.639 310.24C300.977 313.07 295.907 333.589 295.528 337.819C295.465 338.379 296.335 338.472 296.491 337.943C296.948 336.316 297.473 332.818 298.849 327.136C300.847 318.857 301.947 315.825 302.608 313.408C302.946 312.425 303.209 311.418 303.394 310.396C303.447 310.022 302.824 309.928 302.639 310.24Z" fill="#191919"/>
<path d="M328.386 332.291V332.136C328.388 332.055 328.361 331.976 328.31 331.913C328.259 331.851 328.187 331.808 328.107 331.794C327.804 331.275 327.483 330.767 327.144 330.271C327.098 330.199 327.025 330.148 326.941 330.129C326.858 330.11 326.77 330.124 326.697 330.169C326.624 330.213 326.571 330.285 326.55 330.368C326.529 330.451 326.541 330.539 326.584 330.613C326.865 331.203 327.144 331.792 327.423 332.354C326.018 335.519 324.936 338.817 324.193 342.199C324.18 342.246 324.178 342.295 324.184 342.343C324.191 342.391 324.207 342.437 324.231 342.479C324.256 342.521 324.288 342.558 324.327 342.587C324.366 342.616 324.41 342.638 324.457 342.65C324.504 342.662 324.553 342.665 324.601 342.659C324.649 342.652 324.695 342.636 324.737 342.611C324.779 342.587 324.816 342.554 324.845 342.515C324.874 342.477 324.896 342.433 324.908 342.386C325.574 340.55 326.771 336.098 327.983 333.471C329.861 337.308 331.438 341.285 332.699 345.367C332.917 345.895 333.601 345.49 333.538 345.025C332.269 340.612 330.542 336.345 328.386 332.291Z" fill="#191919"/>
<path d="M357.52 317.228C357.006 314.967 356.331 312.746 355.5 310.582C355.376 310.272 354.818 310.427 354.879 310.738C355.23 313.55 355.535 313.516 360.774 334.496C361.221 336.768 361.812 339.008 362.542 341.205C362.697 341.608 363.381 341.608 363.35 341.113C363.092 338.637 358.144 319.633 357.52 317.228Z" fill="#191919"/>
<path d="M130.766 129.018C129.436 120.386 124.313 111.595 116.107 108.924C107.899 106.799 99.187 107.926 91.7887 112.068C80.9497 118.124 77.4304 128.78 80.0183 140.58C83.5376 156.418 96.7464 166.831 97.0372 177.569C94.632 178.371 93.2113 182.482 95.6401 184.25C95.224 184.554 94.8845 184.95 94.6484 185.408C94.4123 185.866 94.2862 186.372 94.2801 186.887C94.274 187.402 94.3881 187.912 94.6132 188.375C94.8384 188.838 95.1684 189.243 95.5772 189.556C95.096 190.046 94.7969 190.686 94.7293 191.369C94.6618 192.052 94.8299 192.738 95.2058 193.313C95.875 194.139 96.7109 194.816 97.6589 195.297C98.6069 195.779 99.6457 196.056 100.708 196.109C103.09 196.656 105.538 196.865 107.978 196.73C114.266 196.245 115.679 192.604 113.909 190.611C114.395 190.344 114.81 189.964 115.119 189.503C115.428 189.042 115.621 188.514 115.682 187.962C115.743 187.411 115.67 186.853 115.47 186.335C115.27 185.818 114.948 185.356 114.532 184.989C115.495 183.953 116.025 182.588 116.013 181.173C116.085 180.812 116.085 180.441 116.013 180.08C115.942 179.719 115.799 179.376 115.594 179.07C115.389 178.764 115.126 178.502 114.82 178.298C114.513 178.094 114.17 177.953 113.808 177.882C114.868 167.762 123.24 161.535 128.375 147.88C130.75 141.895 131.573 135.407 130.766 129.018ZM105.206 132.217C104.347 131.358 103.948 129.859 104.956 129.111C105.703 128.584 106.385 129.36 106.448 130.073C106.437 130.506 106.318 130.93 106.101 131.304C105.884 131.679 105.576 131.993 105.206 132.217ZM104.709 134.049C104.832 133.986 104.927 133.925 105.05 133.864C106.794 135.256 108.917 136.09 111.142 136.255C110.49 138.15 109.992 140.136 109.527 142.062C106.628 153.738 105.322 165.753 105.644 177.78L101.792 177.593C103.121 165.255 102.555 144.722 99.1535 135.198C101.074 135.313 102.991 134.916 104.709 134.049ZM128.157 144.143C123.457 160.083 113.356 166.347 112.472 178.12C112.443 178.151 112.38 178.214 112.38 178.245C110.572 178.053 108.76 177.907 106.945 177.809C106.705 168.641 107.413 159.472 109.057 150.448C109.905 145.626 111.067 140.864 112.535 136.192C113.524 136.18 114.493 135.917 115.352 135.428C116.211 134.939 116.932 134.24 117.448 133.396C119.008 130.056 114.583 127.108 111.641 134.951C109.666 134.906 107.754 134.243 106.174 133.056C109.572 130.071 106.807 126.778 104.559 127.869C103.046 128.604 102.378 130.743 104.125 132.901C102.468 133.747 100.598 134.082 98.7507 133.864C98.2174 132.252 97.3374 130.776 96.1726 129.541C93.8539 127.621 91.1147 129.879 92.2603 131.807C93.66 133.532 95.6537 134.673 97.8507 135.006C98.9204 138.322 99.6692 141.734 100.087 145.194C102.274 159.89 100.863 174.443 100.863 177.461C99.1083 177.383 98.3282 177.334 98.0059 177.369C98.0059 167.44 87.9648 159.232 82.8184 145.536C78.5505 134.153 79.6155 122.52 89.1536 115.224C97.1413 109.079 111.496 106.539 119.652 111.993C124.142 115.36 127.325 120.179 128.66 125.629C130.27 131.721 130.096 138.147 128.157 144.143ZM113.064 134.856C113.399 134.086 113.804 133.348 114.274 132.651C116.41 129.568 117.222 132.284 115.65 133.677C114.914 134.303 114.018 134.711 113.064 134.856ZM97.2848 133.583C96.1813 133.279 95.1479 132.763 94.2429 132.062C93.839 131.809 93.5073 131.455 93.2801 131.036C93.0404 130.262 94.6104 129.213 95.982 131.223C96.4881 131.968 96.9242 132.758 97.2848 133.583Z" fill="#191919"/>
<path d="M45.884 66.8397C46.0903 66.8613 68.5994 67.1698 71.1342 67.1502C73.3959 67.2973 75.6669 67.1932 77.9056 66.8397C78.279 66.7159 78.3399 66.095 77.9056 66.0321C76.9172 65.9028 75.9176 65.8824 74.9247 65.9712C68.7841 66.1559 49.1714 65.5015 45.7602 65.9397C45.1943 65.9712 45.3908 66.7886 45.884 66.8397Z" fill="#191919"/>
<path d="M45.884 76.1892C45.9999 76.1892 67.9509 76.5232 71.1342 76.4996C73.3959 76.6468 75.6669 76.5427 77.9056 76.1892C78.279 76.0654 78.3399 75.4425 77.9056 75.3815C76.9173 75.2517 75.9177 75.2306 74.9247 75.3187C68.7841 75.5053 49.1714 74.851 45.7602 75.2872C45.1943 75.3501 45.3908 76.1518 45.884 76.1892Z" fill="#191919"/>
<path d="M163.843 70.5673C163.951 70.5673 185.904 70.9014 189.093 70.8778C191.354 71.025 193.625 70.9208 195.863 70.5673C196.236 70.4435 196.297 69.8226 195.863 69.7597C194.874 69.6308 193.875 69.6097 192.882 69.6968C186.741 69.8835 167.129 69.2291 163.717 69.6673C163.159 69.7282 163.377 70.5319 163.843 70.5673Z" fill="#191919"/>
<path d="M163.843 79.9463C164.039 79.9679 186.295 80.2784 189.093 80.2568C191.354 80.404 193.624 80.2999 195.862 79.9463C196.236 79.8225 196.297 79.2016 195.862 79.1387C194.874 79.0095 193.874 78.989 192.881 79.0778C186.741 79.2625 167.128 78.6082 163.717 79.0464C163.159 79.0778 163.375 79.8952 163.843 79.9463Z" fill="#191919"/>
<path d="M83.7084 107.03C81.0201 100.595 77.7671 94.4102 73.9875 88.549C75.1371 88.8595 78.7035 89.7614 79.3304 89.9481C79.9348 90.2156 80.5981 90.3226 81.2561 90.2586C81.3501 90.2324 81.4356 90.182 81.5041 90.1126C81.5727 90.0432 81.6219 89.957 81.6469 89.8627C81.6719 89.7684 81.6719 89.6692 81.6467 89.5749C81.6216 89.4806 81.5723 89.3945 81.5037 89.3252C80.8959 88.9383 80.2035 88.7044 79.4856 88.6433C78.7703 88.4567 75.9761 87.7728 75.2923 87.6176C73.6044 87.2246 72.6415 86.5624 72.0933 88.2071C71.3501 90.2736 70.759 92.3916 70.3248 94.5442C70.2987 94.6391 70.3114 94.7404 70.36 94.8259C70.4087 94.9114 70.4893 94.9741 70.5842 95.0001C70.679 95.0262 70.7803 95.0135 70.8658 94.9648C70.9513 94.9162 71.014 94.8356 71.04 94.7407C71.8277 93.0049 72.4717 91.2075 72.9657 89.3665C76.6235 95.1691 79.9516 101.173 82.9342 107.35C83.1543 107.775 83.8931 107.466 83.7084 107.03Z" fill="#38A1FF"/>
<path d="M150.952 93.7975C150.789 92.8976 149.958 92.9742 147.474 92.65C146.041 92.4345 144.598 92.2993 143.151 92.2452C143.064 92.2482 142.982 92.2819 142.918 92.3403C142.854 92.3986 142.812 92.4777 142.801 92.5636C142.79 92.6495 142.81 92.7366 142.857 92.8092C142.904 92.8819 142.976 92.9355 143.058 92.9604C144.908 93.4685 146.799 93.8111 148.71 93.9842C143.622 98.5522 138.26 102.805 132.654 106.719C132.22 107.03 132.591 107.743 133.088 107.464C136.206 105.591 139.205 103.527 142.068 101.284C146.466 97.9437 149.535 94.9962 149.732 94.8547C149.608 96.0651 149.266 99.7927 149.203 100.445C149.043 101.078 149.054 101.743 149.234 102.371C149.285 102.452 149.356 102.52 149.441 102.566C149.525 102.613 149.62 102.638 149.716 102.638C149.812 102.638 149.907 102.613 149.991 102.566C150.075 102.52 150.146 102.452 150.197 102.371C150.374 102.059 150.46 101.703 150.445 101.345C150.632 99.2327 151.087 94.3615 150.952 93.7975Z" fill="#38A1FF"/>
<path d="M160.116 148.181C158.679 146.526 157.113 144.989 155.431 143.585C155.36 143.523 155.268 143.491 155.174 143.494C155.079 143.497 154.99 143.536 154.923 143.603C154.856 143.67 154.817 143.759 154.814 143.854C154.811 143.948 154.843 144.04 154.905 144.111C156.023 145.643 157.281 147.068 158.662 148.368C157.504 148.564 150.7 148.678 148.817 148.647C145.233 148.61 141.65 148.496 138.071 148.305C137.605 148.273 137.481 149.081 137.947 149.144C144.875 149.931 151.859 150.098 158.817 149.641C153.739 154.905 153.881 154.685 153.787 155.143C153.761 155.237 153.76 155.337 153.785 155.432C153.81 155.527 153.86 155.613 153.929 155.683C153.998 155.752 154.085 155.802 154.179 155.827C154.274 155.853 154.374 155.852 154.469 155.827C155.166 155.63 155.227 155.216 159.035 151.168C159.534 150.698 159.994 150.19 160.411 149.647C160.861 149.112 160.521 148.613 160.116 148.181Z" fill="#38A1FF"/>
<path d="M235.555 113.241C231.175 109.844 225.952 107.705 220.447 107.053C214.942 106.402 209.364 107.264 204.312 109.545C204.201 109.494 204.078 109.474 203.956 109.486C203.834 109.499 203.718 109.544 203.62 109.617C203.521 109.69 203.444 109.788 203.397 109.901C203.349 110.014 203.333 110.137 203.349 110.258C205.524 122.79 208.512 135.167 212.294 147.31C212.331 147.426 212.4 147.529 212.493 147.607C212.586 147.685 212.699 147.735 212.819 147.751C212.94 147.767 213.062 147.749 213.173 147.698C213.283 147.648 213.377 147.567 213.443 147.466C236.913 112.072 236.047 113.733 235.555 113.241Z" fill="#38A1FF"/>
<path d="M370.781 84.9787C370.545 84.2089 370.122 83.5096 369.55 82.9432C368.978 82.3769 368.274 81.9613 367.502 81.7335C366.729 81.5058 365.913 81.473 365.125 81.6381C364.337 81.8032 363.602 82.1611 362.986 82.6797C362.679 80.9269 363.31 70.2727 362.683 66.9597C362.506 66.0322 362.41 66.0263 361.339 66.04C360.174 66.0577 346.393 66.1226 346.338 66.1344C345.916 66.2051 345.607 66.942 346.307 67.5099C346.708 67.9871 346.998 68.5475 347.156 69.1505C347.313 69.7536 347.335 70.3841 347.219 70.9966C347.103 71.609 346.852 72.1879 346.485 72.6915C346.117 73.195 345.642 73.6105 345.095 73.9079C344.518 74.2086 343.883 74.3784 343.234 74.4053C342.584 74.4322 341.937 74.3154 341.338 74.0634C340.739 73.8113 340.203 73.4302 339.768 72.9471C339.333 72.4641 339.01 71.8911 338.822 71.2689C338.325 69.5004 339.63 68.1937 340.343 66.7022C340.374 66.6396 340.388 66.57 340.385 66.5002C340.381 66.4304 340.36 66.3627 340.322 66.3036C340.285 66.2444 340.233 66.1958 340.172 66.1624C340.111 66.129 340.042 66.1119 339.972 66.1128L284.005 65.989C283.931 65.9887 283.859 66.0029 283.791 66.0309C283.723 66.0589 283.661 66.1 283.609 66.1518C283.558 66.2037 283.517 66.2653 283.489 66.3331C283.461 66.401 283.446 66.4737 283.447 66.547C283.508 68.9384 283.663 80.3374 283.694 83.6288C283.058 83.157 282.319 82.843 281.537 82.7126C280.756 82.5822 279.955 82.6391 279.2 82.8787C278.445 83.1183 277.757 83.5338 277.194 84.0908C276.631 84.6479 276.208 85.3307 275.96 86.083C275.513 87.2789 275.459 88.586 275.806 89.8147C276.152 91.0433 276.882 92.1295 277.888 92.9153C278.754 93.5295 279.79 93.8594 280.853 93.8594C281.915 93.8594 282.951 93.5295 283.818 92.9153C283.818 93.6601 283.973 108.506 283.973 108.506C283.975 108.626 284.015 108.742 284.088 108.837C284.161 108.932 284.263 109.001 284.378 109.034C285.038 109.188 301.782 109.16 301.584 109.158C300.754 109.97 300.154 110.987 299.845 112.106C299.644 113.03 299.709 113.992 300.031 114.881C300.354 115.771 300.921 116.551 301.668 117.132C302.414 117.712 303.309 118.071 304.251 118.165C305.192 118.259 306.14 118.086 306.987 117.665C307.767 117.331 308.462 116.828 309.022 116.191C309.582 115.555 309.993 114.802 310.225 113.986C310.457 113.171 310.505 112.314 310.364 111.478C310.223 110.642 309.897 109.848 309.41 109.154C341.787 109.154 339.695 109.351 340.158 109.062C340.498 108.814 340.064 108.472 339.909 108.254C339.383 107.613 339.041 106.84 338.92 106.019C338.799 105.198 338.904 104.36 339.223 103.594C339.542 102.828 340.064 102.164 340.732 101.672C341.4 101.18 342.189 100.879 343.016 100.801C343.684 100.796 344.346 100.934 344.957 101.208C345.567 101.481 346.111 101.882 346.553 102.385C347.084 102.983 347.4 103.742 347.451 104.541C347.502 105.34 347.285 106.133 346.834 106.794C346.336 107.739 345.197 109.197 346.213 109.309C346.213 109.309 361.907 109.199 362.392 109.186C363.45 109.404 363.45 108.999 363.45 108.814C363.45 103.098 363.231 97.4172 363.169 91.701C367.085 93.7308 372.017 89.2742 370.781 84.9787ZM367.769 90.2272C364.699 92.5145 362.239 88.8517 361.929 90.5691C361.992 96.3757 362.023 102.153 362.208 107.961C357.177 108.054 352.176 108.054 347.146 108.054C350.748 103.986 345.771 98.0538 341.055 100.072C340.329 100.39 339.678 100.858 339.146 101.446C338.613 102.033 338.211 102.726 337.964 103.479C337.718 104.232 337.633 105.029 337.716 105.818C337.799 106.606 338.047 107.368 338.445 108.054C333.756 108.022 329.066 108.054 324.376 107.961C324.252 102.774 324.159 97.5881 324.097 92.4379C323.334 93.1425 322.369 93.5904 321.339 93.7187C320.308 93.847 319.263 93.6492 318.351 93.1531C317.406 92.6272 316.61 91.8691 316.04 90.9504C315.469 90.0318 315.142 88.9829 315.089 87.9026C315.04 87.1008 315.172 86.2982 315.476 85.5547C315.78 84.8112 316.249 84.1459 316.846 83.6085C317.443 83.0711 318.153 82.6754 318.925 82.451C319.696 82.2265 320.508 82.1791 321.3 82.3122C321.826 82.3483 322.338 82.4942 322.804 82.7407C323.27 82.9871 323.679 83.3284 324.004 83.7427C323.941 78.2132 323.878 72.6857 323.786 67.1562C328.787 67.2505 333.786 67.2505 338.818 67.2505C335.34 71.318 340.339 77.1266 344.998 75.138C347.887 73.959 349.563 69.858 347.484 67.278C352.2 67.2466 356.926 67.3075 361.614 67.1837C362.082 68.9895 360.87 86.1282 362.671 84.6073C366.865 79.0464 373.017 86.311 367.769 90.2272Z" fill="#38A1FF"/>
<path d="M234.437 119.918C234.335 120.115 215.18 148.938 215.304 148.739C215.006 149.196 214.585 149.56 214.088 149.786C213.592 150.013 213.041 150.093 212.5 150.019C211.96 149.944 211.452 149.717 211.035 149.364C210.619 149.011 210.312 148.547 210.15 148.026C206.749 137.159 203.98 126.104 201.857 114.918C192.735 119.25 185.652 126.956 182.103 136.411C174.116 158.949 190.37 180.556 214.964 177.872C229.975 176.263 242.594 166.037 245.15 151.07C246.229 145.394 245.807 139.535 243.929 134.072C242.05 128.609 238.778 123.73 234.437 119.918Z" fill="#38A1FF"/>
<path d="M82.4528 221.493C81.0655 221.703 81.9694 223.495 83.0187 223.159C83.233 223.079 83.4075 222.919 83.5055 222.712C83.6035 222.505 83.6171 222.269 83.5436 222.052C83.47 221.835 83.315 221.656 83.1114 221.552C82.9078 221.447 82.6716 221.426 82.4528 221.493Z" fill="#191919"/>
<path d="M89.4557 218.868C89.3196 218.915 89.1968 218.995 89.0973 219.099C88.9978 219.203 88.9245 219.33 88.8834 219.468C88.8423 219.606 88.8347 219.752 88.8611 219.893C88.8875 220.035 88.9472 220.169 89.0352 220.283C89.1898 220.448 89.3969 220.555 89.6215 220.586C89.846 220.616 90.0741 220.568 90.2673 220.45C90.4205 220.314 90.5285 220.135 90.5766 219.936C90.6248 219.737 90.6108 219.528 90.5365 219.338C90.455 219.132 90.2956 218.968 90.0931 218.88C89.8905 218.792 89.6614 218.787 89.4557 218.868Z" fill="#191919"/>
<path d="M307.652 219.538C307.453 219.62 307.294 219.778 307.212 219.977C307.129 220.175 307.129 220.399 307.211 220.598C307.293 220.797 307.451 220.955 307.649 221.038C307.848 221.121 308.072 221.121 308.271 221.039C309.084 220.778 308.764 219.131 307.652 219.538Z" fill="#191919"/>
<path d="M319.115 219.884C319.016 219.924 318.925 219.982 318.849 220.057C318.772 220.132 318.711 220.221 318.669 220.319C318.627 220.417 318.605 220.523 318.604 220.63C318.602 220.737 318.622 220.843 318.662 220.942C318.702 221.041 318.761 221.132 318.835 221.208C318.91 221.284 318.999 221.345 319.097 221.388C319.195 221.43 319.301 221.452 319.408 221.453C319.515 221.454 319.621 221.435 319.72 221.395C320.543 221.063 320.18 219.516 319.115 219.884Z" fill="#191919"/>
</svg>
