<svg width="320" height="320" viewBox="0 0 320 320" fill="none" xmlns="http://www.w3.org/2000/svg">
<path d="M8.44815 185.149C7.78415 186.269 7.81775 187.176 8.82095 187.333C11.9409 187.813 50.701 187.051 56.885 186.962C58.4274 186.962 58.4962 185.451 57.7858 183.989C52.6498 173.298 43.2994 156.853 35.5954 148.045C35.1329 147.515 34.2434 147.234 33.3426 148.439C24.2874 160.144 15.973 172.405 8.44815 185.149ZM36.4625 178.863C36.8513 181.903 31.8673 182.04 32.7233 178.728C32.8059 178.282 33.0459 177.881 33.3998 177.597C33.7536 177.313 34.1976 177.166 34.6509 177.182C35.1042 177.198 35.5366 177.377 35.8691 177.686C36.2017 177.994 36.4123 178.412 36.4625 178.863ZM35.6066 171.711C35.6066 174.504 32.8242 175.72 32.8866 170.167C32.8866 167.498 32.8865 164.827 33.0226 162.167C33.1346 159.915 34.5314 159.915 35.0385 160.693C35.8994 162.034 35.6001 169.581 35.6066 171.711ZM10.6113 185.375C17.3026 174.741 28.1729 159.05 34.8625 150.195C42.5009 161.976 49.2626 171.811 55.4546 184.619C41.093 184.843 24.9841 185.215 10.6113 185.375Z" fill="#38A1FF"/>
<path d="M270.329 62.0979C262.726 75.0179 253.556 90.6419 247.204 104.047C246.572 105.364 246.979 106.197 247.993 106.299C250.713 106.619 294.627 104.136 300.934 103.81C302.454 103.73 302.623 102.109 301.497 100.228C293.648 86.8638 284.696 74.1796 274.734 62.3075C273.119 60.4419 272.052 59.1699 270.329 62.0979ZM277.279 96.4307C277.33 96.7827 277.29 97.1417 277.166 97.4746C277.041 97.8075 276.834 98.1037 276.565 98.336C276.296 98.5682 275.972 98.7291 275.625 98.8038C275.277 98.8785 274.916 98.8647 274.575 98.7635C272.323 98.2563 273.719 95.8563 273.775 95.6883C274.316 94.0803 277.049 94.7203 277.279 96.4307ZM274.857 74.9171C275.35 77.3619 276.276 86.6211 276.356 89.1443C276.436 91.6675 273.708 92.0163 273.404 90.0339C272.908 86.6547 272.155 78.1715 272.671 75.0179C272.724 74.7736 272.856 74.5535 273.046 74.3919C273.237 74.2304 273.476 74.1366 273.725 74.1251C273.975 74.1135 274.221 74.185 274.426 74.3283C274.631 74.4716 274.782 74.6786 274.857 74.9171ZM249.051 104.293C256.463 89.8931 264.878 76.4147 272.39 62.9315C284.049 76.7987 289.951 86.1315 299.492 101.591C283.857 102.413 266.691 103.788 249.051 104.293Z" fill="#38A1FF"/>
<path d="M292.52 122.429C260.632 122.45 265.768 159.184 290.267 161.101C317.977 163.263 319.689 122.413 292.52 122.429ZM305.011 134.234C304.851 134.965 298.715 141.059 293.049 150.917C292.87 151.241 292.57 151.481 292.214 151.584C291.858 151.687 291.476 151.644 291.152 151.466C290.865 151.306 283.176 144.562 280.4 141.995C279.499 141.162 280.659 139.314 281.739 140.159C285.051 142.738 288.24 145.475 291.483 148.146C294.729 142.749 298.462 137.661 302.637 132.946C302.851 132.729 303.131 132.589 303.432 132.544C303.734 132.5 304.042 132.556 304.31 132.701C304.578 132.847 304.791 133.076 304.917 133.354C305.044 133.631 305.076 133.942 305.011 134.24V134.234Z" fill="#38A1FF"/>
<path d="M254.944 242.08C229.903 243.352 228.269 285.571 258.007 284.063C287.744 282.554 285.807 240.511 254.944 242.08ZM266.803 272.359C265.363 272.359 258.615 266.219 257.095 264.903C255.235 266.76 250.922 271.303 249.21 272.517C248.991 272.667 248.727 272.733 248.464 272.704C248.201 272.674 247.957 272.552 247.777 272.358C247.597 272.164 247.492 271.912 247.483 271.647C247.473 271.383 247.558 271.124 247.723 270.917C250.043 268.179 252.509 265.569 255.112 263.099C253.061 261.287 248.781 257.727 247.509 255.711C246.869 254.707 248.242 253.829 249.096 254.303C251.862 256.445 254.517 258.726 257.05 261.139C258.288 259.89 264.079 253.728 265.429 253.029C266.41 252.522 267.411 253.829 266.973 254.719C266.376 255.903 260.215 261.759 259.088 262.931C261.806 264.983 264.412 267.178 266.895 269.509C267.907 270.666 269.034 272.355 266.803 272.355V272.359Z" fill="#38A1FF"/>
<path d="M197.304 46.6211C197.733 56.2531 201.144 64.5203 213.952 65.2755C216.575 65.498 219.215 65.1672 221.701 64.3046C224.187 63.4419 226.465 62.0666 228.386 60.2678C230.307 58.4689 231.829 56.2866 232.853 53.8621C233.877 51.4377 234.38 48.8252 234.33 46.1939C234.228 36.3939 229.319 28.4339 216.308 27.9235C203.84 27.4371 196.824 35.8195 197.304 46.6211ZM222.164 54.8099L215.84 48.1987C213.192 50.6323 210.624 53.1667 207.888 55.5091C207.656 55.6579 207.38 55.722 207.107 55.6906C206.833 55.6593 206.578 55.5343 206.386 55.3368C206.194 55.1394 206.076 54.8817 206.052 54.6072C206.028 54.3327 206.1 54.0584 206.255 53.8307C207.493 52.2195 212.202 47.8835 213.981 46.1827C212.861 44.9651 207.663 39.8963 207.223 38.4099C207.144 38.1507 207.223 35.4243 210.743 38.9395C212.503 40.6995 214.223 42.5107 215.968 44.2899C217.679 42.5126 219.481 40.8245 221.365 39.2323C222.997 37.9939 224.532 39.9427 222.704 41.7107C221.104 43.2531 219.495 44.7635 217.884 46.2835L224.237 52.8851C224.496 53.1609 224.634 53.5281 224.622 53.9058C224.609 54.2836 224.447 54.641 224.172 54.8995C223.896 55.1579 223.529 55.2962 223.151 55.2839C222.773 55.2716 222.416 55.1097 222.157 54.8339L222.164 54.8099Z" fill="#38A1FF"/>
<path d="M83.5587 79.3778C83.1299 69.7586 77.3635 60.8178 61.9875 60.8178C50.2499 60.8178 43.4275 68.9282 43.9651 80.5298C44.5027 92.1314 52.2851 98.485 63.2835 99.0146C65.9496 99.2456 68.6342 98.9014 71.1558 98.0052C73.6773 97.109 75.977 95.6817 77.8993 93.82C79.8216 91.9582 81.3217 89.7053 82.298 87.2137C83.2744 84.7221 83.7043 82.0499 83.5587 79.3778ZM73.9587 73.5986C71.2611 76.1282 68.6307 78.7346 65.9587 81.3042C67.5363 83.1394 68.9891 85.0994 70.6899 86.8226C73.7427 89.9538 71.2979 91.9138 69.9923 90.3714L63.9315 83.229C61.6984 85.5157 59.3207 87.6567 56.8131 89.6386C55.9459 90.2242 54.7731 88.9858 55.3827 88.1522C57.4917 85.6822 59.7487 83.3424 62.1411 81.1458C60.4739 79.1634 55.3827 73.3394 54.3235 71.5458C53.5683 70.2386 55.3251 69.405 56.1699 70.2162C58.9411 72.8978 61.6003 76.2546 64.1347 79.2274C66.7475 76.693 69.3379 74.1074 72.0195 71.6354C74.2995 69.5218 74.9955 72.629 73.9619 73.6002L73.9587 73.5986Z" fill="#38A1FF"/>
<path d="M101.163 136.149C89.7539 136.149 84.5043 144.687 85.6867 155.613C86.8691 166.539 92.4451 170.258 102.392 170.258C112.339 170.258 118.552 164.693 118.443 154.487C118.335 144.28 111.403 136.149 101.163 136.149ZM107.723 160.277C106.603 159.939 103.218 155.231 102.011 153.89C99.7587 155.883 97.6195 157.935 95.3331 159.848C94.3187 160.693 92.7731 159.128 93.7219 158.17C95.8019 156.019 98.0419 154.01 100.21 151.941C98.5844 150.434 97.1092 148.773 95.8051 146.981C95.6931 146.677 95.8051 144.154 98.9827 146.981C100.103 147.983 101.111 149.075 102.183 150.112L105.651 146.901C106.632 146 109.171 144.648 108.874 146.901C108.738 148.021 105.336 150.81 103.973 152.072C104.909 153.131 109.093 157.704 109.042 159.146C109.046 159.312 109.013 159.478 108.946 159.63C108.878 159.783 108.777 159.918 108.651 160.026C108.524 160.135 108.375 160.213 108.214 160.257C108.053 160.3 107.884 160.307 107.72 160.277H107.723Z" fill="#38A1FF"/>
<path d="M153.024 150.24C149.408 150.24 145.139 149.891 143.213 153.619C142.763 154.464 144.136 155.13 144.653 154.386C146.535 151.728 151.829 152.392 154.915 152.392C158.842 152.511 162.772 152.404 166.687 152.072C166.86 152.04 167.017 151.948 167.13 151.812C167.243 151.676 167.305 151.505 167.305 151.328C167.305 151.152 167.243 150.98 167.13 150.845C167.017 150.709 166.86 150.617 166.687 150.584C165.658 150.063 154.187 150.24 153.024 150.24ZM145.24 144.147C145.365 144 145.538 143.902 145.729 143.873C145.92 143.843 146.115 143.883 146.278 143.986C146.442 144.089 146.562 144.248 146.618 144.433C146.674 144.618 146.66 144.816 146.581 144.992C145.721 146.948 144.641 148.8 143.36 150.511C140.229 155.4 136.117 161.336 131.757 164.997C131.059 165.583 130.112 164.49 130.699 163.877C133.457 160.868 136.04 157.704 138.437 154.4C140.026 152.122 144.581 144.64 145.24 144.147ZM148.619 166.202C146.626 165.435 147.797 169.514 141.175 173.208C141 173.313 140.868 173.478 140.805 173.672C140.742 173.866 140.75 174.076 140.83 174.264C140.909 174.452 141.054 174.605 141.237 174.695C141.421 174.784 141.63 174.805 141.827 174.752C143.491 174.08 145.002 173.079 146.269 171.809C147.537 170.539 148.535 169.027 149.205 167.362C149.255 167.136 149.224 166.9 149.117 166.695C149.009 166.49 148.833 166.33 148.619 166.242V166.202ZM162.069 160.378C162.261 161.392 162.869 164.096 161.451 164.107C160.256 164.107 160.413 162.079 160.331 161.403C160.293 160.249 159.921 159.129 159.262 158.18C158.603 157.231 157.683 156.493 156.615 156.053C154.324 155.417 151.925 155.271 149.575 155.624C149.4 155.623 149.231 155.559 149.1 155.443C148.969 155.327 148.885 155.167 148.862 154.994C148.84 154.82 148.882 154.645 148.98 154.5C149.078 154.354 149.225 154.25 149.394 154.205C152.158 153.441 155.092 153.559 157.786 154.544C158.918 155.103 159.901 155.924 160.652 156.938C161.403 157.953 161.902 159.132 162.106 160.378H162.069ZM158.263 160.389C158.956 161.87 159.126 163.542 158.743 165.131C158.394 167.384 157.167 166.957 156.963 166.506C156.277 164.93 157.831 164.13 156.434 161.155C154.947 157.979 152.114 158.464 149.112 158.576C148.921 158.573 148.738 158.501 148.595 158.374C148.453 158.248 148.36 158.074 148.334 157.885C148.308 157.696 148.351 157.504 148.454 157.343C148.558 157.183 148.715 157.064 148.898 157.01C152.832 156.176 156.418 156.48 158.263 160.389ZM154.743 164.219C153.549 160.266 152.749 161.019 147.984 161.2C147.763 161.2 147.551 161.288 147.395 161.444C147.238 161.601 147.151 161.813 147.151 162.034C147.151 162.255 147.238 162.467 147.395 162.623C147.551 162.78 147.763 162.867 147.984 162.867C149.361 162.714 150.751 162.749 152.119 162.97C152.704 163.138 153.335 166.146 152.975 167.475C152.711 168.178 152.263 168.796 151.679 169.266C150.399 170.546 153.759 171.451 154.89 168.274C155.276 166.942 155.226 165.521 154.747 164.219H154.743Z" fill="#191919"/>
<path d="M157.891 168.184C156.771 168.024 156.771 169.874 156.483 171.563C156.323 172.6 155.954 173.941 156.483 174.504C157.603 175.624 158.151 173.579 158.363 171.624C158.466 170.779 159.029 168.367 157.845 168.245L157.891 168.184ZM173.987 174.853C173.827 172.104 173.695 149.643 175.407 149.295C176.871 148.895 178.155 148.007 179.046 146.778C179.937 145.549 180.381 144.052 180.306 142.536C180.419 137.005 177.152 138.583 176.544 139.72C175.069 142.469 171.264 132.218 171.264 126.496C160.371 124.576 146.653 122.621 141.984 111.019C139.562 105.015 153.778 101.76 175.056 119.242C188.043 113.261 184.067 126 179.426 136.826C183.853 138.064 183.594 149.103 176.632 151.288C175.754 159.691 175.912 166.923 175.653 174.763C175.653 176.069 174.031 176.272 173.963 174.909L173.987 174.853ZM150.512 123.781C148.88 127.69 147.224 142.717 147.495 147.29C147.495 148.056 148.8 148.168 148.856 147.379C149.263 141.016 150.479 129.939 152.235 124.119C152.483 123.274 150.896 122.999 150.57 123.781H150.512ZM170.202 156.581C169.082 155.675 168.659 157.256 166.666 158.661C165.179 159.698 163.287 160.16 163.626 161.128C164.106 162.355 166.127 161.354 167.883 160.069C168.581 159.579 171.48 157.613 170.202 156.583V156.581Z" fill="#191919"/>
<path d="M179.269 175.314C174.497 178.756 168.977 181.019 163.162 181.915C159.469 182.467 159.367 181.645 157.372 178.738C156.676 177.703 155.999 176.643 155.292 175.595C155.188 175.409 155.015 175.271 154.81 175.212C154.605 175.153 154.385 175.178 154.198 175.281C154.011 175.384 153.873 175.558 153.814 175.763C153.755 175.968 153.78 176.188 153.884 176.375C154.845 178.573 156.095 180.633 157.6 182.501C155.557 184.413 153.673 186.488 151.968 188.707C150.54 185.662 149.528 182.438 148.962 179.122L150.882 178.367C151.11 178.286 151.298 178.118 151.402 177.899C151.507 177.681 151.52 177.429 151.44 177.201C151.359 176.972 151.191 176.785 150.972 176.681C150.754 176.576 150.502 176.563 150.274 176.643C147.176 177.611 144.09 178.898 141.048 180.024C142.168 176.344 141.917 175.991 140.103 174.987C133.344 171.271 130.461 168.917 127.589 164.85C126.959 163.971 126 165.266 126.552 166.146C129.616 171.023 133.063 174.131 139.754 177.33C138.909 179.944 138.076 182.572 137.253 185.215C130.754 183.538 127.836 181.971 123.218 176.791C123.09 176.64 122.91 176.544 122.714 176.519C122.518 176.495 122.321 176.545 122.16 176.66C121.999 176.774 121.887 176.945 121.846 177.138C121.805 177.331 121.838 177.532 121.938 177.703C123.618 180.184 125.78 182.302 128.296 183.93C130.812 185.557 133.631 186.661 136.583 187.176C132.663 199.667 128.224 212.531 124.981 225.136C124.776 225.946 126.101 226.416 126.389 225.616C131.57 211.696 135.906 196.475 140.333 182.203C142.709 181.598 145.024 180.776 147.25 179.749C147.487 183.081 148.367 186.336 149.84 189.335C151.869 193.514 153.005 189.053 158.852 183.994C159.972 185.797 164.132 193.648 165.949 193.906C170.269 194.504 181.911 184.648 184.829 181.178C190.589 184.557 202.853 191.519 206.525 197.195C212.676 206.658 221.54 278.501 194.338 278.4C175.458 278.322 155.949 267.327 139.199 259.701C139.73 253.144 141.471 246.743 144.335 240.821C144.752 239.861 143.546 239.469 143.005 240.291C139.651 245.973 137.802 252.416 137.632 259.011C134.749 257.726 131.797 256.598 128.791 255.632C129.173 249.469 132.17 238.927 135.351 235.581C153.82 238.34 171.977 242.89 189.565 249.167C190.32 249.437 190.76 248.106 190.096 247.703C187.496 246.412 184.781 245.367 181.986 244.581C181.244 233.09 181.917 221.551 183.989 210.224C184.014 210.135 184.021 210.043 184.011 209.951C184 209.86 183.971 209.771 183.926 209.691C183.881 209.611 183.821 209.54 183.748 209.483C183.676 209.426 183.593 209.384 183.504 209.359C183.416 209.334 183.323 209.326 183.231 209.337C183.14 209.348 183.052 209.377 182.971 209.422C182.891 209.467 182.82 209.527 182.763 209.599C182.706 209.672 182.664 209.755 182.639 209.843C180.285 215.603 179.97 237.091 180.533 244.098C175.644 242.487 137.052 232.282 134.349 234.178C130.789 236.634 126.989 248.674 127.117 255.579C127.117 257.067 128.096 257.213 129.258 257.698C144.688 264.152 174.258 280.023 193.463 280.565C193.757 283.301 194.039 289.496 194.296 291.514C194.421 292.493 195.84 292.167 195.794 291.194C195.66 287.994 195.874 283.613 195.536 280.562C222.301 279.682 215.588 209.347 209.053 197.341C204.458 188.904 186.311 179.994 185.872 179.581C185.434 179.168 180.24 174.669 179.271 175.367L179.269 175.314ZM124.188 166.698C124.864 165.672 126.024 166.698 125.383 167.818C117.261 180.557 90.5875 223.914 98.2931 239.12C99.6999 241.719 101.835 243.849 104.437 245.25C107.038 246.651 109.993 247.261 112.936 247.005C113.155 246.995 113.37 247.07 113.535 247.214C113.701 247.358 113.804 247.56 113.825 247.778C113.846 247.997 113.781 248.215 113.646 248.387C113.51 248.559 113.313 248.673 113.096 248.704C109.688 249.256 106.194 248.679 103.144 247.062C100.094 245.444 97.6555 242.875 96.2003 239.744C88.2259 223.309 115.349 180.133 124.248 166.696L124.188 166.698ZM120.16 257.16C120.148 256.996 120.078 256.841 119.964 256.722C119.85 256.603 119.697 256.528 119.534 256.509C119.37 256.49 119.204 256.529 119.066 256.618C118.927 256.708 118.825 256.843 118.775 257C117.356 261.8 117.919 277.64 119.597 282.355C119.89 283.155 121.208 283.042 121.106 282.141C120.152 273.85 119.836 265.499 120.16 257.16ZM150.4 274.056C150.66 274.563 150.24 278.416 150.816 285.107C150.884 285.928 149.696 285.975 149.431 285.229C149.004 283.744 148.114 275.555 149.093 273.965C149.167 273.856 149.267 273.768 149.384 273.709C149.501 273.65 149.632 273.623 149.763 273.628C149.894 273.634 150.021 273.673 150.133 273.742C150.245 273.811 150.337 273.908 150.4 274.023V274.056ZM156.28 189.97C156.482 189.181 157.959 189.067 157.823 189.97C155.829 204.499 154.815 219.762 153.487 233.088C153.384 234.067 151.943 233.81 151.988 232.851C152.383 225.215 154.354 197.573 156.28 189.936V189.97ZM183.258 179.832C176.712 186.365 173.029 189.157 166.618 192.053C164.916 189.451 163.239 186.839 161.525 184.248C167.157 184.248 175.484 180.53 179.944 177.399L183.258 179.832Z" fill="#191919"/>
<path d="M158.285 146.32C157.378 146.3 156.479 146.129 155.628 145.815C156.473 144.136 157.329 142.435 158.173 140.768C158.221 140.623 158.22 140.467 158.169 140.323C158.118 140.179 158.021 140.056 157.893 139.974C157.765 139.891 157.613 139.853 157.461 139.867C157.309 139.88 157.165 139.943 157.053 140.047C156.061 141.967 155.082 143.887 154.068 145.791C153.257 147.335 157.537 147.797 158.258 147.819C158.444 147.804 158.618 147.72 158.745 147.584C158.873 147.447 158.946 147.269 158.949 147.082C158.952 146.896 158.886 146.714 158.764 146.574C158.641 146.433 158.471 146.343 158.285 146.32ZM156.033 128.298C149.116 129.898 151.426 132.218 152.653 131.733C153.844 131.241 155.07 130.838 156.321 130.528C157.807 130.208 157.109 128.039 156.017 128.275L156.033 128.298ZM160.538 132.443C160.335 132.582 160.181 132.783 160.102 133.016C160.022 133.25 160.02 133.502 160.096 133.737C160.172 133.971 160.322 134.174 160.524 134.316C160.725 134.458 160.967 134.531 161.213 134.523C162.924 134.143 164.684 134.029 166.429 134.186C167.725 134.299 167.308 132.552 166.429 132.351C166.012 132.343 163.098 130.619 160.538 132.443ZM154.185 136.589C155.295 138.749 152.98 141.309 152.349 139.743C151.583 137.827 153.385 135.029 154.185 136.589ZM164.425 138.469C164.165 136.791 161.508 138.469 162.505 141.421C163.068 142.952 164.905 141.195 164.476 138.458L164.425 138.469Z" fill="#191919"/>
<path d="M125.304 252.779C123.384 251.066 119.885 251.731 117.666 253.259C116.968 249.88 116.743 238.219 120.386 236.058C122.189 234.938 124.464 235.507 126.018 235.315C126.807 235.226 127.235 233.954 126.338 233.639C125.219 233.261 124.035 233.111 122.857 233.198C121.679 233.285 120.53 233.606 119.479 234.144C114.848 236.736 114.466 248.653 115.799 253.597C115.827 253.959 115.956 254.307 116.172 254.599C116.388 254.891 116.682 255.117 117.02 255.251C117.358 255.384 117.727 255.42 118.085 255.354C118.442 255.288 118.774 255.122 119.042 254.877C121.227 253.403 122.895 254 124.674 254C125.237 254 125.794 253.234 125.248 252.795L125.304 252.779ZM131.544 229.811C134.299 232.362 132.085 233.427 130.699 231.872C127.906 228.741 127.725 229.416 123.715 231.174C123.163 231.411 120.899 230.341 125.304 228.549C128.098 227.411 129.152 227.595 131.544 229.811Z" fill="#191919"/>
<path d="M281.053 181.397C281.178 179.605 290.173 166.754 292.082 166.677C293.991 166.6 304.242 178.797 303.818 180.328C303.628 181.028 298.93 181.546 293.861 181.794C294.181 188.552 295.978 212.748 295.652 216.802C295.506 218.514 282.202 216.464 256.069 217.016C256.272 221.848 256.994 232.504 256.858 236.165C256.874 236.316 256.859 236.469 256.814 236.614C256.769 236.759 256.695 236.894 256.597 237.01C256.499 237.126 256.379 237.221 256.243 237.29C256.108 237.358 255.96 237.398 255.808 237.408C255.656 237.418 255.504 237.397 255.361 237.347C255.218 237.297 255.086 237.218 254.974 237.116C254.861 237.014 254.771 236.89 254.707 236.752C254.644 236.614 254.609 236.464 254.605 236.312C253.388 227.932 251.452 148.271 252.093 140.927C245.064 140.679 217.716 141.107 214.173 140.093C212.709 139.688 212.562 88.7059 212.664 83.0067C177.215 82.4547 141.869 81.6323 106.16 81.7107C106.24 85.7331 107.44 116.751 106.48 118.624C105.86 119.829 69.3076 118.455 64.9716 118.477C65.09 130.614 65.21 142.749 65.3316 154.884C67.3476 154.68 79.8916 153.994 81.4628 154.275C82.5828 154.477 82.498 156.325 81.4628 156.392C76.0996 156.776 70.7156 156.799 65.354 157C65.2868 165.111 65.2308 242.834 64.3748 243.735C63.5188 244.636 38.8276 243.813 24.2852 244.309C20.7839 247.403 17.0384 250.21 13.0852 252.701C12.2292 253.021 11.5876 234.461 11.9652 233.661C12.4836 232.381 21.8548 239.53 24.514 242.212C31.3396 241.783 55.6372 241.367 62.474 241.997C62.7556 200.804 63.1268 159.768 62.722 118.552L36.2516 119.173C36.2516 125.018 36.0036 140.664 35.5188 142.973C35.4777 143.165 35.3696 143.335 35.2139 143.454C35.0581 143.573 34.865 143.633 34.6693 143.622C34.4736 143.611 34.2882 143.531 34.1465 143.395C34.0048 143.26 33.9161 143.079 33.8964 142.883C33.6036 140.372 33.8964 124.117 33.8964 119.229C33.8964 117.629 34.6964 117.055 35.226 116.976C42.874 116.346 54.7124 116.199 62.7108 116.12C62.7108 112.167 62.6436 108.032 62.6308 103.571C62.6308 102.253 64.5908 102.451 64.6372 103.752C64.7972 108.799 64.9076 112.482 65.0084 116.143C78.2553 116.046 91.5017 116.286 104.748 116.863C104.669 113.81 103.858 82.4515 104.039 80.8179C104.14 79.9395 104.636 79.5907 105.639 79.5795C140.669 79.1283 177.728 79.5795 212.772 80.6995C212.724 77.0961 212.927 73.4938 213.38 69.9187C213.414 69.6965 213.529 69.4947 213.703 69.3521C213.877 69.2094 214.097 69.1359 214.322 69.1456C214.547 69.1553 214.76 69.2476 214.921 69.4047C215.082 69.5618 215.179 69.7727 215.194 69.9971C215.399 73.5878 215.399 77.1872 215.194 80.7779C227.404 81.1827 238.173 81.6787 252.365 82.2531C253.863 82.3203 254.032 84.6643 252.525 84.5955L215.04 83.1171C214.792 100.813 214.848 122.147 216.247 138.157C219.231 137.943 251.322 137.752 253.687 138.868C254.7 139.347 255.839 209.392 255.94 214.991C260.602 214.573 285.508 214.991 293.426 215.047L291.237 181.92C285.988 182.063 281.016 181.938 281.053 181.397Z" fill="#191919"/>
</svg>
