<svg width="184" height="184" viewBox="0 0 184 184" fill="none" xmlns="http://www.w3.org/2000/svg">
<path d="M146.439 103.693C147.176 103.654 147.887 103.411 148.494 102.991C149.102 102.572 149.58 101.991 149.877 101.316C150.13 100.456 149.22 100.153 148.915 101.113C148.661 101.639 148.277 102.092 147.8 102.428C147.322 102.765 146.767 102.974 146.186 103.036C145.984 103.086 145.579 103.71 146.439 103.693Z" fill="#191919"/>
<path d="M147.955 96.4109C147.657 95.2966 146.134 96.3098 147.045 97.3716C147.298 97.675 148.265 97.572 147.955 96.4109Z" fill="#191919"/>
<path d="M145.781 91.7084C145.072 91.9079 145.073 92.7197 145.982 92.7197C146.999 92.6447 148.019 92.8019 148.966 93.1793C149.032 93.2012 149.102 93.2002 149.167 93.1764C149.231 93.1525 149.286 93.1073 149.321 93.0483C149.357 92.9892 149.371 92.9199 149.361 92.8518C149.352 92.7836 149.319 92.7208 149.269 92.6737C148.792 92.2708 148.233 91.9759 147.631 91.8093C147.029 91.6426 146.398 91.6082 145.781 91.7084Z" fill="#191919"/>
<path d="M143.051 94.233C142.375 93.8511 141.579 93.7425 140.826 93.9296C140.366 94.0813 140.421 94.587 140.876 94.6375C141.47 94.6581 142.055 94.7956 142.595 95.042C143.201 95.2985 143.35 94.4932 143.051 94.233Z" fill="#191919"/>
<path d="M143.858 97.7266C143.715 98.8507 143.698 99.9874 143.808 101.115C144.011 102.43 146.993 101.469 146.539 100.761C146.286 100.357 145.275 101.221 144.617 100.913C144.441 99.8605 144.374 98.7928 144.415 97.7266C144.415 97.6527 144.386 97.5818 144.334 97.5296C144.282 97.4773 144.211 97.448 144.137 97.448C144.063 97.448 143.992 97.4773 143.94 97.5296C143.888 97.5818 143.858 97.6527 143.858 97.7266Z" fill="#191919"/>
<path d="M142.847 98.0796C143.603 97.6199 142.898 96.057 142.241 96.5626C141.734 96.866 141.934 98.6321 142.847 98.0796Z" fill="#191919"/>
<path d="M137.74 102.176C138.448 104.502 140.167 107.536 142.139 108.952C143.049 109.609 143.504 108.952 142.599 108.092C140.655 106.454 139.188 104.323 138.351 101.922C138.318 101.841 138.253 101.777 138.172 101.743C138.091 101.71 138 101.71 137.919 101.744C137.838 101.777 137.773 101.842 137.74 101.923C137.706 102.004 137.706 102.095 137.74 102.176Z" fill="#191919"/>
<path d="M154.174 104.603C154.421 104.395 154.225 103.997 153.921 104.144C151.09 105.357 149.118 109.756 150.483 112.892C150.685 113.297 151.241 113.145 151.14 112.689C150.382 108.8 151.381 106.959 154.174 104.603Z" fill="#191919"/>
<path d="M137.286 105.564C137.683 106.828 138.331 107.999 139.191 109.007C140.051 110.015 141.106 110.839 142.292 111.429C142.949 111.733 143.606 111.227 142.595 110.57C140.514 109.377 138.867 107.553 137.892 105.362C137.64 104.957 137.174 105.112 137.286 105.564Z" fill="#191919"/>
<path d="M139.46 102.075C140.597 104.428 142.507 106.319 144.87 107.435C148.157 108.901 148.815 106.626 151.647 104.755C151.95 104.553 151.797 104.148 151.443 104.249C148.915 104.856 148.662 108.193 145.123 106.474C143.058 105.327 141.318 103.674 140.066 101.671C140.008 101.603 139.927 101.56 139.838 101.548C139.75 101.536 139.66 101.557 139.586 101.607C139.511 101.656 139.458 101.731 139.434 101.817C139.411 101.903 139.42 101.995 139.46 102.075Z" fill="#191919"/>
<path d="M143.858 115.378C144.112 115.782 144.769 115.429 144.566 115.024C143.605 112.444 139.762 111.888 138.397 109.613C138.144 109.208 137.689 109.613 137.845 110.017C139.257 112.694 142.143 112.64 143.858 115.378Z" fill="#191919"/>
<path d="M139.105 94.1863C139.291 96.665 139.783 99.1111 140.572 101.468C140.673 101.822 141.33 101.671 141.229 101.266C140.163 97.8494 139.734 94.2656 139.965 90.6937C140.323 90.8238 140.703 90.8781 141.083 90.853C141.463 90.828 141.834 90.7242 142.171 90.5482C142.509 90.3723 142.806 90.128 143.045 89.831C143.283 89.534 143.456 89.1906 143.555 88.8228C144.921 90.8454 148.966 90.6431 150.23 88.8228C149.876 91.6039 153.112 96.5086 153.77 95.5984C154.073 95.1388 154.376 94.6377 154.933 94.486C157.006 93.8287 157.36 97.7727 156.096 98.3289C155.544 98.5817 154.427 97.8692 155.084 99.6435C155.957 101.96 156.7 104.323 157.309 106.723C157.41 107.178 157.966 106.975 157.966 106.52C157.521 104.068 156.844 101.663 155.944 99.3392C156.414 99.2792 156.85 99.0615 157.181 98.7217C157.511 98.3819 157.717 97.9401 157.764 97.4684C158.356 97.2535 158.884 96.8939 159.301 96.4224C159.718 95.951 160.01 95.3827 160.151 94.7694C160.291 94.156 160.277 93.5172 160.107 92.9111C159.938 92.305 159.619 91.751 159.181 91.2996C161.911 88.5691 161.406 84.068 157.208 84.1186C157.468 83.2904 157.472 82.4029 157.219 81.5727C156.965 80.7424 156.466 80.0082 155.788 79.4667C155.11 78.9251 154.283 78.6015 153.417 78.5383C152.552 78.4751 151.687 78.6754 150.937 79.1127C149.42 75.017 143.201 76.2306 143.049 79.8712C139.105 76.6351 133.997 81.6915 137.031 85.5849C133.594 85.6401 133.29 93.8324 139.105 94.1863Z" fill="#191919"/>
<path d="M146.033 118.206C146.336 118.545 146.735 118.783 147.177 118.889C147.619 118.995 148.083 118.963 148.506 118.798C148.93 118.633 149.293 118.343 149.546 117.966C149.8 117.589 149.933 117.144 149.927 116.689C150.763 116.362 151.575 115.973 152.354 115.526C152.24 114.839 151.982 114.184 151.595 113.605C150.808 113.808 150.045 114.097 149.32 114.464C149.027 114.102 148.627 113.842 148.178 113.723C147.728 113.603 147.252 113.629 146.818 113.798C146.384 113.967 146.015 114.27 145.765 114.662C145.515 115.055 145.396 115.517 145.425 115.981C144.92 116.285 144.364 116.639 144.161 116.79C144.136 117.489 144.329 118.178 144.713 118.762C145.122 118.611 145.624 118.412 146.033 118.206ZM146.487 115.981C146.647 114.212 148.97 114.414 148.764 116.639C148.612 118.459 146.296 118.106 146.487 115.981Z" fill="#191919"/>
<path d="M134.96 135.297C134.808 132.769 134.707 126.802 135.364 124.577C135.465 124.172 135.971 124.071 135.916 124.931C135.746 128.369 135.78 131.813 136.017 135.247C139.835 135.124 143.657 135.31 147.445 135.803C145.826 131.556 143.551 118.358 143.298 116.638C143.045 114.919 139.607 113.755 137.782 111.986C133.535 113.503 127.618 118.256 123.017 124.729C124.709 128.418 126.096 132.241 127.163 136.157C129.744 135.726 132.347 135.439 134.96 135.297Z" fill="#191919"/>
<path d="M158.776 107.637C156.703 109.811 154.933 110.873 151.798 110.924C152.455 115.429 156.4 121.998 159.838 126.803C160.376 125.66 160.766 124.453 161 123.212C161.103 122.504 161.552 122.757 161.552 123.161C161.469 124.757 161.128 126.328 160.541 127.814C164.688 133.477 170.102 138.938 172.125 145.816C174.4 142.934 183.3 127.153 177.131 116.689C173.492 110.368 165.552 107.132 158.776 107.637Z" fill="#191919"/>
<path d="M166.21 153.347C169.801 153.398 171.469 153.398 174.502 153.398C176.071 149.504 177.689 141.869 178.245 135.548C175.008 146.018 170.103 150.973 166.21 153.347Z" fill="#191919"/>
<path d="M152.405 150.215C146.697 150.755 141.046 151.787 135.516 153.299C138.802 153.249 150.635 153.148 154.781 153.249C153.708 152.493 152.881 151.438 152.405 150.215Z" fill="#191919"/>
<path d="M151.6 148.951C152.208 148.859 152.106 147.939 151.499 148.04C136.871 150.093 134.441 151.846 128.187 152.389C127.327 152.44 126.624 153.35 127.783 153.35C131.525 153.35 137.694 151.428 141.739 150.67C145.275 149.962 148.061 149.498 151.6 148.951Z" fill="#191919"/>
<path d="M128.992 136.815C126.765 137.26 127.323 137.978 128.132 137.775C133.898 136.562 141.684 136.815 147.45 137.775C148.006 137.876 148.259 137.017 147.702 136.916C141.988 135.955 134.701 135.675 128.992 136.815Z" fill="#191919"/>
<path d="M164.592 135.5C164.843 135.705 165.35 135.399 165.143 135.04C160.365 129.355 156.117 123.244 152.451 116.786C152.249 116.432 151.642 116.786 151.794 117.139C153.72 120.986 161.279 132.8 164.592 135.5Z" fill="#191919"/>
<path d="M170.862 146.22C171.064 145.715 170.402 145.31 170.154 145.761C168.637 148.44 166.817 151.12 163.884 152.435C160.901 153.8 157.613 153.396 155.439 150.817C150.737 145.255 147.298 127.558 146.033 119.516C145.932 119.01 145.224 119.213 145.325 119.718C146.387 127.404 149.83 145.508 154.832 151.424C158.663 155.989 166.748 154.86 170.862 146.22Z" fill="#191919"/>
<path d="M95.4663 126.043C95.8203 125.842 95.5674 125.436 95.1629 125.491C93.3426 125.845 92.1291 126.351 91.572 128.172C91.0101 129.83 90.871 131.603 91.1675 133.329C91.2686 133.789 91.9259 133.683 91.9765 133.228C92.027 131.256 91.7237 130.852 92.381 128.677C92.9372 126.65 93.851 126.962 95.4663 126.043Z" fill="#191919"/>
<path d="M96.1235 118.307C96.068 119.403 96.1019 120.503 96.2246 121.594C96.2752 121.998 96.9831 121.948 97.0336 121.594C97.0565 120.496 97.0059 119.398 96.882 118.307C96.8305 117.952 96.1318 117.952 96.1235 118.307Z" fill="#191919"/>
<path d="M99.9663 117.903C101.317 117.167 103.46 115.728 104.365 113.958C104.618 113.452 104.569 113.3 104.214 112.845C103.767 112.34 103.238 111.913 102.651 111.581C102.045 111.278 101.993 111.48 101.539 111.783C98.5551 113.857 94.0007 113.452 90.8685 111.834C90.6156 111.682 89.9077 112.087 90.5651 112.441C94.4594 114.414 98.6553 114.768 102.246 112.239C102.825 112.606 103.352 113.048 103.815 113.553C102.617 115.255 100.996 116.615 99.1113 117.498C98.4034 116.639 97.6955 115.83 96.9876 114.97C95.9203 113.785 95.4827 115.918 93.7506 117.65C91.998 116.784 90.3232 115.769 88.7448 114.616C89.2504 114.109 89.7055 113.605 90.2111 113.098C90.5145 112.845 90.11 112.34 89.7515 112.547C89.2184 112.933 88.727 113.373 88.2851 113.861C88.1039 114.07 88.0128 114.342 88.0318 114.618C88.0507 114.893 88.1782 115.15 88.3862 115.332C89.1953 116.091 93.2909 118.72 93.9492 118.417C95.0616 117.865 95.6684 116.394 96.4268 115.484C97.1347 116.192 98.0954 117.608 98.6516 118.164C99.0056 118.56 99.6087 118.098 99.9663 117.903Z" fill="#191919"/>
<path d="M105.326 97.574C105.51 96.796 105.578 95.9953 105.528 95.1975C105.427 94.3379 104.618 94.2873 104.668 95.2481C104.769 96.5122 104.315 97.9785 104.467 98.2819C104.821 99.1424 106.085 97.7303 106.691 98.6368C107.55 100.053 105.679 102.732 104.516 102.025C104.214 101.822 103.965 101.974 103.758 102.631C103.449 103.517 103.042 104.365 102.544 105.16C99.814 109.154 94.3025 110.165 91.2687 106.722C90.199 105.337 89.5026 103.701 89.2461 101.969C89.2382 101.856 89.2007 101.746 89.1373 101.651C89.074 101.556 88.987 101.479 88.8848 101.428C88.7827 101.377 88.6691 101.353 88.5551 101.36C88.4411 101.366 88.3307 101.402 88.2348 101.464C87.173 102.273 86.2123 101.059 86.1112 99.5423C85.9595 97.4683 87.2236 97.3166 88.1337 98.0245C88.1903 98.0704 88.2599 98.0974 88.3327 98.1016C88.4055 98.1058 88.4778 98.087 88.5393 98.0479C88.6008 98.0087 88.6485 97.9512 88.6755 97.8835C88.7025 97.8158 88.7076 97.7413 88.6899 97.6705C88.6394 97.2109 88.3865 94.6367 88.3865 94.0805C88.336 93.5749 87.7292 93.7771 87.7292 94.2322C87.7798 95.1423 87.8303 96.1031 87.9315 96.9626C87.6526 96.8273 87.3448 96.7621 87.035 96.7727C86.7252 96.7832 86.4226 96.8692 86.1536 97.0232C85.8846 97.1772 85.6572 97.3945 85.4912 97.6563C85.3252 97.9181 85.2256 98.2165 85.201 98.5255C84.7965 101.257 86.7179 103.381 88.4877 102.369C88.9933 104.594 89.8529 106.87 91.7247 108.235C91.6226 109.145 91.573 110.055 91.4719 110.965C91.4213 111.774 91.9775 111.875 92.1798 111.471C92.3164 110.549 92.4008 109.621 92.4326 108.69C93.6719 109.336 95.0612 109.639 96.4569 109.567C97.8525 109.496 99.2039 109.054 100.371 108.285C100.422 109.195 100.371 110.156 100.472 111.066C100.473 111.124 100.486 111.181 100.511 111.233C100.535 111.285 100.57 111.331 100.613 111.369C100.657 111.407 100.708 111.435 100.763 111.452C100.818 111.468 100.876 111.473 100.933 111.466C100.99 111.459 101.045 111.44 101.094 111.41C101.144 111.38 101.186 111.341 101.219 111.293C101.252 111.246 101.274 111.192 101.285 111.136C101.296 111.079 101.295 111.021 101.281 110.965C101.13 109.448 101.231 108.488 101.18 107.729C102.711 106.515 103.825 104.854 104.367 102.976C104.673 103.049 104.992 103.05 105.299 102.98C105.606 102.91 105.892 102.77 106.136 102.572C108.512 100.963 108.309 96.6639 105.326 97.574Z" fill="#191919"/>
<path d="M92.736 93.1242C92.2244 93.1143 91.7166 93.2128 91.2458 93.4133C90.775 93.6137 90.352 93.9116 90.0046 94.2872C89.7012 94.5906 89.9035 95.2479 90.5103 94.9445C91.1637 94.4754 91.9338 94.1955 92.736 94.1355C93.6461 94.0344 93.4981 93.1785 92.736 93.1242Z" fill="#191919"/>
<path d="M105.022 124.83C104.881 123.601 104.418 122.431 103.682 121.437C102.945 120.443 101.96 119.66 100.826 119.167C100.274 118.964 100.219 119.521 100.623 119.718C103.202 121.083 104.213 123.713 104.315 126.495C104.416 128.77 103.354 132.31 106.034 133.574C106.493 133.776 106.844 133.022 106.388 132.815C104.112 131.758 105.557 128.272 105.022 124.83Z" fill="#191919"/>
<path d="M93.3923 120.026C93.6396 119.718 93.3417 119.318 92.9877 119.567C91.0231 121.249 89.5838 123.46 88.8415 125.938C88.4876 127.253 88.5887 128.618 88.2853 129.883C87.9313 131.349 86.6672 131.905 85.5043 132.714C85.0998 132.967 85.4537 133.675 85.9088 133.473C87.0425 133.009 88.0112 132.217 88.6898 131.197C89.7517 129.377 88.6898 127.102 90.8641 123.308C91.6236 122.153 92.4687 121.056 93.3923 120.026Z" fill="#191919"/>
<path d="M90.3581 131C90.5319 129.437 90.4087 127.813 91.2683 126.397C91.6554 125.812 92.1621 125.316 92.7549 124.942C93.3477 124.567 94.0132 124.322 94.7075 124.223C95.3143 124.122 95.2592 123.515 94.7075 123.515C93.9058 123.542 93.1216 123.757 92.4188 124.143C91.7159 124.53 91.1141 125.077 90.6624 125.74C89.79 127.328 89.4531 129.154 89.7017 130.949C89.7008 131.303 90.3131 131.404 90.3581 131Z" fill="#191919"/>
<path d="M96.5318 130.547C96.3479 131.865 96.6329 151.431 96.6835 152.493C96.6835 153.049 97.5936 152.999 97.5936 152.442C97.5936 146.834 97.3408 136.716 97.2397 130.598C97.1854 130.292 96.5842 130.14 96.5318 130.547Z" fill="#191919"/>
<path d="M101.938 139.848C101.358 139.63 100.842 139.271 100.436 138.803C100.03 138.335 99.7465 137.773 99.6121 137.168C99.0559 134.489 101.837 131.91 100.421 129.129C100.174 128.609 99.7629 128.184 99.2517 127.918C98.7404 127.653 98.1565 127.561 97.5886 127.658C97.5149 127.658 97.4442 127.687 97.392 127.739C97.3398 127.791 97.3105 127.862 97.3105 127.936C97.3105 128.01 97.3398 128.08 97.392 128.133C97.4442 128.185 97.5149 128.214 97.5886 128.214C97.9167 128.226 98.2388 128.305 98.5356 128.446C98.8323 128.586 99.0974 128.785 99.3149 129.031C99.5325 129.277 99.6978 129.565 99.8011 129.876C99.9043 130.188 99.9432 130.517 99.9155 130.844C99.9155 132.311 99.1065 133.676 98.8031 135.092C98.4945 136.205 98.6141 137.393 99.1382 138.423C99.6623 139.452 100.553 140.248 101.635 140.654C102.191 140.91 102.492 140.058 101.938 139.848Z" fill="#191919"/>
<path d="M85.0993 133.932C85.046 133.528 85.0993 132.162 84.3914 132.369C83.771 132.484 83.1618 132.653 82.5711 132.875C81.7621 133.229 81.3576 134.139 82.47 133.836C82.9756 133.684 83.5318 133.532 84.0329 133.376C84.2904 136.653 85.6033 139.758 87.7746 142.226C84.8123 144.756 81.6101 146.992 78.2134 148.9C77.2527 149.456 77.5055 150.316 78.3145 149.861C81.9897 147.943 85.4053 145.564 88.4788 142.782C88.6305 142.63 88.8328 142.428 88.6305 142.125C86.8185 139.292 85.5323 137.222 85.0993 133.932Z" fill="#191919"/>
<path d="M128.132 145.209C127.572 139.9 123.784 129.533 121.66 124.931C118.423 118.004 113.316 115.475 106.136 113.907C106.042 113.887 105.944 113.905 105.863 113.957C105.782 114.009 105.725 114.091 105.705 114.185C105.685 114.279 105.703 114.377 105.755 114.458C105.807 114.539 105.889 114.596 105.983 114.616C112.204 116.79 116.805 117.599 120.194 124.021C122.621 128.623 127.98 142.731 127.222 148.142C126.615 152.338 124.39 152.136 121.458 152.338C116.198 152.692 107.198 145.664 103.455 142.226C105.983 140.455 107.602 136.41 108.057 133.578C112.083 134.683 115.969 136.244 119.641 138.23C120.148 138.483 120.552 137.826 120.047 137.573C117.708 136.261 115.274 135.129 112.764 134.185C112.546 132.978 112.024 131.847 111.247 130.898C110.843 130.544 110.641 131 110.792 131.252C111.286 132.053 111.661 132.922 111.905 133.831C110.707 133.373 109.472 133.017 108.214 132.769C107.253 132.618 107.253 132.769 107.101 133.578C105.432 141.619 101.639 141.416 102.701 142.58C106.444 146.776 115.444 153.097 121.311 153.198C126.818 153.347 128.735 150.924 128.132 145.209Z" fill="#191919"/>
<path d="M102.444 129.129C102.381 128.39 102.104 127.685 101.647 127.101C101.19 126.517 100.572 126.079 99.8697 125.841C99.0039 125.673 98.1217 125.606 97.2404 125.639C96.835 125.639 96.835 126.144 97.1898 126.247C98.6562 126.651 99.8697 126.094 100.932 127.612C102.095 129.23 101.437 130.797 101.639 131.758C101.667 131.834 101.716 131.9 101.78 131.948C101.845 131.996 101.922 132.025 102.002 132.03C102.083 132.036 102.163 132.018 102.233 131.978C102.303 131.939 102.361 131.88 102.398 131.809C102.568 130.925 102.584 130.018 102.444 129.129Z" fill="#191919"/>
<path d="M95.9208 127.359C95.3379 127.544 94.8015 127.852 94.3478 128.262C93.8941 128.672 93.5335 129.174 93.2906 129.736C91.1669 134.185 96.9827 137.472 88.5881 140.557C88.4851 140.588 88.398 140.657 88.3448 140.75C88.2916 140.844 88.2764 140.954 88.3025 141.058C88.3286 141.163 88.3938 141.253 88.4847 141.31C88.5756 141.367 88.6851 141.387 88.7904 141.366C90.1292 141.051 91.3758 140.427 92.431 139.545C97.1343 135.601 90.4084 131.809 96.1736 127.915C96.477 127.662 96.3262 127.263 95.9208 127.359Z" fill="#191919"/>
<path d="M91.5215 97.6245C92.1724 98.189 92.9924 96.411 92.1292 95.9559C91.3698 95.5514 91.0618 97.2255 91.5215 97.6245Z" fill="#191919"/>
<path d="M101.736 125.538C103.038 126.766 102.949 128.572 103 130.241C103 130.646 103.607 130.595 103.708 130.241C103.961 128.421 103.758 126.246 102.343 124.88C100.826 123.465 98.4997 123.262 96.5783 123.566C96.5345 123.568 96.4916 123.579 96.4525 123.599C96.4133 123.618 96.3788 123.646 96.3512 123.68C96.3237 123.714 96.3036 123.754 96.2925 123.796C96.2813 123.839 96.2792 123.883 96.2864 123.926C96.2936 123.969 96.3099 124.011 96.3343 124.047C96.3586 124.084 96.3903 124.115 96.4275 124.138C96.4646 124.161 96.5063 124.176 96.5497 124.182C96.5931 124.188 96.6373 124.185 96.6794 124.173C98.3986 124.173 100.357 124.238 101.736 125.538Z" fill="#191919"/>
<path d="M84.4424 96.3605C84.8966 96.766 85.4031 96.0571 84.9986 95.6526C82.0659 92.7199 82.0659 88.2694 84.0885 84.831C89.9033 74.8184 107.198 76.8419 110.788 87.1569C111.41 88.806 111.475 90.6135 110.973 92.303C110.471 93.9925 109.429 95.4709 108.007 96.5122C107.704 96.765 107.957 97.3212 108.361 97.119C112.406 95.0964 113.114 89.7872 111.445 85.9949C106.49 74.7182 87.2235 74.1114 82.521 85.9949C81.1052 89.4838 81.5557 93.7864 84.4424 96.3605Z" fill="#191919"/>
<path d="M86.0097 93.3266C89.0904 93.6704 92.8873 91.5063 94.4042 88.8769C94.4503 88.803 94.4667 88.7143 94.45 88.6287C94.4333 88.5431 94.3849 88.4671 94.3144 88.4158C94.2439 88.3645 94.1566 88.3419 94.07 88.3524C93.9835 88.3629 93.9042 88.4058 93.848 88.4724C91.5726 91.2534 89.4986 92.1636 86.0097 92.5681C85.9197 92.5828 85.8379 92.6291 85.7789 92.6985C85.7199 92.768 85.6875 92.8562 85.6875 92.9473C85.6875 93.0385 85.7199 93.1267 85.7789 93.1961C85.8379 93.2656 85.9197 93.3118 86.0097 93.3266Z" fill="#191919"/>
<path d="M95.7184 101.114C96.0733 100.863 96.0723 100.508 95.7184 100.356C95.4656 100.255 94.1003 100.609 93.9992 100.356C93.797 99.8503 94.5554 97.6752 94.7071 96.6133C94.8082 95.8549 94.4543 95.8549 94.1003 96.4616C93.7464 97.0684 92.6294 100.154 93.1387 101.064C93.6453 101.822 95.2146 101.47 95.7184 101.114Z" fill="#191919"/>
<path d="M75.2384 122.301C78.3182 118 81.7115 116.234 86.7679 114.666C87.2735 114.515 87.1218 113.706 86.6162 113.857C80.8013 115.576 77.8171 117.194 74.2777 122.099C73.772 122.706 74.7318 123.008 75.2384 122.301Z" fill="#191919"/>
<path d="M106.644 93.7817C106.718 93.7596 106.782 93.7129 106.825 93.6494C106.869 93.5859 106.889 93.5094 106.883 93.4327C106.877 93.3559 106.845 93.2835 106.793 93.2274C106.74 93.1713 106.67 93.135 106.593 93.1244C103.457 93.0738 99.6651 92.6187 97.2886 90.3433C95.0638 88.2196 93.9514 84.5276 93.7951 81.5443C93.7445 81.0386 92.986 80.9927 93.0366 81.4937C93.0872 84.6287 94.5076 88.7253 96.7783 90.8995C99.0491 93.0738 103.551 94.2561 106.644 93.7817Z" fill="#191919"/>
<path d="M94.3538 103.997C95.993 104.867 98.045 104.351 98.6012 102.783C98.7023 102.429 98.2978 102.126 98.045 102.429C96.574 104.148 95.3145 103.44 94.5515 103.491C94.1515 103.44 94.0541 103.838 94.3538 103.997Z" fill="#191919"/>
<path d="M100.877 95.4502C100.494 94.347 98.3484 93.1243 97.3371 93.4783C96.9326 93.6299 96.7809 94.439 97.3371 94.5401C98.4608 94.6864 99.5162 95.1613 100.371 95.9053C100.624 96.1076 101.018 95.8584 100.877 95.4502Z" fill="#191919"/>
<path d="M97.6405 97.9783C98.6031 97.7871 98.5507 96.0064 97.7922 96.2086C97.0834 96.3603 96.8324 98.1392 97.6405 97.9783Z" fill="#191919"/>
<path d="M125.554 66.0202C126.06 65.8713 126.565 65.7168 127.071 65.5606C126.767 66.8247 126.413 68.0888 126.11 69.3529C125.604 71.1732 126.312 71.3249 126.717 70.6675C127.981 68.6955 129.296 66.673 130.661 64.7515C132.533 62.0716 132.987 62.3245 129.548 62.4256C130.155 61.2617 130.762 60.0987 131.318 58.9321C131.874 57.7654 128.133 59.0838 127.779 59.3872C127.708 59.4325 127.656 59.5026 127.634 59.5838C127.611 59.665 127.62 59.7517 127.657 59.8271C127.695 59.9024 127.759 59.9612 127.838 59.992C127.916 60.0228 128.003 60.0235 128.082 59.9939C128.487 59.8928 129.346 59.4883 130.307 59.286L128.638 62.6242C128.537 62.877 128.638 63.1804 128.942 63.1804C129.599 63.1804 130.307 63.1298 130.964 63.1298C129.7 64.9501 128.436 66.821 127.172 68.6413L128.234 65.0007C128.261 64.9279 128.267 64.8493 128.252 64.7732C128.237 64.6971 128.202 64.6266 128.15 64.5692C128.097 64.5119 128.031 64.4699 127.956 64.4479C127.882 64.4259 127.803 64.4247 127.728 64.4445C127.222 64.5962 126.666 64.7984 126.165 64.9501C126.469 63.4838 126.873 62.0174 127.227 60.4996C127.328 60.0951 126.721 59.9939 126.57 60.3479C125.981 61.9985 125.508 63.6881 125.154 65.4043C124.998 65.7168 125.201 66.1232 125.554 66.0202Z" fill="#191919"/>
<path d="M64.4673 104.254C64.7211 104.456 65.1256 104.254 64.9739 103.95C64.619 102.939 64.3156 101.928 65.075 100.866C65.3858 100.45 65.8043 100.126 66.2854 99.9297C66.7666 99.7335 67.2921 99.6723 67.8055 99.7527C67.8885 99.7524 67.9691 99.725 68.0352 99.6749C68.1014 99.6248 68.1495 99.5545 68.1723 99.4747C68.1951 99.3949 68.1914 99.3099 68.1617 99.2323C68.132 99.1548 68.078 99.089 68.0077 99.0449C66.5919 98.3875 63.81 99.6011 63.81 102.282C63.7705 102.639 63.8088 103 63.9223 103.34C64.0358 103.68 64.2217 103.992 64.4673 104.254Z" fill="#191919"/>
<path d="M62.5455 110.216C62.5507 110.326 62.5982 110.431 62.6782 110.507C62.7583 110.584 62.8647 110.626 62.9753 110.626C63.086 110.626 63.1924 110.584 63.2725 110.507C63.3525 110.431 63.4 110.326 63.4051 110.216C63.5144 109.284 63.4457 108.341 63.2029 107.435C62.6972 105.665 61.0286 105.008 61.0792 103.238C61.1297 102.176 61.332 101.114 61.3826 100.103C61.3815 100.02 61.3496 99.9412 61.293 99.8809C61.2365 99.8206 61.1594 99.7837 61.077 99.7773C60.9946 99.771 60.9128 99.7957 60.8477 99.8466C60.7826 99.8976 60.7389 99.971 60.7252 100.053C60.523 101.064 60.3207 102.075 60.2196 103.086C60.0173 105.311 61.5343 105.918 62.141 107.334C62.5493 108.236 62.6897 109.236 62.5455 110.216Z" fill="#191919"/>
<path d="M63.1026 91.3545L63.8611 98.7874C63.9116 99.0908 64.4678 99.0908 64.5184 98.7369C64.7712 96.866 64.1139 93.1748 63.7094 91.1982C63.6588 90.8994 63.052 91.0006 63.1026 91.3545Z" fill="#191919"/>
<path d="M68.2097 105.008C68.4065 105.415 68.9176 105.109 68.8165 104.755C68.6648 103.895 68.3109 102.884 69.9795 102.884C71.3447 102.884 71.5423 104.098 71.4964 105.21C71.3953 107.283 69.6255 109.053 69.6255 110.924C69.6273 111.03 69.6674 111.131 69.7383 111.209C69.8092 111.288 69.9061 111.338 70.0111 111.35C70.1161 111.362 70.222 111.336 70.3091 111.276C70.3963 111.217 70.4588 111.127 70.4851 111.025C70.9907 108.952 71.193 109.154 71.9009 107.435C72.5125 106.154 72.6031 104.686 72.1537 103.339C71.1424 101.064 66.6009 101.69 68.2097 105.008Z" fill="#191919"/>
<path d="M65.9344 102.378C65.8367 103.128 65.9783 103.889 66.3389 104.553C66.38 104.612 66.4408 104.656 66.5107 104.675C66.5806 104.694 66.655 104.688 66.7209 104.658C66.7868 104.628 66.84 104.575 66.871 104.51C66.902 104.444 66.9089 104.37 66.8905 104.3C66.6882 103.238 66.486 101.974 67.4972 101.418C67.9423 101.145 68.4485 100.989 68.9696 100.962C69.4907 100.936 70.0101 101.04 70.4805 101.266C70.8345 101.468 71.1379 100.912 70.885 100.659C70.03 99.5973 66.2377 100.002 65.9344 102.378Z" fill="#191919"/>
<path d="M43.0774 93.8827C42.774 93.9333 42.4706 93.9839 42.2178 94.0344C41.7627 92.6186 40.3975 91.1523 38.7289 91.759C36.9591 92.4164 36.9076 94.3378 37.0097 95.1974C35.5387 95.3491 34.0255 95.5513 32.5591 95.703C32.476 95.7226 32.4026 95.7712 32.3521 95.84C32.3015 95.9088 32.2771 95.9933 32.2831 96.0785C32.2892 96.1637 32.3254 96.2439 32.3853 96.3048C32.4451 96.3657 32.5247 96.4033 32.6097 96.4109C34.1266 96.3098 35.6435 96.2087 37.1614 96.1581C38.0513 100.708 43.1914 99.4733 42.4706 94.9446C42.7234 94.894 42.9762 94.894 43.1785 94.8434C43.7402 98.7782 48.3149 98.8996 47.881 94.2367C48.2855 94.2367 49.1451 94.0344 48.7405 93.4277C48.5383 93.1243 48.0832 93.3265 47.7798 93.3771C46.9708 90.0399 43.2291 90.4444 43.0774 93.8827ZM37.8187 95.6019C37.667 94.4389 37.9198 93.2254 38.6783 92.7703C39.9424 91.9613 41.2065 93.2254 41.611 94.8434C42.4476 98.7148 38.3097 99.5349 37.8187 95.6019ZM46.0607 96.9166C44.2036 97.5601 42.956 93.3412 44.5943 92.113C46.7704 90.4094 48.1954 96.1728 46.0588 96.9166H46.0607Z" fill="#191919"/>
<path d="M43.1789 99.5974C42.016 99.6985 42.1171 100.204 42.8755 100.305C43.3812 100.356 44.1902 100.255 44.4384 99.7996C44.8429 99.0917 44.2867 97.9278 43.5788 97.2705C43.0732 96.7649 42.8204 97.2199 43.0272 97.4728C43.4851 98.1807 44.5947 99.3445 43.1789 99.5974Z" fill="#191919"/>
<path d="M46.8699 98.2313C46.8221 97.7256 46.3183 97.7256 46.3183 98.2313C46.4194 101.671 46.0654 107.182 41.1607 107.587C39.2384 107.738 37.1653 106.828 35.4966 105.867C35.1933 105.665 34.7887 106.171 35.1427 106.424C36.8134 107.626 38.8005 108.312 40.8573 108.396C40.9585 109.205 41.1607 110.064 41.2619 110.873C41.5147 112.441 42.1214 111.682 42.0203 111.177C41.9138 110.229 41.7789 109.285 41.6158 108.345C46.3642 107.587 47.244 102.174 46.8699 98.2313Z" fill="#191919"/>
<path d="M39.9424 104.148C40.2223 104.282 40.5272 104.355 40.8372 104.363C41.1472 104.371 41.4554 104.313 41.7417 104.194C42.028 104.075 42.2859 103.896 42.4986 103.671C42.7113 103.445 42.8741 103.177 42.9763 102.884C43.3302 102.126 43.128 101.974 42.4706 101.974C41.8314 102.022 41.1896 101.924 40.5938 101.688C39.9979 101.451 39.4637 101.082 39.0314 100.609C38.1984 99.9138 37.9943 103.406 39.9424 104.148ZM42.3695 102.732C41.5605 104.295 39.1325 103.541 39.0829 101.721C40.0419 102.401 41.194 102.756 42.3695 102.732Z" fill="#191919"/>
<path d="M39.7912 95.4503C39.6854 95.7527 39.8408 96.5627 40.3474 96.4615C40.7519 96.411 40.7519 95.8548 40.6002 95.5008C40.3979 94.9952 39.9851 94.8913 39.7912 95.4503Z" fill="#191919"/>
<path d="M45.4035 94.5401C45.295 94.8922 45.4541 95.8042 45.9551 95.6019C46.2079 95.5008 46.309 95.248 46.2585 94.7929C46.162 94.233 45.5929 93.9297 45.4035 94.5401Z" fill="#191919"/>
<path d="M36.6046 92.467C37.3709 91.5844 38.4311 91.0095 39.5888 90.8489C39.7089 90.8245 39.8162 90.7579 39.8913 90.6611C39.9664 90.5644 40.0043 90.4439 39.9982 90.3216C39.9921 90.1992 39.9423 90.0831 39.8579 89.9943C39.7735 89.9056 39.6601 89.85 39.5383 89.8376C38.9532 89.8426 38.3758 89.9713 37.8441 90.2153C37.3123 90.4593 36.8382 90.8131 36.4529 91.2534C35.3405 92.467 36.293 92.8126 36.6046 92.467Z" fill="#191919"/>
<path d="M23.1541 91.8097C23.0712 93.3789 23.436 94.9394 24.2061 96.3091C24.9761 97.6789 26.1198 98.8015 27.5036 99.546C27.7564 101.012 28.7171 102.732 30.5374 102.732C31.0812 105.435 31.436 108.172 31.5993 110.924C31.5958 110.972 31.6023 111.021 31.6185 111.067C31.6347 111.113 31.6602 111.155 31.6934 111.191C31.7266 111.227 31.7668 111.255 31.8115 111.275C31.8562 111.294 31.9045 111.304 31.9532 111.304C32.002 111.304 32.0502 111.294 32.0949 111.275C32.1396 111.255 32.1798 111.227 32.213 111.191C32.2462 111.155 32.2717 111.113 32.2879 111.067C32.3041 111.021 32.3107 110.972 32.3072 110.924C32.2548 108.291 31.9672 105.668 31.4476 103.086C31.3464 102.631 31.3464 101.72 30.8408 101.771C29.8295 101.872 28.8182 101.012 28.5149 99.3943C28.1609 97.6751 29.1216 96.2593 30.4869 96.9121C30.6891 97.0132 30.8408 96.8615 30.9419 96.7604C32.9139 94.839 35.3916 91.2995 35.3916 87.4051C38.0209 88.569 44.3423 89.0241 47.2245 88.0625C47.0222 84.2196 43.331 78.3036 35.1387 79.1126C25.9867 80.0274 23.2442 87.0052 23.1541 91.8097Z" fill="#191919"/>
<path d="M44.19 90.2422C44.8327 90.0463 45.5192 90.0463 46.162 90.2422C46.6676 90.3938 46.617 89.8882 46.2125 89.5343C45.8658 89.351 45.4859 89.2387 45.0952 89.204C44.7045 89.1692 44.3108 89.2128 43.9372 89.332C43.1787 89.686 43.4389 90.563 44.19 90.2422Z" fill="#191919"/>
<path d="M24.8728 83.3139C25.4433 82.0585 26.4497 81.0525 27.7053 80.4824C26.6434 72.5935 15.6196 71.6833 12.2272 79.5235C8.83479 87.3637 15.6664 91.1072 17.0822 93.9857C18.4475 96.8679 19.2565 101.318 18.3463 103.087C17.4362 104.806 18.5486 104.908 19.8127 102.536C20.824 100.614 22.6443 94.997 21.1779 90.3488C19.6141 85.5388 23.5075 82.96 24.8728 83.3139Z" fill="#191919"/>
<path d="M77.008 123.515C70.5864 123.418 59.967 123.161 54.1521 123.667C49.6005 124.071 48.4881 125.487 47.4262 129.432C45.9093 135.196 43.4822 144.855 42.6732 150.366C36.5629 150.276 30.4522 150.512 24.3672 151.074C22.0918 151.378 21.9401 153.046 22.648 153.754C23.002 154.108 23.457 153.602 23.1996 153.248C23.1495 153.159 23.1176 153.06 23.1058 152.958C23.0939 152.856 23.1023 152.753 23.1305 152.654C23.1587 152.556 23.2061 152.464 23.2701 152.383C23.334 152.303 23.4131 152.236 23.503 152.187C24.7671 151.327 40.0898 151.175 42.2641 151.175C43.0731 151.175 43.3259 151.074 43.5282 150.215C45.0451 143.085 47.0217 134.893 48.8374 128.168C49.389 125.993 51.0622 124.83 53.743 124.627C60.5186 124.071 70.0761 124.375 77.2562 124.476C79.7853 124.526 81.3013 125.538 81.1 128.37C80.8472 132.162 77.509 143.793 76.2955 148.091C75.9108 149.777 75.3163 151.407 74.5258 152.945C74.2224 153.451 74.9808 154.008 75.2842 153.497C76.1926 151.597 76.9206 149.616 77.4585 147.581C79.0765 141.918 81.3528 133.725 82.0607 128.719C82.3733 125.285 80.4473 123.567 77.008 123.515Z" fill="#191919"/>
<path d="M63.2031 135.652C62.998 135.953 63.3547 136.41 63.7087 136.157C64.0641 135.868 64.5062 135.705 64.9645 135.696C65.4229 135.687 65.8711 135.831 66.2378 136.107C66.8952 136.713 67.0468 137.977 65.8333 140.152C64.3155 142.934 62.2423 143.338 61.3285 142.226C60.2161 140.861 61.2779 138.079 62.3398 136.966C62.5926 136.663 62.1375 136.208 61.8801 136.461C59.6553 138.483 59.2508 141.467 60.5149 142.833C62.5374 145.057 65.4711 143.237 66.5826 140.861C67.2399 139.444 68.2512 137.522 67.341 136.056C67.1529 135.687 66.8749 135.371 66.5327 135.138C66.1905 134.905 65.795 134.761 65.3828 134.721C64.9706 134.681 64.5548 134.745 64.1739 134.907C63.7929 135.07 63.4591 135.326 63.2031 135.652Z" fill="#191919"/>
<path d="M69.2713 73.5045C70.4398 72.7543 68.9173 70.7731 67.7084 71.9866C66.6925 72.9483 68.3152 74.1177 69.2713 73.5045Z" fill="#191919"/>
<path d="M56.9337 74.3634C58.252 74.8589 59.2596 73.4027 58.4506 72.6442C57.3382 71.5824 55.4213 73.7952 56.9337 74.3634Z" fill="#191919"/>
<path d="M62.5465 74.0608C64.3171 74.6125 64.9735 72.3417 63.2544 71.9372C62.142 71.6843 61.081 73.603 62.5465 74.0608Z" fill="#191919"/>
<path d="M129.7 83.061C129.452 82.5526 128.841 82.7071 128.891 83.1622C129.094 84.7251 132.228 84.9825 133.139 83.2633C134.756 80.1283 129.645 79.2182 128.993 81.2407C128.74 81.9992 129.396 81.9486 129.751 81.3924C130.205 80.634 133.188 80.9328 132.38 82.7577C132.026 83.6678 130.114 83.916 129.7 83.061Z" fill="#38A1FF"/>
<path d="M121.053 72.4934C121.003 75.2745 123.935 76.2857 126.16 76.7408C134.302 78.4094 137.993 74.0609 136.982 71.0262C136.976 70.9853 136.962 70.9461 136.94 70.9112C136.919 70.8763 136.889 70.8465 136.855 70.8238C136.821 70.801 136.782 70.7859 136.741 70.7794C136.701 70.7729 136.659 70.7752 136.619 70.7862C136.579 70.7971 136.543 70.8164 136.511 70.8428C136.479 70.8691 136.454 70.902 136.436 70.9391C136.418 70.9762 136.408 71.0167 136.407 71.0579C136.406 71.0991 136.414 71.14 136.43 71.1778C136.734 74.8699 132.435 76.2342 129.451 76.2857C127.126 76.3363 120.704 75.1228 122.069 71.5824C122.322 70.9756 121.867 70.6216 121.518 70.9756C119.444 73.1508 116.309 72.544 114.792 69.9137C113.174 67.0822 114.033 63.0876 117.573 63.5427C117.68 63.5489 117.786 63.5154 117.871 63.4486C117.955 63.3818 118.012 63.2864 118.031 63.1803C118.049 63.0743 118.029 62.9651 117.972 62.8735C117.916 62.7818 117.827 62.7141 117.724 62.6831C114.741 61.4696 114.231 56.8168 117.825 54.6425C121.265 52.5694 124.147 53.7323 126.473 56.4628C126.877 56.9684 127.383 56.8673 127.434 55.856C127.686 53.2267 131.024 51.7098 133.401 52.3166C134.032 52.521 134.615 52.849 135.118 53.2813C135.621 53.7136 136.032 54.2416 136.329 54.8346C136.625 55.4276 136.801 56.0737 136.845 56.7352C136.889 57.3967 136.801 58.0604 136.587 58.6876C136.435 59.1473 136.89 59.2953 137.244 59.1942C140.379 58.3842 143.716 61.8235 144.019 64.8068C144.525 69.6609 140.177 69.8126 137.547 69.2564C137.042 69.1553 137.143 69.7161 137.547 69.8632C141.34 71.1273 145.284 69.3575 144.828 64.8068C144.525 61.4696 141.036 57.828 137.497 58.3842C137.743 57.2783 137.669 56.1252 137.284 55.0597C136.899 53.9941 136.219 53.0602 135.322 52.3671C132.085 49.9906 127.282 52.0637 126.625 55.3504C125.602 54.0813 124.167 53.2097 122.57 52.8865C120.972 52.5633 119.312 52.8089 117.876 53.5807C114.438 55.3504 112.82 59.9526 116.057 62.582C113.679 63.1382 112.617 65.5147 112.921 67.9418C113.67 72.2912 118.069 74.5666 121.053 72.4934Z" fill="#38A1FF"/>
<path d="M175.871 155.07C132.668 154.626 61.3971 153.783 7.07942 156.233C6.72547 156.233 6.77604 157.345 7.12998 157.345C59.3608 156.024 107.102 155.009 175.922 156.536C176.374 156.536 176.323 155.075 175.871 155.07Z" fill="#38A1FF"/>
<path d="M58.7031 122.457C61.2313 122.457 66.1875 122.457 69.5753 122.406C70.3159 118.953 70.8379 115.457 71.1382 111.939C68.4583 112.293 63.401 112.04 61.1762 111.18C60.6522 114.999 59.8252 118.77 58.7031 122.457Z" fill="#38A1FF"/>
<path d="M21.2364 153.347C21.0921 152.723 21.1635 152.068 21.4389 151.489C21.7144 150.911 22.1777 150.443 22.7533 150.161C24.1185 149.504 38.1266 149.403 41.416 149.251C41.5677 148.442 42.0228 146.268 42.6801 143.436C34.4025 141.775 25.9897 140.878 17.5479 140.756C16.7895 140.756 17.0929 140.048 17.5479 140.048C18.7615 139.997 19.975 139.997 21.1886 139.997C22.1237 136.299 23.5169 132.732 25.3357 129.379C25.538 129.025 25.9931 129.227 25.8414 129.581C24.2746 132.947 23.0217 136.451 22.0987 140.048C29.0934 140.315 36.0579 141.11 42.9329 142.425C44.0453 137.621 45.5622 131.452 46.978 127.305C48.1916 123.613 50.113 122.703 52.6927 122.552C54.3771 122.479 56.0635 122.462 57.7491 122.501C57.9514 121.894 58.1536 121.287 58.3559 120.529C55.8782 116.484 50.5681 112.893 43.3374 112.337C40.8598 115.27 33.9316 114.967 30.1393 111.376C27.9145 111.629 20.5781 113.247 16.1827 118.203C10.013 125.282 1.61936 141.515 5.66448 150.06C7.67969 154.412 18.9564 153.602 21.2364 153.347Z" fill="#38A1FF"/>
<path d="M90.9138 34.9215C91.0692 33.6574 90.2059 27.2348 89.5486 26.628C89.5099 26.5875 89.4618 26.5572 89.4085 26.5398C89.3552 26.5225 89.2984 26.5186 89.2432 26.5287C89.1881 26.5387 89.1363 26.5623 89.0925 26.5972C89.0487 26.6322 89.0143 26.6776 88.9924 26.7292C88.7901 27.1842 90.0037 34.1115 90.1554 34.9215C90.1749 35.0074 90.2231 35.0842 90.292 35.1393C90.3609 35.1943 90.4464 35.2242 90.5346 35.2242C90.6228 35.2242 90.7083 35.1943 90.7772 35.1393C90.8461 35.0842 90.8943 35.0074 90.9138 34.9215Z" fill="#38A1FF"/>
<path d="M98.0443 60.7099C98.0817 60.6336 98.0987 60.5488 98.0936 60.464C98.0884 60.3791 98.0614 60.297 98.0151 60.2257C97.9688 60.1544 97.9048 60.0963 97.8294 60.0571C97.7539 60.0179 97.6696 59.9989 97.5846 60.002C96.725 60.002 95.5621 61.6716 91.3138 61.0639C90.8541 61.0133 90.5553 61.6716 91.0104 61.8738C93.6958 62.8833 97.6343 61.6697 98.0443 60.7099Z" fill="#38A1FF"/>
<path d="M103.202 51.8108C105.025 52.8695 106.937 53.7663 108.917 54.4907C109.004 54.5042 109.093 54.4897 109.171 54.4493C109.249 54.4089 109.313 54.3447 109.352 54.2659C109.391 54.1872 109.405 54.0979 109.39 54.0111C109.376 53.9243 109.334 53.8444 109.271 53.7828C107.455 52.7238 105.541 51.8433 103.556 51.1535C103.469 51.1066 103.367 51.0962 103.272 51.1246C103.177 51.1531 103.097 51.218 103.05 51.3052C103.004 51.3924 102.993 51.4946 103.022 51.5894C103.05 51.6843 103.115 51.7639 103.202 51.8108Z" fill="#38A1FF"/>
<path d="M93.5445 62.9863C93.4408 62.9642 93.3326 62.9817 93.241 63.0352C93.1495 63.0887 93.0813 63.1745 93.0496 63.2757C93.018 63.3769 93.0253 63.4862 93.0701 63.5823C93.1148 63.6784 93.1938 63.7544 93.2916 63.7953C94.5557 64.5032 96.7852 63.6942 95.921 62.9357C95.5201 62.5818 94.9079 63.251 93.5445 62.9863Z" fill="#38A1FF"/>
<path d="M102.09 39.9274C102.845 39.6148 106.894 34.871 107.552 33.9608C107.804 33.6069 107.248 33.2529 106.945 33.5058C105.27 35.1218 103.683 36.8266 102.191 38.6127C101.23 39.6746 101.734 40.0745 102.09 39.9274Z" fill="#38A1FF"/>
<path d="M89.3466 55.9063C89.3876 55.9967 89.4589 56.0699 89.5482 56.1131C89.6376 56.1563 89.7392 56.1667 89.8355 56.1427C89.9318 56.1186 90.0166 56.0615 90.0751 55.9814C90.1336 55.9012 90.1621 55.8031 90.1557 55.704C89.8017 53.4792 87.7791 52.2105 86.6621 50.3948C84.3362 46.6016 87.4206 42.2531 91.3646 41.2418C94.6016 40.3822 98.2422 41.5452 99.1018 45.4386C99.8603 48.7768 98.3433 51.2038 97.2815 54.2377C97.0792 54.895 97.7412 55.0973 98.04 54.4905C99.4052 51.9163 100.72 48.8273 100.315 45.8937C99.6074 41.1912 95.6634 39.1181 91.2635 40.18C87.4206 41.1407 84.1339 44.4779 84.7913 48.6756C85.3521 52.114 88.3657 53.0637 89.3466 55.9063Z" fill="#38A1FF"/>
<path d="M90.4636 59.7493C91.6272 60.1631 92.8699 60.3053 94.0969 60.1651C95.3238 60.0248 96.5024 59.6059 97.5426 58.9402C97.9977 58.5863 97.7954 57.8278 97.1381 58.0806C94.4582 59.0414 93.3963 59.2942 90.7661 58.9402C90.3073 58.8897 90.004 59.5516 90.4636 59.7493Z" fill="#38A1FF"/>
<path d="M76.5527 56.0581C76.2006 56.5178 76.5527 57.12 77.564 56.4121C78.9686 55.5378 80.3044 54.5574 81.5594 53.4793C81.6266 53.4206 81.6702 53.3394 81.682 53.251C81.6937 53.1625 81.6729 53.0727 81.6234 52.9985C81.5739 52.9242 81.4991 52.8705 81.4129 52.8473C81.3267 52.8242 81.235 52.8331 81.1549 52.8726C79.5298 53.7965 77.9897 54.8625 76.5527 56.0581Z" fill="#38A1FF"/>
<path d="M80.3513 42.5567C80.4348 42.5784 80.5233 42.5702 80.6013 42.5333C80.6793 42.4964 80.7419 42.4333 80.778 42.3549C80.8142 42.2766 80.8217 42.188 80.7991 42.1047C80.7766 42.0214 80.7254 41.9487 80.6547 41.8993C78.6322 40.5879 76.5198 39.4205 74.3333 38.4058C74.2424 38.3773 74.1443 38.3821 74.0566 38.4194C73.969 38.4566 73.8974 38.5238 73.8548 38.609C73.8122 38.6942 73.8014 38.7918 73.8242 38.8843C73.847 38.9768 73.902 39.0581 73.9793 39.1137C76.0192 40.4106 78.1486 41.5611 80.3513 42.5567Z" fill="#38A1FF"/>
<path d="M90.4632 57.827C92.142 58.3538 96.3802 57.5236 97.2903 56.8157C97.8971 56.3101 97.3409 55.6022 96.5824 55.9056C94.6952 56.6221 92.6824 56.9489 90.6655 56.8663C89.7508 56.8157 89.6037 57.5604 90.4632 57.827Z" fill="#38A1FF"/>
<path d="M94.5559 54.8953C94.4911 52.2305 94.7286 49.567 95.2638 46.9558C95.2764 46.8715 95.2569 46.7856 95.209 46.7152C95.161 46.6447 95.0883 46.595 95.0053 46.5758C94.9223 46.5566 94.8351 46.5695 94.7612 46.6118C94.6872 46.6542 94.632 46.7228 94.6064 46.8041C93.9412 49.4459 93.7022 52.1771 93.8985 54.8943C93.8961 54.939 93.9028 54.9836 93.9182 55.0255C93.9336 55.0675 93.9574 55.1059 93.9881 55.1383C94.0188 55.1708 94.0558 55.1967 94.0968 55.2144C94.1378 55.2321 94.182 55.2412 94.2267 55.2413C94.2714 55.2414 94.3156 55.2323 94.3567 55.2147C94.3978 55.1972 94.4349 55.1714 94.4657 55.139C94.4965 55.1066 94.5203 55.0683 94.5358 55.0264C94.5514 54.9845 94.5582 54.9399 94.5559 54.8953Z" fill="#38A1FF"/>
<path d="M93.3424 46.5016C92.0058 46.8585 90.6292 47.0438 89.2458 47.0532C89.1694 47.0537 89.0947 47.0748 89.0293 47.1142C88.9639 47.1536 88.9103 47.2098 88.8741 47.277C88.8379 47.3442 88.8205 47.4199 88.8236 47.4962C88.8267 47.5724 88.8503 47.6465 88.8918 47.7105C89.9285 50.0539 90.8402 52.4507 91.6232 54.8906C91.7749 55.3503 92.23 55.2445 92.1288 54.7895C91.6562 52.4024 90.9094 50.0779 89.9031 47.8622C91.1612 47.8028 92.4044 47.5644 93.5952 47.1543C93.6721 47.1143 93.7316 47.0474 93.7623 46.9662C93.7929 46.8851 93.7925 46.7955 93.7612 46.7147C93.7299 46.6338 93.6698 46.5674 93.5925 46.528C93.5152 46.4887 93.4262 46.4793 93.3424 46.5016Z" fill="#38A1FF"/>
<path d="M56.6808 81.7465C56.8057 84.1654 56.425 86.5838 55.5631 88.8473C54.7013 91.1109 53.377 93.1699 51.6749 94.8932C50.7142 95.8539 51.5232 96.0561 52.484 95.7022C57.0347 93.9324 61.1258 88.7243 62.2934 84.0715C62.4956 83.2625 61.7877 83.3131 61.6866 83.8187C61.0659 86.1062 59.9829 88.2421 58.5044 90.0947C57.026 91.9473 55.1835 93.4771 53.0907 94.5898C56.1863 91.106 57.8022 86.553 57.5955 81.8973C57.545 81.1388 57.4438 81.0883 56.5337 80.9366C48.7459 79.723 45.8638 68.5475 58.1517 64.0473C69.125 60.0518 77.5701 67.4856 75.6478 74.97C74.232 80.5826 68.2654 81.4422 63.3598 81.4422C62.7025 81.4422 62.7531 82.2512 63.4104 82.2512C68.4668 82.3524 74.232 81.6445 76.1029 76.5881C80.148 65.817 68.8217 59.9479 59.2641 62.6315C43.786 67.082 47.6795 81.3926 56.6808 81.7465Z" fill="#38A1FF"/>
</svg>
