<svg width="208" height="211" viewBox="0 0 208 211" fill="none" xmlns="http://www.w3.org/2000/svg">
<path d="M109.493 34.1264C109.493 34.1264 96.2412 69.493 55.727 63.8638C15.2129 58.2345 -5.86602 115.219 33.1438 133.344C72.1535 151.47 47.1796 176.256 73.1066 186.719C102.575 198.612 110.79 152.783 132.181 155.782C179.392 162.399 207.402 144.862 193.449 124.194C168.955 87.9146 152.751 90.2216 158.029 65.5952C163.306 40.9689 123.888 5.86186 109.493 34.1264Z" fill="#DEE9FF"/>
<path d="M96.6747 69.2655C96.3501 69.2446 96.0461 69.0968 95.8267 68.8532C95.6074 68.6095 95.4897 68.2891 95.4985 67.9593L95.5888 55.5306C95.5868 55.3577 95.619 55.1862 95.6837 55.0263C95.7484 54.8664 95.8442 54.7213 95.9653 54.5998C96.0865 54.4782 96.2305 54.3826 96.3888 54.3187C96.5472 54.2548 96.7166 54.2238 96.8869 54.2277L97.8663 54.2722C98.0361 54.2835 98.2018 54.3296 98.3536 54.4076C98.5053 54.4856 98.64 54.5939 98.7494 54.7261C98.8588 54.8583 98.9407 55.0115 98.9902 55.1766C99.0397 55.3418 99.0558 55.5153 99.0375 55.6869L97.9678 68.0712C97.9454 68.4009 97.7984 68.7092 97.5575 68.9317C97.3166 69.1541 97.0003 69.2737 96.6747 69.2655Z" fill="#418DF9"/>
<path d="M90.9469 70.612C90.7469 70.6822 90.5275 70.6689 90.3371 70.5751C90.1468 70.4812 90.0009 70.3145 89.9317 70.1116L87.1825 62.5148C87.1027 62.2988 87.1107 62.0596 87.2046 61.8496C87.2986 61.6395 87.4708 61.4759 87.6836 61.3946L88.2934 61.1755C88.3981 61.139 88.5091 61.1248 88.6194 61.134C88.7297 61.1432 88.837 61.1756 88.9344 61.2289C89.0318 61.2823 89.1172 61.3555 89.1853 61.4441C89.2534 61.5326 89.3026 61.6345 89.3299 61.7434L91.4694 69.5592C91.5286 69.7692 91.5077 69.9941 91.4109 70.1892C91.3141 70.3843 91.1484 70.5352 90.9469 70.612Z" fill="#418DF9"/>
<path d="M87.9311 75.2138C87.5281 75.7724 86.6668 75.8074 85.9786 75.293L73.759 66.1603C73.0292 65.6148 72.7771 64.6662 73.2045 64.0737L73.8003 63.2479C74.2279 62.6553 75.1627 62.6571 75.8572 63.2522L87.4808 73.2108C88.1355 73.7716 88.334 74.6552 87.9311 75.2138Z" fill="#418DF9"/>
<path d="M173.761 94.9467L98.3711 76.7413C95.5773 76.0666 92.7734 77.8172 92.1083 80.6513L81.0217 127.896C80.3566 130.73 82.0823 133.574 84.8761 134.249L160.266 152.454C163.06 153.129 165.864 151.379 166.529 148.544L177.616 101.3C178.281 98.4658 176.555 95.6214 173.761 94.9467Z" fill="#A2BDFF"/>
<path d="M176.569 105.76L91.0615 85.111L88.7416 94.9972L174.249 115.646L176.569 105.76Z" fill="#418DF9"/>
<path d="M162.863 142.687L145.861 138.582C145.807 138.568 145.752 138.602 145.739 138.657L144.662 143.248C144.649 143.302 144.683 143.358 144.737 143.371L161.739 147.476C161.793 147.49 161.848 147.456 161.861 147.401L162.938 142.81C162.951 142.756 162.917 142.7 162.863 142.687Z" fill="white"/>
<path d="M130.082 70.1496L42.2749 100.834C39.5596 101.783 38.1167 104.785 39.052 107.539L57.9645 163.232C58.8999 165.987 61.8593 167.45 64.5746 166.501L152.382 135.817C155.097 134.868 156.54 131.866 155.605 129.112L136.692 73.4189C135.757 70.6644 132.797 69.2007 130.082 70.1496Z" fill="#699CFF"/>
<path d="M128.258 77.3492L118.015 80.9284C116.386 81.4977 115.52 83.299 116.082 84.9517L119.61 95.3418C120.171 96.9945 121.947 97.8727 123.576 97.3034L133.818 93.7242C135.448 93.1549 136.313 91.3536 135.752 89.7009L132.224 79.3108C131.663 77.6581 129.887 76.7799 128.258 77.3492Z" fill="white"/>
<path d="M92.3833 127.143L58.3144 139.048C58.2168 139.082 58.1649 139.19 58.1986 139.289L59.9339 144.399C59.9675 144.498 60.0739 144.551 60.1715 144.517L94.2404 132.611C94.338 132.577 94.3898 132.469 94.3562 132.37L92.6209 127.26C92.5873 127.161 92.4809 127.109 92.3833 127.143Z" fill="white"/>
<path d="M110.522 132.617L61.9003 149.608C61.8027 149.642 61.7509 149.75 61.7845 149.849L63.5198 154.959C63.5535 155.058 63.6598 155.11 63.7574 155.076L112.38 138.085C112.477 138.051 112.529 137.943 112.495 137.844L110.76 132.734C110.726 132.635 110.62 132.583 110.522 132.617Z" fill="white"/>
</svg>
