<svg width="334" height="343" viewBox="0 0 334 343" fill="none" xmlns="http://www.w3.org/2000/svg">
<path d="M168.052 201.092C165.201 199.432 162.553 197.43 160.163 195.127C160.007 194.976 159.812 194.875 159.601 194.835C159.39 194.795 159.172 194.819 158.974 194.903C156.387 196.014 153.119 196.736 150.702 198.364C150.475 198.512 150.303 198.736 150.217 198.998C150.131 199.26 150.135 199.545 150.228 199.804C151.322 203.193 152.164 206.662 152.746 210.182C151.218 216.491 136.312 264.719 132.165 294.191C130.829 303.521 138.445 311.432 141.768 319.827C141.864 320.063 142.014 320.271 142.207 320.433C142.399 320.595 142.627 320.706 142.871 320.757C143.115 320.808 143.367 320.797 143.605 320.724C143.844 320.652 144.062 320.52 144.239 320.341C150.652 313.509 156.577 306.212 161.968 298.506C162.157 298.231 162.257 297.901 162.254 297.564C161.931 270.997 162.955 238.14 159.973 210.935C160.14 210.784 167.025 204.469 168.576 202.934C168.744 202.812 168.87 202.639 168.938 202.44C169.005 202.24 169.011 202.024 168.953 201.821C168.895 201.619 168.777 201.44 168.616 201.309C168.454 201.178 168.257 201.102 168.052 201.092Z" fill="#38A1FF"/>
<path d="M83.1122 41.1154C85.5788 31.803 94.702 26.6665 101.793 30.4018C102.886 30.9184 103.822 31.7315 104.498 32.7535C105.175 33.7756 105.568 34.9678 105.634 36.2019C105.639 37.8256 105.312 39.4323 104.673 40.9176C104.034 42.4029 103.099 43.7336 101.926 44.8232C94.6887 52.7242 85.3367 55.5437 84.014 68.8006C83.7706 74.1213 84.2506 79.4507 85.4402 84.6352C85.4731 84.9366 85.5635 85.2283 85.7062 85.4938C85.8488 85.7593 86.041 85.9933 86.2718 86.1825C86.5025 86.3717 86.7673 86.5123 87.051 86.5964C87.3347 86.6805 87.6317 86.7064 87.9252 86.6727C88.2186 86.6389 88.5027 86.5461 88.7612 86.3995C89.0197 86.253 89.2476 86.0556 89.4318 85.8187C89.616 85.5817 89.753 85.3098 89.8349 85.0185C89.9168 84.7271 89.942 84.4221 89.9091 84.1207C89.6336 77.6123 89.4682 67.1697 93.4261 62.0916C97.2671 57.1592 104.715 53.3279 109.208 46.9584C114.824 38.9939 113.595 28.5667 104.882 24.0889C101.988 22.627 98.7624 21.9985 95.5481 22.2703C92.3338 22.5421 89.2514 23.704 86.6293 25.6324C84.4279 27.4045 82.6165 29.6347 81.3139 32.1766C80.0112 34.7185 79.2468 37.5146 79.0708 40.3814C78.9769 40.9317 79.0998 41.4979 79.4123 41.9552C79.7249 42.4126 80.2016 42.7237 80.7375 42.8201C81.2734 42.9165 81.8247 42.7904 82.27 42.4694C82.7154 42.1484 83.0183 41.6589 83.1122 41.1085V41.1154Z" fill="#38A1FF"/>
<path d="M36.9066 113.849C35.938 107.345 45.9563 99.0653 50.4052 105.788C52.5762 109.062 51.1884 110.863 49.4032 114.145C47.1754 118.249 46.3722 121.573 48.0672 126.109C49.1866 128.629 50.4699 131.069 51.9082 133.412C52.0834 133.816 52.4078 134.132 52.8101 134.291C53.2124 134.45 53.6596 134.438 54.0533 134.258C54.4471 134.078 54.7551 133.745 54.9097 133.332C55.0642 132.919 55.0527 132.459 54.8775 132.055C54.1644 129.877 53.1323 127.238 52.4526 124.65C51.2553 120.093 52.5027 118.934 54.7355 114.814C57.0568 110.527 57.2088 106.925 54.4967 102.879C46.6828 91.2072 29.6037 103.37 34.0576 114.658C34.169 115.038 34.4206 115.358 34.7587 115.55C35.0968 115.742 35.4945 115.79 35.8669 115.685C36.2393 115.58 36.5569 115.329 36.7518 114.986C36.9467 114.644 37.0034 114.237 36.9099 113.852L36.9066 113.849Z" fill="#38A1FF"/>
<path d="M175.501 47.6531C175.181 49.8003 175.334 49.8826 173.933 57.4458C173.92 57.6651 173.863 57.8794 173.768 58.076C173.672 58.2725 173.539 58.4474 173.376 58.5902C173.214 58.733 173.025 58.8408 172.821 58.9073C172.617 58.9738 172.402 58.9976 172.189 58.9773C171.976 58.957 171.769 58.893 171.58 58.7891C171.392 58.6852 171.225 58.5435 171.091 58.3724C170.957 58.2013 170.857 58.0042 170.798 57.7929C170.74 57.5816 170.723 57.3604 170.749 57.1422C170.576 53.2445 170.623 49.3397 170.891 45.4476C170.942 44.9249 171.154 44.4325 171.496 44.0417C171.838 43.6508 172.292 43.3816 172.793 43.273C178.972 41.901 182.925 33.8714 175.406 30.8461C172.642 29.7348 170.45 30.5151 169.322 32.3159C168.632 33.5013 168.217 34.8343 168.11 36.2111C168.003 37.5879 168.206 38.9716 168.704 40.2546C168.817 40.4248 168.894 40.6167 168.932 40.8186C168.969 41.0206 168.966 41.2283 168.923 41.429C168.88 41.6297 168.797 41.8192 168.679 41.9858C168.562 42.1525 168.413 42.2928 168.241 42.3981C168.069 42.5034 167.878 42.5715 167.68 42.5983C167.481 42.625 167.279 42.6098 167.087 42.5537C166.894 42.4975 166.715 42.4015 166.56 42.2716C166.404 42.1416 166.277 41.9805 166.184 41.7981C160.339 33.7736 166.385 21.8544 177.206 26.0819C189.022 30.6986 185.248 44.2266 175.501 47.6531Z" fill="#38A1FF"/>
<path d="M251.71 88.0892C250.028 95.0881 249.778 95.2922 247.29 103.294C247.229 103.592 247.112 103.875 246.945 104.126C246.777 104.377 246.563 104.592 246.314 104.757C246.065 104.923 245.787 105.036 245.495 105.09C245.204 105.144 244.905 105.138 244.615 105.073C244.326 105.007 244.052 104.883 243.809 104.708C243.567 104.533 243.361 104.311 243.203 104.053C243.045 103.796 242.938 103.509 242.889 103.209C242.839 102.908 242.849 102.601 242.916 102.305C243.549 96.2393 244.485 90.2112 245.72 84.2442C245.86 83.5442 246.211 82.9071 246.723 82.4228C247.234 81.9385 247.881 81.6314 248.572 81.5448C250.448 81.327 252.306 80.9722 254.133 80.4832C262.34 78.1234 265.407 69.382 259.978 62.0041C255.264 55.5951 248.317 55.5179 242.963 60.7058C242.225 61.3901 241.571 62.1635 241.014 63.0091C240.397 63.933 239.856 64.9082 239.397 65.9246C239.229 66.4505 238.867 66.8881 238.389 67.1435C237.911 67.399 237.354 67.452 236.839 67.2913C236.323 67.1305 235.889 66.7688 235.629 66.2836C235.37 65.7983 235.306 65.2281 235.451 64.6949C235.957 61.8236 237.113 59.1147 238.826 56.787C246.099 47.0613 258.245 48.008 265.493 57.7149C271.578 65.8663 272.234 78.5247 260.549 85.3521C257.803 86.8435 254.801 87.7731 251.71 88.0892Z" fill="#38A1FF"/>
<path d="M276.761 111.72C279.484 109.224 282.953 107.752 286.599 107.546C293.33 107.167 297.53 111.989 295.202 119.911C292.619 128.721 283.332 124.327 277.333 133.964C275.85 136.346 274.907 139.109 273.626 141.554C273.42 141.937 273.363 142.387 273.469 142.811C273.575 143.235 273.835 143.602 274.195 143.835C274.565 144.061 275.007 144.129 275.425 144.024C275.843 143.919 276.204 143.649 276.43 143.273C277.905 141.126 279.282 138.749 280.939 136.639C283.629 133.228 285.759 132.573 289.97 131.089C295.052 129.299 298.265 127.186 299.952 121.376C305.426 102.511 284.135 96.3795 274.568 109.69C274.315 109.993 274.184 110.384 274.201 110.783C274.219 111.182 274.384 111.559 274.663 111.837C274.807 111.973 274.976 112.077 275.161 112.145C275.345 112.213 275.54 112.242 275.736 112.231C275.931 112.221 276.122 112.17 276.298 112.082C276.474 111.994 276.632 111.871 276.761 111.72Z" fill="#38A1FF"/>
<path d="M155.823 172.515C153.806 171.072 152.108 169.21 150.837 167.049C149.567 164.889 148.753 162.478 148.448 159.973C147.294 152.695 148.999 144.844 150.355 138.042C150.971 134.875 151.843 131.766 152.962 128.748C153.037 128.525 153.192 128.339 153.397 128.23C153.601 128.121 153.839 128.097 154.06 128.164C154.281 128.23 154.468 128.381 154.584 128.586C154.699 128.791 154.733 129.033 154.679 129.263C154.189 131.353 153.698 135.78 153.152 138.604C150.794 150.764 148.366 163.288 157.793 170.476C158.932 171.22 158.383 173.345 158.174 178.355C158.184 178.486 158.169 178.617 158.129 178.742C158.089 178.866 158.025 178.981 157.94 179.08C157.856 179.179 157.754 179.259 157.639 179.316C157.524 179.374 157.399 179.407 157.271 179.413C157.144 179.42 157.016 179.4 156.896 179.356C156.776 179.311 156.666 179.242 156.572 179.153C156.478 179.063 156.403 178.956 156.351 178.836C156.298 178.716 156.27 178.587 156.267 178.456C156.077 177.005 156.013 173.954 155.823 172.515ZM156.14 172.723C156.203 172.764 156.203 172.793 156.267 172.812L156.14 172.723ZM155.823 172.486V172.402C155.823 172.272 155.823 172.083 155.759 172.1C155.504 172.153 155.632 172.325 155.823 172.486Z" fill="#191919"/>
<path d="M159.383 154.76C159.323 155.611 159.476 156.463 159.827 157.236C160.035 157.65 160.291 158.036 160.59 158.385C163.828 162.512 171.146 159.732 172.669 154.624C172.786 154.391 172.812 154.121 172.741 153.868C172.67 153.616 172.508 153.401 172.288 153.268C172.174 153.204 172.049 153.165 171.92 153.152C171.791 153.138 171.66 153.151 171.536 153.19C171.412 153.228 171.297 153.292 171.196 153.376C171.096 153.461 171.013 153.565 170.952 153.683C170.48 154.216 169.947 154.69 169.364 155.093C168.245 156.212 166.83 156.968 165.294 157.265C164.683 157.337 164.064 157.235 163.504 156.97C162.945 156.706 162.467 156.29 162.121 155.767C161.902 155.545 161.71 155.296 161.55 155.026C161.423 154.818 161.296 154.647 161.168 154.422C161.148 154.305 161.106 154.194 161.044 154.094C160.982 153.994 160.902 153.908 160.807 153.84C160.713 153.772 160.606 153.724 160.493 153.699C160.381 153.674 160.264 153.672 160.151 153.693C159.914 153.735 159.701 153.869 159.558 154.068C159.415 154.267 159.352 154.515 159.383 154.76Z" fill="#191919"/>
<path d="M164.341 135.459C164.073 136.638 163.882 137.834 163.77 139.038C163.433 141.112 163.2 143.202 163.07 145.3C163.07 146.965 162.903 148.975 164.024 149.145C165.026 149.284 165.642 147.065 165.804 146.106C166.215 144.533 166.806 138.769 167.075 136.673C167.224 135.53 167.482 132.662 166.312 132.444C165.316 132.226 164.77 134.002 164.341 135.459Z" fill="#191919"/>
<path d="M158.473 129.208C158.883 128.585 159.456 128.094 160.126 127.792C161.716 127.292 162.361 130.021 163.687 129.457C164.772 129.014 164.021 126.884 163.687 126.37C161.88 123.111 157.08 124.799 156.058 127.785C155.804 128.49 155.467 130.451 156.502 130.717C157.125 130.906 158.358 129.38 158.473 129.208Z" fill="#191919"/>
<path d="M174.368 128.586C175.033 128.062 175.823 127.732 176.656 127.632C177.022 127.616 177.386 127.68 177.726 127.82C178.066 127.96 178.373 128.172 178.627 128.443C180.066 129.676 180.089 130.124 180.853 129.829C181.95 129.407 181.289 127.388 180.853 126.625C180.386 125.906 179.736 125.331 178.974 124.963C178.212 124.595 177.366 124.449 176.529 124.54C174.975 124.611 173.512 125.311 172.461 126.488C172.058 126.975 171.102 128.915 171.96 129.522C172.563 129.887 174.196 128.719 174.368 128.586Z" fill="#191919"/>
<path d="M8.43818 178.447C10.3086 185.669 18.692 189.569 25.6392 191.653C31.3172 193.368 35.5957 191.74 36.1919 197.331C36.1985 197.463 36.2302 197.592 36.2853 197.71C36.3403 197.829 36.4176 197.936 36.5127 198.024C36.6079 198.112 36.719 198.18 36.8397 198.224C36.9605 198.268 37.0885 198.287 37.2165 198.281C37.3444 198.274 37.4698 198.241 37.5855 198.185C37.7013 198.128 37.805 198.049 37.8908 197.951C37.9766 197.853 38.0429 197.739 38.0858 197.615C38.1287 197.491 38.1474 197.36 38.1408 197.228C38.2412 196.266 38.1497 195.293 37.8717 194.368C37.5938 193.443 37.1353 192.586 36.5242 191.849C34.4818 189.478 30.1599 189.815 26.5042 188.705C20.2751 186.806 13.3496 183.464 10.0581 177.712C10.0114 177.599 9.9435 177.498 9.8582 177.413C9.7729 177.328 9.67196 177.261 9.56127 177.216C9.45058 177.172 9.33236 177.15 9.2135 177.153C9.09465 177.156 8.97755 177.183 8.86904 177.233C8.76066 177.281 8.66295 177.351 8.58192 177.439C8.50089 177.527 8.43825 177.631 8.39789 177.745C8.35752 177.858 8.34027 177.979 8.3472 178.1C8.35413 178.221 8.38509 178.339 8.43818 178.447Z" fill="#191919"/>
<path d="M17.7018 176.451C20.2643 179.741 23.6973 182.2 27.5882 183.534C28.7171 183.838 31.1353 184.313 31.344 183.135C31.7582 181.574 28.0575 181.157 23.8808 178.194C22.4291 177.129 21.0767 175.927 19.8411 174.606C19.6941 174.434 17.7001 172.186 16.8468 172.719C15.9216 173.386 17.3511 175.884 17.7018 176.451Z" fill="#191919"/>
<path d="M28.4483 171.692C30.5269 174.351 33.1799 176.478 36.1971 177.902C37.0321 178.207 39.2315 178.826 39.6189 177.77C39.816 177.058 39.6189 176.767 37.4797 175.304C36.2622 174.47 34.9613 173.752 33.8207 172.815C31.2005 170.678 28.8107 167.516 27.6885 168.403C26.8284 169.075 28.1761 171.328 28.4483 171.692Z" fill="#191919"/>
<path d="M40.7127 171.853C42.9437 173.694 45.5141 175.052 48.2694 175.846C48.8856 175.945 51.1218 176.175 51.3122 175.084C51.6679 173.733 48.717 173.114 45.8462 171.581C44.3065 170.757 40.2851 167.746 39.3332 169.115C38.8005 169.891 40.402 171.574 40.7127 171.853Z" fill="#191919"/>
<path d="M53.6416 166.605C54.3847 168.087 56.4338 170.735 56.2084 171.454C55.7074 173.728 51.1199 176.566 50.2665 180.068C49.4499 183.361 51.873 185.806 54.9241 187.122C55.1459 187.257 55.4106 187.297 55.6608 187.233C55.911 187.168 56.1264 187.005 56.2601 186.779C56.3857 186.55 56.4211 186.28 56.359 186.025C56.2969 185.769 56.142 185.548 55.9261 185.407C54.7287 184.405 52.7431 182.347 53.1222 180.814C53.7234 178.47 58.386 175.573 59.1108 172.145C59.8105 168.828 55.7558 166.238 55.1179 165.516C54.9772 165.315 54.7646 165.18 54.5267 165.14C54.2889 165.1 54.0452 165.158 53.8495 165.303C53.6537 165.447 53.5218 165.666 53.4828 165.91C53.4438 166.154 53.5009 166.404 53.6416 166.605Z" fill="#191919"/>
<path d="M61.8652 176.617C63.101 181.277 63.0092 180.39 63.3866 181.807C64.6458 186.542 64.1248 189.525 63.4801 194.083C63.3315 195.136 63.2914 196.206 63.101 197.342C63.0273 197.594 63.0542 197.866 63.1759 198.098C63.2976 198.33 63.504 198.503 63.7498 198.579C63.9957 198.655 64.2607 198.627 64.4867 198.502C64.7126 198.377 64.881 198.165 64.9547 197.913C65.4388 196.88 65.8669 195.821 66.2373 194.74C68.0459 188.892 67.5349 180.848 63.4334 175.746C63.3143 175.532 63.1186 175.374 62.8879 175.305C62.6572 175.237 62.4096 175.263 62.1976 175.379C61.9948 175.499 61.8462 175.697 61.784 175.928C61.7218 176.16 61.751 176.408 61.8652 176.617Z" fill="#191919"/>
<path d="M265.209 189.679C270.577 178.929 285.022 182.819 294.87 179.614C295.115 179.549 295.326 179.388 295.458 179.166C295.59 178.944 295.633 178.678 295.578 178.424C295.522 178.17 295.373 177.949 295.161 177.806C294.949 177.664 294.691 177.611 294.443 177.66C286.846 178.701 266.073 176.016 263.548 189.074C263.509 189.186 263.492 189.306 263.498 189.425C263.505 189.544 263.534 189.661 263.584 189.769C263.634 189.876 263.704 189.973 263.791 190.053C263.877 190.132 263.978 190.194 264.088 190.234C264.197 190.274 264.314 190.291 264.43 190.284C264.546 190.278 264.66 190.248 264.765 190.197C264.869 190.145 264.963 190.073 265.041 189.984C265.119 189.895 265.179 189.792 265.218 189.679H265.209Z" fill="#191919"/>
<path d="M286.598 185.419C285.97 186.349 285.16 187.135 284.222 187.727C282.104 189.06 278.377 189.271 278.519 190.831C278.612 191.929 281 191.926 281.513 191.896C284.738 191.696 288.397 188.923 289.028 186.844C289.414 185.945 289.748 183.942 288.791 183.627C288.038 183.381 286.718 185.247 286.598 185.419Z" fill="#191919"/>
<path d="M298.15 186.542C300.369 186.571 302.57 186.129 304.614 185.244C306.659 184.359 308.504 183.049 310.032 181.397C310.794 180.45 312.297 178.253 311.316 177.542C310.575 177.003 310.181 177.48 308.036 179.342C305.297 181.924 301.768 183.448 298.055 183.652C295.139 184.064 294.701 184.11 294.631 184.853C294.518 186.065 297.283 186.479 298.15 186.542Z" fill="#191919"/>
<path d="M307.99 189.753C310.488 189.122 312.781 187.831 314.643 186.009C314.874 185.729 316.278 183.881 315.547 183.129C314.966 182.539 314.211 182.958 312.98 183.745C312.619 183.966 312.27 184.207 311.935 184.467C310.437 185.473 308.844 186.321 307.182 187C307.015 187.074 305.049 188.062 305.233 189.002C305.498 189.921 307.412 189.833 307.99 189.753Z" fill="#191919"/>
<path d="M310.698 194.85C314.026 193.828 317.007 191.867 319.302 189.19C319.893 188.4 321.162 186.53 320.304 185.822C319.724 185.345 319.182 185.553 317.31 187.16C315.169 189.301 312.631 190.978 309.846 192.09C307.744 193.135 307.305 193.347 307.376 194.092C307.582 195.206 309.936 194.995 310.698 194.85Z" fill="#191919"/>
<path d="M293.681 205.047C294.871 204.689 300.406 203.701 300.573 203.675C306.498 202.646 312.42 202.132 317.4 199.76C320.838 198.25 323.683 195.599 325.481 192.233C325.629 192.013 325.686 191.741 325.639 191.478C325.592 191.215 325.445 190.982 325.23 190.83C325.016 190.678 324.752 190.62 324.496 190.668C324.239 190.716 324.012 190.867 323.864 191.087C317.184 199.202 308.044 198.986 300.05 200.732C297.585 201.214 295.21 202.097 293.016 203.348C292.904 203.39 292.801 203.454 292.714 203.538C292.626 203.622 292.556 203.722 292.507 203.834C292.459 203.946 292.432 204.067 292.43 204.19C292.427 204.312 292.449 204.434 292.493 204.548C292.589 204.774 292.766 204.953 292.988 205.046C293.21 205.139 293.459 205.14 293.681 205.047Z" fill="#191919"/>
<path d="M158.704 140.659C158.994 140.719 159.299 140.687 159.601 140.563C159.904 140.439 160.199 140.227 160.469 139.938C160.739 139.65 160.978 139.29 161.174 138.881C161.37 138.471 161.518 138.019 161.611 137.551C161.703 137.083 161.737 136.607 161.711 136.152C161.685 135.696 161.6 135.27 161.461 134.896C161.321 134.522 161.13 134.209 160.897 133.975C160.665 133.74 160.397 133.588 160.107 133.528C159.817 133.468 159.513 133.501 159.21 133.625C158.907 133.748 158.612 133.961 158.342 134.249C158.073 134.538 157.833 134.897 157.637 135.307C157.441 135.716 157.293 136.168 157.201 136.636C157.109 137.105 157.074 137.58 157.1 138.036C157.126 138.491 157.211 138.918 157.351 139.291C157.49 139.665 157.682 139.978 157.914 140.213C158.146 140.447 158.415 140.599 158.704 140.659Z" fill="#191919"/>
<path d="M175.473 140.472C176.093 140.598 176.76 140.344 177.327 139.768C177.894 139.191 178.313 138.338 178.494 137.397C178.675 136.455 178.602 135.503 178.291 134.748C177.979 133.994 177.456 133.499 176.835 133.374C176.528 133.312 176.206 133.342 175.888 133.463C175.57 133.583 175.262 133.793 174.981 134.078C174.701 134.364 174.453 134.72 174.253 135.127C174.053 135.534 173.903 135.983 173.814 136.449C173.724 136.915 173.696 137.389 173.731 137.843C173.766 138.298 173.864 138.724 174.018 139.098C174.172 139.471 174.379 139.785 174.629 140.021C174.879 140.257 175.165 140.41 175.473 140.472Z" fill="#191919"/>
<path d="M197.273 138.647C199.062 133.78 198.996 129.625 195.436 125.874C195.281 113.327 183.432 106.666 174.583 99.079C170.408 95.4089 166.498 89.5401 161.487 87.134C158.805 85.8443 155.628 85.4447 153.603 87.6793C152.609 88.8995 152.029 90.4181 151.949 92.0063C150.569 90.5493 148.835 89.4957 146.928 88.9536C140.227 87.2094 137.51 92.4573 138.98 99.6312C138.836 99.5504 138.687 99.4771 138.536 99.4117C135.311 98.0517 133.492 99.3362 133.068 101.259C132.514 103.181 133.593 106.64 134.404 108.422C137.609 115.462 143.449 121.607 149.09 126.787C149.315 126.997 149.596 127.132 149.898 127.173C150.199 127.213 150.505 127.159 150.775 127.016C151.045 126.873 151.266 126.648 151.408 126.372C151.55 126.096 151.607 125.783 151.57 125.473C151.353 122.324 151.38 122.935 151.38 122.468C153.563 123.577 155.841 124.479 158.183 125.164C158.429 125.235 158.688 125.238 158.935 125.172C159.181 125.106 159.406 124.975 159.587 124.79C159.768 124.606 159.898 124.376 159.964 124.123C160.03 123.87 160.029 123.604 159.962 123.351C159.681 122.077 159.461 120.779 159.199 119.465C162.064 120.837 164.095 121.854 167.273 123.103C167.534 123.206 167.819 123.228 168.092 123.167C168.365 123.105 168.615 122.963 168.81 122.758C169.006 122.552 169.138 122.293 169.192 122.011C169.245 121.729 169.217 121.437 169.11 121.172C168.856 120.383 168.609 119.601 168.349 118.807C173.817 120.617 179.001 123.232 183.739 126.57C183.698 126.649 183.654 126.732 183.606 126.816C182.827 128.688 182.628 130.761 183.035 132.753C183.467 135.632 185.373 139.237 185.832 139.28C188.594 139.702 191.887 140.17 193.397 141.887C193.766 142.258 194.028 142.727 194.151 143.242C194.275 143.758 194.256 144.298 194.097 144.803C193.055 148.514 188.016 148.449 184.305 147.859C183.942 147.802 183.571 147.887 183.265 148.096C182.959 148.306 182.74 148.626 182.652 148.992C180.708 155.536 177.952 161.796 174.451 167.617C171.213 173.244 171.971 167.65 171.971 180.319C171.96 180.448 171.975 180.578 172.014 180.702C172.053 180.826 172.116 180.94 172.199 181.038C172.282 181.136 172.384 181.216 172.497 181.274C172.611 181.331 172.735 181.364 172.861 181.372C172.989 181.384 173.119 181.368 173.241 181.326C173.364 181.284 173.476 181.217 173.572 181.128C173.668 181.039 173.744 180.93 173.797 180.809C173.85 180.688 173.877 180.557 173.878 180.425C174.324 175.911 174.451 173.536 174.641 172.385V172.256C177.195 169.619 182.754 159.565 185.196 151.088C186.61 151.26 188.037 151.284 189.456 151.16C193.911 150.687 196.224 148.339 196.894 145.591C197.28 144.086 197.228 141.004 196.022 139.944L196.167 139.294C196.397 139.348 196.638 139.311 196.843 139.191C197.047 139.072 197.201 138.878 197.273 138.647Z" fill="#191919"/>
<path d="M62.1871 139.387C61.81 138.693 61.2844 138.096 60.6501 137.641C60.0158 137.186 59.2893 136.884 58.5251 136.759C57.761 136.634 56.9792 136.689 56.2386 136.919C55.498 137.149 54.8179 137.549 54.2496 138.088C53.3799 139.085 52.891 140.371 52.8735 141.708C52.856 143.046 53.3111 144.345 54.1544 145.365C54.5942 145.911 55.1461 146.351 55.7705 146.653C56.3949 146.954 57.0765 147.111 57.7666 147.111C58.4567 147.111 59.1383 146.954 59.7627 146.653C60.3871 146.351 60.939 145.911 61.3788 145.365C62.0396 144.543 62.4651 143.549 62.6079 142.493C62.7506 141.438 62.6049 140.362 62.1871 139.387Z" fill="#38A1FF"/>
<path d="M93.6277 93.4673C93.2503 92.7737 92.7247 92.1771 92.0904 91.7222C91.4561 91.2673 90.7296 90.966 89.9656 90.841C89.2015 90.7161 88.4199 90.7707 87.6793 91.0007C86.9388 91.2307 86.2587 91.6302 85.6902 92.1691C84.8204 93.1656 84.3315 94.4519 84.314 95.79C84.2965 97.1281 84.7515 98.4274 85.595 99.4475C86.0348 99.9937 86.5867 100.433 87.2111 100.735C87.8355 101.037 88.5171 101.193 89.2072 101.193C89.8973 101.193 90.5789 101.037 91.2033 100.735C91.8277 100.433 92.3796 99.9937 92.8194 99.4475C93.4795 98.625 93.9046 97.6306 94.0473 96.5749C94.19 95.5191 94.0447 94.4434 93.6277 93.4673Z" fill="#38A1FF"/>
<path d="M176.117 65.1443C175.739 64.451 175.213 63.8545 174.579 63.3998C173.945 62.9451 173.218 62.644 172.454 62.519C171.69 62.3941 170.909 62.4486 170.168 62.6784C169.428 62.9083 168.748 63.3075 168.179 63.846C167.309 64.8424 166.82 66.1287 166.802 67.4669C166.785 68.8052 167.24 70.1046 168.084 71.1245C168.524 71.6706 169.075 72.1103 169.7 72.412C170.324 72.7138 171.006 72.8703 171.696 72.8703C172.386 72.8703 173.068 72.7138 173.692 72.412C174.317 72.1103 174.868 71.6706 175.308 71.1245C175.968 70.3019 176.393 69.3075 176.536 68.2518C176.679 67.1961 176.533 66.1204 176.117 65.1443Z" fill="#38A1FF"/>
<path d="M247.013 110.446C246.635 109.752 246.109 109.156 245.475 108.701C244.841 108.246 244.114 107.945 243.35 107.82C242.586 107.695 241.804 107.749 241.063 107.979C240.322 108.209 239.642 108.609 239.074 109.148C238.204 110.144 237.716 111.431 237.699 112.769C237.682 114.107 238.137 115.406 238.98 116.426C239.42 116.972 239.972 117.412 240.596 117.714C241.221 118.015 241.902 118.172 242.592 118.172C243.282 118.172 243.964 118.015 244.588 117.714C245.213 117.412 245.765 116.972 246.204 116.426C246.865 115.604 247.291 114.609 247.433 113.554C247.576 112.498 247.431 111.422 247.013 110.446Z" fill="#38A1FF"/>
<path d="M274.294 149.167C273.916 148.474 273.391 147.877 272.756 147.422C272.122 146.967 271.396 146.666 270.632 146.541C269.868 146.416 269.086 146.471 268.345 146.701C267.605 146.931 266.925 147.33 266.356 147.869C265.486 148.866 264.997 150.152 264.98 151.49C264.962 152.828 265.418 154.127 266.261 155.147C266.701 155.694 267.253 156.133 267.877 156.435C268.502 156.737 269.183 156.893 269.873 156.893C270.563 156.893 271.245 156.737 271.869 156.435C272.494 156.133 273.046 155.694 273.485 155.147C274.146 154.325 274.571 153.331 274.713 152.275C274.856 151.219 274.711 150.143 274.294 149.167Z" fill="#38A1FF"/>
<path d="M296.771 210.045C296.85 209.714 296.817 209.366 296.679 209.057C296.542 208.748 296.306 208.496 296.011 208.342C283.305 201.547 270.261 195.441 256.933 190.051C256.747 189.974 256.548 189.937 256.347 189.941C256.147 189.946 255.95 189.992 255.767 190.077C255.585 190.163 255.422 190.285 255.287 190.438C255.152 190.59 255.049 190.769 254.984 190.963C253.561 195.201 253.164 196.604 250.991 204.27C240.944 206.942 237.781 219.626 235.78 229.961C224.511 207.494 203.606 190.677 180.405 182.284C179.086 181.816 180.842 182.061 159.632 193.28C158.342 189.026 156.77 184.867 154.927 180.833C154.793 180.568 154.587 180.348 154.334 180.201C154.081 180.053 153.792 179.983 153.501 179.999C152.74 180.058 151.979 180.139 151.22 180.243C134.792 182.55 120.709 186.256 105.255 195.614C93.5895 202.776 83.2701 212.029 74.7875 222.934C73.3194 219.71 70.7229 217.171 67.5146 215.822C68.1826 212.26 68.6686 207.59 68.9876 203.864C69.0045 203.633 68.9711 203.401 68.8897 203.186C68.8083 202.97 68.681 202.776 68.517 202.617C68.3531 202.459 68.1567 202.339 67.9423 202.269C67.7278 202.198 67.5007 202.178 67.2775 202.209C54.2515 204.157 42.0805 202.625 29.3935 199.465C29.1933 199.421 28.9866 199.42 28.7859 199.46C28.5851 199.501 28.3945 199.584 28.2256 199.702C28.0567 199.821 27.913 199.973 27.8031 200.151C27.6933 200.328 27.6196 200.526 27.5866 200.734C27.2526 203.428 26.1136 211.809 25.9166 213.327C16.7449 217.529 14.8094 228.114 14.1281 238.366C12.742 260.239 19.2533 287.005 36.1837 300.399C53.6787 314.232 75.4287 301.085 93.2226 287.761L92.7483 303.128C92.7524 303.368 92.8469 303.597 93.0119 303.767C93.1769 303.937 93.3996 304.034 93.6333 304.039C93.8669 304.044 94.0933 303.956 94.2649 303.793C94.4365 303.63 94.54 303.405 94.5536 303.166L95.2366 286.48C97.9351 284.231 100.413 281.715 102.635 278.97C102.822 278.788 102.931 278.538 102.939 278.273C102.946 278.008 102.85 277.751 102.673 277.559C102.496 277.367 102.252 277.254 101.994 277.247C101.736 277.239 101.486 277.338 101.299 277.519C101.132 277.646 81.885 297.901 60.706 302.816C52.7668 304.656 44.8293 303.942 37.7469 298.271C21.7783 285.431 15.6478 259.112 17.089 238.556C17.6785 229.143 19.26 219.149 27.8304 215.785C28.0819 215.681 28.3023 215.511 28.4694 215.291C28.6365 215.072 28.7444 214.812 28.7823 214.536C29.4971 207.801 29.6641 207.568 30.3037 202.795C41.9015 205.878 53.9447 206.793 65.858 205.496C65.6709 207.508 65.0965 212.406 64.4485 216.129C50.5958 218.702 46.0184 216.572 32.7753 216.414C32.5403 216.382 32.3024 216.446 32.1139 216.594C31.9253 216.741 31.8016 216.96 31.7699 217.201C31.7383 217.443 31.8012 217.687 31.945 217.88C32.0887 218.074 32.3015 218.201 32.5365 218.234C34.2065 218.633 36.1136 219.165 38.5735 219.537C45.1683 220.511 54.9145 221.015 61.3423 219.566C62.728 219.237 64.0865 218.797 65.4054 218.251C67.2208 218.903 68.8698 219.967 70.23 221.364C73.2628 224.682 73.0991 228.994 73.4632 234.147C74.0899 241.719 73.9146 249.338 72.9404 256.871C72.7016 258.814 72.5597 260.721 72.2724 262.59C72.2431 262.719 72.2386 262.852 72.2592 262.982C72.2799 263.112 72.3252 263.236 72.3928 263.348C72.4603 263.46 72.5487 263.558 72.6528 263.635C72.757 263.712 72.8748 263.767 72.9997 263.797C73.1246 263.827 73.2541 263.832 73.3807 263.81C73.5074 263.789 73.6287 263.743 73.7378 263.673C73.8469 263.604 73.9416 263.513 74.0165 263.406C74.0915 263.299 74.1452 263.178 74.1746 263.05C74.7829 261.168 75.2903 259.254 75.6943 257.315C77.344 247.319 77.2229 237.1 75.3369 227.148C95.8311 200.182 121.262 186.895 152.698 183.177C154.303 186.503 155.704 191.238 157.048 195.023C150.456 197.271 143.732 199.091 136.916 200.471C140.03 195.955 142.857 191.236 145.378 186.345C145.494 186.132 145.523 185.882 145.461 185.647C145.399 185.412 145.249 185.212 145.044 185.09C144.835 184.971 144.589 184.941 144.358 185.005C144.127 185.069 143.93 185.222 143.807 185.433C141.776 188.979 136.086 196.786 132.352 201.867C132.176 202.111 132.077 202.404 132.067 202.707C132.057 203.011 132.138 203.31 132.298 203.565C132.458 203.82 132.69 204.019 132.963 204.135C133.235 204.251 133.536 204.279 133.825 204.215C142.476 202.329 151.09 200.655 159.351 197.431C166.775 203.547 175.103 208.404 184.021 211.82C184.283 211.916 184.567 211.935 184.839 211.874C185.111 211.812 185.361 211.673 185.56 211.472C185.758 211.271 185.898 211.017 185.961 210.738C186.025 210.459 186.011 210.168 185.921 209.897C183.491 202.906 182.177 195.557 182.03 188.135C182.032 187.873 181.934 187.621 181.756 187.432C181.578 187.244 181.335 187.136 181.08 187.13C180.82 187.13 180.57 187.234 180.383 187.42C180.196 187.605 180.086 187.858 180.078 188.125C179.723 194.754 180.43 201.398 182.17 207.793C174.899 204.689 168.08 200.571 161.905 195.554C168.044 192.296 174.119 189.025 180.078 185.436C203.543 194.092 225.625 212.509 235.021 235.437C235.034 235.469 235.047 235.5 235.062 235.531C233.726 240.271 231.325 259.776 231.268 260.438C231.15 261.827 231.126 263.206 231.031 264.592C230.99 264.854 231.052 265.122 231.204 265.337C231.355 265.552 231.584 265.697 231.839 265.739C232.097 265.781 232.359 265.718 232.572 265.564C232.785 265.41 232.931 265.177 232.98 264.914C233.314 263.619 233.648 262.352 233.93 261.047C235.944 251.877 237.592 226.376 243.292 215.105C245.288 211.113 248.135 207.902 252.419 207.06C252.683 207.007 252.928 206.881 253.129 206.697C253.329 206.512 253.478 206.276 253.559 206.013C254.501 202.699 256.981 194.351 257.267 193.471C269.229 198.357 281.929 204.21 293.629 210.449C292.694 214.08 292.113 216.812 290.777 221.281C290.725 221.487 290.715 221.702 290.748 221.912C290.781 222.122 290.855 222.323 290.967 222.502C295.942 230.518 292.788 240.1 290.017 249.085C284.247 268.162 275.037 293.723 257.931 303.301C250.184 307.661 242.008 310.907 234.451 309.734C223.299 308.007 219.588 298.587 213.551 288.811C213.44 288.572 213.242 288.387 212.998 288.298C212.755 288.209 212.488 288.223 212.254 288.337C212.021 288.451 211.842 288.655 211.755 288.904C211.668 289.154 211.682 289.429 211.793 289.669C213.579 294.197 216.082 298.39 219.202 302.078C219.404 306.46 219.343 309.516 219.241 313.814C219.24 314.075 219.337 314.326 219.514 314.514C219.69 314.702 219.931 314.812 220.185 314.82C220.439 314.828 220.686 314.735 220.874 314.558C221.062 314.382 221.175 314.138 221.19 313.877C221.302 309.154 221.332 311.488 221.332 304.773C231.844 316.309 245.617 312.953 259.12 305.525C277.071 295.647 286.63 269.775 292.774 249.975C295.743 240.151 298.871 230.424 293.776 221.487C294.157 220.086 296.203 212.488 296.771 210.045Z" fill="#191919"/>
</svg>
