<svg width="164" height="164" viewBox="0 0 164 164" fill="none" xmlns="http://www.w3.org/2000/svg">
<path d="M107.97 73.4973C107.837 67.053 108.052 60.6078 107.957 54.1634C107.754 40.1299 107.554 26.0953 107.357 12.0597C107.321 9.43075 107.055 6.36313 104.848 4.93551C103.511 4.06959 101.808 4.07369 100.216 4.11551C90.0226 4.38283 79.857 3.94003 69.6759 4.51157C65.7399 4.73215 62.6313 5.96953 62.487 10.3262C62.195 19.1289 62.6592 76.1263 62.897 80.9028C62.979 82.6182 62.4246 89.6768 63.9785 91.3414C64.9322 92.3623 75.3167 91.7153 75.9571 91.4922C77.0625 91.1077 80.2408 84.1196 83.4142 80.9635C80.522 81.1168 69.4258 81.9474 68.8182 80.5305C68.2106 79.1135 68.0736 18.2425 67.7522 13.8506C79.1693 14.0506 90.587 13.9539 102.005 13.5603C102.516 35.7495 101.628 53.8887 102.04 68.2059C102.122 71.139 103.002 76.5182 101.298 79.0832C100.366 80.4854 98.5096 80.3952 96.8433 80.3812C95.5215 80.3731 89.6864 80.8273 89.4051 80.7617C90.2251 80.9528 90.4867 81.9803 90.4711 82.8175C90.4301 85.5866 89.1214 88.1532 87.9914 90.6813C87.3469 92.1236 88.3375 92.0228 89.4625 92.0162C90.5875 92.0097 98.9105 91.8711 101.932 91.557C104.429 91.2979 106.379 91.6587 107.252 89.0741C108.798 84.5042 108.068 78.2853 107.97 73.4973Z" fill="#38A1FF"/>
<path d="M84.9562 46.9745C84.5566 46.7346 84.081 46.6545 83.6248 46.7503C83.1687 46.8461 82.7655 47.1107 82.4962 47.4911C80.7504 49.6092 81.358 53.0516 81.741 55.496C81.791 55.8141 82.3035 55.7338 82.2969 55.4205C82.1858 53.6936 82.2794 51.9595 82.5757 50.2545C82.7258 49.5821 82.9037 48.4981 83.4892 48.052C85.7647 46.3226 85.5786 55.678 84.6512 55.077C84.538 55.0032 84.5765 50.567 84.5839 49.601C84.5801 49.4777 84.5326 49.3598 84.4501 49.2682C84.3675 49.1765 84.2551 49.1171 84.1329 49.1005C84.0107 49.0839 83.8865 49.1112 83.7825 49.1774C83.6785 49.2437 83.6013 49.3446 83.5646 49.4624C83.2383 51.0663 83.1879 52.714 83.4154 54.3349C83.5023 55.1631 83.6147 56.4013 84.6987 56.4398C85.9287 56.4833 86.1608 55.0876 86.2928 54.1594C86.4898 52.7631 86.4796 51.3453 86.2624 49.952C86.1091 48.9434 85.8951 47.5994 84.9562 46.9745Z" fill="#38A1FF"/>
<path d="M88.5321 58.5677C90.0737 56.1791 89.963 51.1295 89.5399 48.3456C89.1053 45.483 87.0725 41.6519 83.5908 42.1956C77.7778 43.0976 76.6306 54.3439 80.4748 58.6956C80.5207 58.7416 80.5806 58.771 80.645 58.7794C80.7094 58.7878 80.7748 58.7746 80.8309 58.7419C80.8871 58.7093 80.9309 58.6589 80.9554 58.5988C80.98 58.5387 80.984 58.4721 80.9668 58.4095C80.5929 57.0696 79.9541 55.8674 79.6687 54.4857C78.8356 50.4604 79.6818 44.3505 83.4899 43.3657C86.9142 42.4801 88.3583 47.1705 88.569 49.6461C88.9402 52.5242 88.5969 55.4495 87.5694 58.1634C87.33 58.7399 88.2205 59.0507 88.5321 58.5677Z" fill="#38A1FF"/>
<path d="M77.8994 59.1949C78.0445 59.4991 78.4734 59.2769 78.4119 58.9793C77.1622 52.7653 78.0667 52.5013 77.8494 49.9166C77.8207 49.5706 77.2926 49.3279 77.1163 49.7174C76.5788 51.2615 76.4254 52.9133 76.6694 54.5299C76.7915 56.1469 77.2083 57.7279 77.8994 59.1949Z" fill="#38A1FF"/>
<path d="M79.1689 42.2931C78.1636 43.626 77.5298 45.2018 77.3321 46.8596C77.287 47.2065 77.7651 47.368 77.8725 47.0089C78.5083 44.8585 79.7632 42.9429 81.4805 41.5009C82.0847 41.1036 82.6517 40.6524 83.1746 40.1529C83.3558 39.938 83.2566 39.5083 82.9237 39.5477C81.4255 39.7224 80.0455 41.1524 79.1689 42.2931Z" fill="#38A1FF"/>
<path d="M85.7535 39.8766C85.7115 39.8825 85.6721 39.9007 85.6404 39.9288C85.6086 39.9569 85.5858 39.9938 85.5748 40.0348C85.5638 40.0757 85.5651 40.119 85.5785 40.1593C85.5919 40.1995 85.6168 40.235 85.6501 40.2612C90.3709 42.4752 89.5041 46.6367 90.4061 49.3886C90.4972 49.6633 90.9539 49.7166 91.0187 49.3886C91.6903 46.002 90.0052 39.9692 85.7535 39.8766Z" fill="#38A1FF"/>
<path d="M90.3278 58.9875C91.7595 57.1556 91.7062 54.457 91.1929 52.3045C91.0945 51.8945 90.5213 52.088 90.5763 52.4759C90.8895 54.6899 90.1589 56.5095 89.6915 58.6177C89.6177 58.9531 90.0785 59.3057 90.3278 58.9875Z" fill="#38A1FF"/>
<path d="M80.3068 38.148C80.3824 38.125 80.4487 38.0782 80.4958 38.0147C80.5429 37.9511 80.5683 37.8741 80.5683 37.795C80.5683 37.7159 80.5429 37.6389 80.4958 37.5753C80.4487 37.5118 80.3824 37.465 80.3068 37.442C78.9251 37.0615 72.9104 37.1599 71.3688 37.1632C71.22 37.1645 71.0776 37.2242 70.9724 37.3294C70.8672 37.4346 70.8075 37.5769 70.8062 37.7257C70.7846 40.3759 70.9017 43.0254 71.1572 45.6633C71.1631 45.7209 71.1902 45.7741 71.2331 45.8129C71.2761 45.8516 71.3318 45.8731 71.3897 45.8731C71.4475 45.8731 71.5033 45.8516 71.5462 45.8129C71.5892 45.7741 71.6162 45.7209 71.6222 45.6633C71.8632 43.2033 71.9272 40.7589 71.9313 38.2948C73.2843 38.294 78.9136 38.4809 80.3068 38.148Z" fill="#38A1FF"/>
<path d="M98.0052 44.6293C98.1194 42.3505 98.1 40.067 97.947 37.7905C97.9444 37.6415 97.8841 37.4994 97.7786 37.3941C97.6732 37.2888 97.531 37.2286 97.382 37.2263C94.7158 37.2499 92.0531 37.421 89.4058 37.7388C89.3347 37.7388 89.2665 37.7671 89.2162 37.8174C89.1659 37.8676 89.1377 37.9358 89.1377 38.007C89.1377 38.0781 89.1659 38.1463 89.2162 38.1966C89.2665 38.2468 89.3347 38.2751 89.4058 38.2751C91.8872 38.4391 94.3537 38.4227 96.8367 38.3661C96.8362 40.4943 96.9808 42.62 97.2696 44.7285C97.3443 45.1721 97.9691 45.018 98.0052 44.6293Z" fill="#38A1FF"/>
<path d="M89.4618 65.4195C91.9071 65.636 94.3646 65.5565 96.8181 65.5278C96.967 65.5269 97.1096 65.4674 97.2149 65.3621C97.3202 65.2568 97.3797 65.1142 97.3806 64.9653C97.4512 62.8023 97.3009 60.6378 96.932 58.5053C96.8673 58.2068 96.3523 58.1847 96.3031 58.5053C96.0908 60.4666 96.0683 62.4437 96.2359 64.4093C93.9751 64.4331 91.7119 64.4437 89.4643 64.6922C89.3708 64.6963 89.2825 64.7363 89.2177 64.8038C89.1529 64.8713 89.1165 64.9611 89.1162 65.0547C89.1159 65.1483 89.1516 65.2384 89.216 65.3063C89.2803 65.3743 89.3684 65.4148 89.4618 65.4195Z" fill="#38A1FF"/>
<path d="M72.2246 63.7386C71.9786 61.6656 71.8605 59.582 71.694 57.5016C71.6883 57.4227 71.6529 57.3488 71.595 57.2949C71.537 57.241 71.4608 57.2111 71.3816 57.2111C71.3025 57.2111 71.2262 57.241 71.1683 57.2949C71.1103 57.3488 71.0749 57.4227 71.0692 57.5016C70.9013 59.7671 70.9419 62.0431 71.1906 64.3011C71.1966 64.4451 71.2567 64.5816 71.3588 64.6834C71.4609 64.7852 71.5975 64.8448 71.7416 64.8505C72.5728 64.9993 73.4296 64.896 74.2016 64.5536C74.2671 64.5128 74.3195 64.4539 74.3525 64.3841C74.3855 64.3142 74.3977 64.2364 74.3877 64.1598C74.3777 64.0832 74.3458 64.0111 74.296 63.9521C74.2461 63.8932 74.1803 63.8498 74.1065 63.8271C73.4886 63.6922 72.8524 63.6623 72.2246 63.7386Z" fill="#38A1FF"/>
<path d="M85.6026 123.699C80.6481 122.792 74.7614 123.234 70.2317 125.715C73.788 120.139 77.0041 114.317 80.1537 108.51C83.396 102.535 86.7235 96.4968 89.145 90.1418C90.1437 87.5178 91.7632 84.0188 90.539 81.2308C89.5099 78.8807 86.7858 78.5068 84.6825 79.6228C82.6448 80.7052 81.1656 82.8274 79.8445 84.6707C77.0309 88.7864 74.4483 93.0553 72.1087 97.4578C71.1911 94.5378 67.4289 92.9691 65.1854 95.0913C64.0735 92.2122 60.7484 90.3886 58.0309 92.0819C57.8038 90.6284 57.091 89.2948 56.0088 88.2984C54.5771 87.1463 52.5968 87.2545 50.9527 87.8417C47.9072 88.9306 43.4546 92.7239 41.1873 94.9814C35.4577 100.671 31.3055 107.752 29.1382 115.53C28.0902 119.37 27.522 123.675 28.6708 127.545C27.6342 128.845 26.6942 130.219 25.8582 131.656C24.7763 131.158 23.683 130.692 22.5782 130.256C17.9247 136.623 13.3688 143.065 9.07443 149.679C7.08593 152.741 4.84897 156.198 9.17365 158.476C13.2408 160.617 50.4319 160.227 52.0416 158.017C52.3422 157.601 52.54 157.119 52.619 156.612C52.6979 156.105 52.6557 155.586 52.4959 155.098C52.0555 153.725 48.2385 148.844 47.2217 147.678C48.0783 146.621 48.8046 145.465 49.3848 144.234C49.498 143.95 49.1191 143.698 48.8805 143.847C47.7464 144.556 46.4558 146.875 46.4558 146.875C46.4558 146.875 34.1935 135.628 26.5486 131.982C27.4574 130.962 28.3046 129.889 29.0857 128.768C29.2333 129.129 29.3948 129.486 29.5777 129.834C29.6257 129.912 29.7002 129.971 29.7877 129.999C29.8752 130.028 29.9699 130.023 30.0547 129.988C30.1395 129.952 30.2088 129.887 30.2499 129.805C30.291 129.723 30.3012 129.629 30.2788 129.539C27.7696 122.182 30.0328 114.243 33.4333 107.538C36.6415 101.19 41.2877 95.6796 47.0019 91.4447C48.7026 90.1877 50.6361 88.7437 52.8083 88.5329C55.4044 88.2812 56.9559 90.7264 57.0141 93.1249C57.0176 93.2353 57.0529 93.3424 57.1157 93.4332C57.1785 93.5241 57.2662 93.5949 57.3683 93.6371C57.4703 93.6794 57.5824 93.6913 57.6911 93.6714C57.7998 93.6515 57.9004 93.6007 57.9809 93.5251C60.117 91.498 63.7274 92.6436 64.3933 96.4418C64.426 96.5465 64.4881 96.6396 64.5722 96.7101C64.6562 96.7806 64.7587 96.8256 64.8675 96.8397C64.9763 96.8537 65.0868 96.8363 65.1861 96.7895C65.2853 96.7427 65.369 96.6684 65.4273 96.5755C65.7716 95.9929 66.3146 95.5541 66.9565 95.3399C67.5985 95.1257 68.2961 95.1504 68.9213 95.4094C70.9377 96.2294 71.1591 98.432 71.4633 98.6976C70.4488 100.661 69.5425 102.678 68.7483 104.74C68.6204 105.076 69.1665 105.303 69.328 104.986C71.6937 100.339 80.5924 83.2013 85.1015 80.679C86.5095 79.8909 88.4512 79.813 89.3656 81.3686C90.2126 82.8118 89.7756 84.5617 89.3377 86.0631C86.1397 97.0412 74.9294 115.385 68.5867 126.281C68.4695 126.482 68.3407 127.584 69.7503 126.867C74.166 124.616 84.5177 123.156 89.0499 126.121C90.1314 126.829 91.1909 128.614 89.5345 128.933C86.8932 129.443 77.5625 131.898 73.2271 133.433C68.9918 134.933 65.2789 137.171 61.3978 139.384C57.1379 141.814 51.6898 143.931 47.0675 141.154C46.9381 141.078 46.7838 141.056 46.6384 141.094C46.4931 141.132 46.3687 141.225 46.2926 141.355C46.2165 141.484 46.1949 141.639 46.2326 141.784C46.2702 141.929 46.3641 142.054 46.4935 142.13C50.6402 144.615 55.6603 143.557 59.7619 141.541C62.1292 140.378 64.2563 138.781 66.6237 137.623C78.1152 132.008 85.2606 131.725 89.3204 130.25C90.9711 129.651 92.2298 128.168 91.0793 126.458C89.9289 124.748 87.5058 124.048 85.6026 123.699Z" fill="#191919"/>
<path d="M110.691 42.057C112.037 47.305 111.183 52.3939 113.752 57.3524C115.403 60.5406 117.977 63.1933 118.852 66.7652C119.617 70.3068 119.097 74.0051 117.386 77.1989C117.333 77.2896 117.318 77.3976 117.345 77.4993C117.371 77.6009 117.437 77.6879 117.528 77.7409C117.619 77.794 117.727 77.8088 117.828 77.7822C117.93 77.7556 118.017 77.6897 118.07 77.5991C118.406 77.1327 118.706 76.6408 118.966 76.128C119.54 76.8422 122.789 79.9115 123.726 80.8208C123.995 81.0824 124.377 80.6888 124.136 80.4108C123.278 79.4137 120.241 75.7532 119.424 75.1112C120.303 72.7943 120.571 70.2899 120.202 67.8394C119.628 63.9854 117.303 61.1343 115.358 57.8986C111.27 51.0926 114.075 41.7921 109.239 36.6761C108.829 36.2448 108.062 36.8131 108.406 37.3248C109.44 38.7556 110.213 40.3575 110.691 42.057Z" fill="#191919"/>
<path d="M108.543 98.8477C109.047 99.1757 109.674 98.3918 109.193 98.0048C107.969 97.029 106.685 96.1328 105.346 95.3217C106.386 95.0278 107.332 94.4722 108.096 93.708C108.37 93.3701 108.124 92.783 107.639 92.9273C106.409 93.2922 105.337 94.1458 104.087 94.5452C102.101 95.1453 100.017 95.3441 97.9537 95.1301C95.8908 94.9161 93.8911 94.2936 92.0713 93.2988C91.8556 93.184 91.5629 93.4956 91.7859 93.6711C94.1084 95.4402 96.9575 96.3787 99.8768 96.3361C101.4 96.2187 102.912 95.9837 104.398 95.6333C104.398 95.6333 107.076 97.9006 108.543 98.8477Z" fill="#191919"/>
<path d="M154.935 102.09C151.396 95.7038 146.171 89.9089 140.913 84.8995C140.117 84.141 132.693 76.4806 132.314 76.8086C122.195 85.563 113.361 95.701 106.074 106.923C104.323 109.62 104.491 110.769 106.325 113.067C111.597 119.675 117.377 125.862 123.612 131.571C128.019 135.607 134.609 142.361 141.064 141.717C145.233 141.302 148.921 138.561 151.282 135.102C153.622 131.672 154.938 127.542 155.884 123.484C157.45 116.774 158.408 108.356 154.935 102.09ZM120.212 114.111C119.094 114.342 115.292 114.126 114.763 110.764C114.674 109.905 114.862 109.041 115.298 108.296C115.735 107.552 116.397 106.965 117.19 106.623C118.809 105.864 120.434 106.33 121.864 107.465C123.137 108.486 124.938 113.134 120.212 114.111Z" fill="#191919"/>
</svg>
