<svg width="198" height="198" viewBox="0 0 198 198" fill="none" xmlns="http://www.w3.org/2000/svg">
<path d="M164.069 75.6254C163.543 78.0172 159.884 69.8378 160.01 67.7767C160.073 66.7193 161.19 67.5044 162.4 69.6804C163.6 71.8406 164.303 74.5671 164.069 75.6254Z" fill="#38A1FF"/>
<path d="M161.108 79.919C161.179 79.9585 161.24 80.0132 161.288 80.079C161.335 80.1449 161.368 80.2203 161.383 80.3001C161.404 80.4269 161.32 80.5971 161.002 80.7021C159.104 81.4475 152.791 80.1081 151.271 78.7983C150.361 78.0152 151.844 77.7509 154.55 78.1419C156.81 78.4138 159.019 79.0124 161.108 79.919Z" fill="#38A1FF"/>
<path d="M160.769 84.1284C161.826 83.7908 161.41 85.1283 159.818 87.1113C158.225 89.0943 156.031 90.9832 154.994 91.3C153.958 91.6168 154.429 90.2476 156.009 88.2755C157.589 86.3035 159.712 84.467 160.769 84.1284Z" fill="#38A1FF"/>
<path d="M172.678 23.6919C166.97 17.64 156.419 17.437 150.911 23.6919C146.792 28.3716 146.596 35.4323 149.579 40.51V48.8072L158.928 47.1568C164.26 48.3834 170.227 47.0103 173.715 42.7147C178.076 37.339 177.526 28.8309 172.678 23.6919ZM164.894 39.811C161.742 39.7269 158.23 39.514 156.982 39.0497C155.734 38.5854 157.236 37.8231 160.494 37.633C166.526 37.2806 173.502 40.0427 164.894 39.811ZM164.471 32.196C160.579 32.5771 156.178 32.5138 154.613 32.0485C153.048 31.5832 154.93 30.8743 158.822 30.4823C162.715 30.0902 167.118 30.1556 168.681 30.6308C170.244 31.106 168.363 31.8158 164.471 32.196Z" fill="#38A1FF"/>
<path d="M41.3138 89.5864C40.7089 89.1835 42.6394 89.4785 13.9611 89.6497C13.5549 89.6542 13.1669 89.819 12.8817 90.1083C12.5965 90.3976 12.4372 90.7879 12.4385 91.1941V116.981C12.4406 117.39 12.6039 117.781 12.8931 118.07C13.1823 118.36 13.5739 118.523 13.9829 118.525H40.4911C40.9001 118.523 41.2917 118.36 41.5809 118.07C41.8701 117.781 42.0334 117.39 42.0355 116.981V100.584C42.0358 100.36 42.0849 100.139 42.1793 99.9355C42.2736 99.7322 42.4111 99.5519 42.5822 99.407C42.7532 99.2622 42.9537 99.1563 43.1697 99.0966C43.3858 99.037 43.6122 99.0251 43.8334 99.0617L54.263 99.5695L41.3138 89.5864ZM24.961 112.01C15.7382 109.598 13.873 99.3171 18.9537 97.9846C24.0344 96.652 25.9134 101.539 25.9134 101.539C25.9134 101.539 33.3057 95.9501 35.4114 101.539C38.3022 109.212 24.961 112.01 24.961 112.01ZM32.7464 93.6276C27.8805 94.0077 22.3593 93.9444 20.4129 93.4791C18.4666 93.0138 20.8149 92.3049 25.6807 91.9139C30.5466 91.5228 36.0688 91.5892 38.0132 92.0614C39.9823 92.5405 37.6112 93.2464 32.7464 93.6276Z" fill="#38A1FF"/>
<path d="M86.3708 74.5669C85.7154 75.7549 86.8955 76.5311 87.2172 76.1747C90.017 73.075 93.4849 78.1636 93.4542 76.4925C93.3721 71.2455 87.0272 73.3829 86.3708 74.5669Z" fill="#191919"/>
<path d="M99.8468 76.2599C99.7429 77.9102 102.312 73.1028 104.902 76.3658C105.199 76.743 106.387 76.0688 105.812 74.8422C105.236 73.6156 100.171 71.099 99.8468 76.2599Z" fill="#191919"/>
<path d="M107.483 84.7848C107.6 83.7473 107.546 83.177 107.42 83.0919C106.958 82.8612 106.044 88.0528 102.068 93.8829C99.3332 97.8894 95.2891 101.865 90.4539 101.477C87.0067 101.2 83.7991 98.6755 81.337 96.2302C79.8827 94.7858 79.4629 94.7571 80.5965 96.5895C81.4196 97.8955 82.416 99.0838 83.5586 100.122C88.0918 104.289 93.3328 104.457 97.7314 101.409C102.833 97.8795 106.863 90.307 107.483 84.7848Z" fill="#191919"/>
<path d="M116.77 110.551C114.752 111.092 114.612 111.432 116.685 111.375C127.61 111.078 136.1 113.789 145.073 124.321C145.687 125.041 146.216 125.675 146.703 126.246C147.182 126.901 147.698 127.529 148.247 128.127C140.29 136.513 130.784 144.584 120.239 149.45C113.396 152.608 105.235 153.974 108.541 153.85C120.154 153.416 131.076 146.306 139.743 139.084C147.845 132.351 154.991 124.544 160.981 115.879C161.487 115.137 162.923 113.701 162.758 112.748C162.624 111.97 160.241 110.372 158.676 108.179C156.07 104.522 158.775 101.1 161.975 99.0616C163.252 98.2478 163.856 97.8558 163.646 97.8132C163.331 97.8447 163.024 97.9308 162.738 98.0677C158.258 99.7507 154.867 103.165 156.666 107.587C157.653 109.639 159.058 111.462 160.791 112.938C159.504 115.393 157.304 117.7 155.544 119.856C153.375 122.524 151.11 125.113 148.754 127.619C148.734 127.559 148.705 127.502 148.669 127.45C142.701 115.361 129.129 107.229 116.77 110.551Z" fill="#191919"/>
<path d="M98.2386 104.987C97.8426 104.453 97.5387 104.436 97.4348 105.093C96.7942 109.124 103.666 117.343 103.276 114.528C103.094 113.218 101.368 110.286 99.891 107.758C99.1564 106.505 98.6257 105.511 98.2386 104.987Z" fill="#191919"/>
<path d="M184.821 115.606C182.962 120.085 180.584 124.331 177.734 128.256C166.172 144.18 161.696 150.079 145.707 162.102C137.125 168.556 127.738 174.759 117.404 177.843C104.839 181.589 91.0896 182.07 78.6948 177.335C73.7943 175.555 69.3507 172.708 65.6852 169C59.7452 162.755 56.8197 152.796 58.8106 144.356C60.8421 135.743 67.3454 130.835 67.5464 130.183C67.6454 129.869 64.6754 132.097 62.2796 135.07C59.955 137.954 58.3104 141.325 57.468 144.933C56.6256 148.54 56.6071 152.291 57.4137 155.906C58.3445 161.4 60.8844 166.495 64.712 170.545C64.3101 170.143 61.3915 170.464 60.7777 170.459C53.7161 170.409 48.574 170.137 31.4579 171.01C31.4163 167.582 31.3945 164.179 31.353 160.813C30.9649 129.463 29.175 114.528 28.7087 127.093C28.4117 135.211 29.4066 153.268 29.4066 173.167L30.5491 173.125C42.0331 173.125 48.282 172.511 65.601 172.511C82.233 185.183 106.006 185.163 124.747 177.482C143.177 169.929 159.662 155.453 171.265 139.32C178.067 129.863 180.167 127.47 182.899 121.678C185.1 117.004 186.484 111.607 184.821 115.606Z" fill="#191919"/>
<path d="M176.698 119.286C176.24 119.948 176.296 120.239 177.1 119.979C178.42 119.425 179.588 118.562 180.506 117.463C184.565 112.919 185.449 105.834 183.848 107.922C182.875 109.191 181.246 113.062 179.131 116.066C178.073 117.574 177.15 118.636 176.698 119.286Z" fill="#191919"/>
<path d="M180.294 107.525C182.212 104.601 182.503 102.82 181.352 103.654C180.202 104.489 177.813 107.393 175.662 109.979C173.511 112.565 172.578 114.117 173.97 113.618C175.362 113.119 178.383 110.44 180.294 107.525Z" fill="#191919"/>
<path d="M95.0397 88.7191C92.7103 88.5003 92.338 89.0755 94.5536 90.1368C94.9331 90.3148 95.3508 90.3962 95.7694 90.3737C96.188 90.3511 96.5945 90.2254 96.9526 90.0076C97.3108 89.7898 97.6095 89.4867 97.8221 89.1254C98.0347 88.7641 98.1546 88.3559 98.1711 87.937C98.1838 87.5198 98.1623 87.1023 98.1068 86.6886C97.7791 82.3267 96.1267 79.4517 95.801 81.1446C95.684 82.206 95.684 83.277 95.801 84.3384C96.1099 88.4152 96.1525 87.9598 96.0337 88.231C95.9397 88.4059 95.7933 88.547 95.615 88.6346C95.4368 88.7221 95.2356 88.7517 95.0397 88.7191Z" fill="#191919"/>
<path d="M88.0429 95.0017C90.4605 96.1303 93.4404 93.9315 92.0831 93.4791C90.9991 93.1177 89.6497 93.8117 88.0845 92.6326C87.528 92.152 86.9259 91.7269 86.2867 91.3635C85.0066 90.8586 85.7095 92.7762 86.5619 93.8602C86.9731 94.3372 87.477 94.7255 88.0429 95.0017Z" fill="#191919"/>
<path d="M107.652 77.741L99.1477 78.7775C99.1061 78.7775 99.0843 78.7983 99.0635 78.7983C98.212 78.3316 97.2621 78.073 96.2915 78.0436C95.321 78.0142 94.3572 78.2148 93.4789 78.629C93.4789 78.629 85.6094 77.7509 85.6094 77.738L81.7593 76.1313C86.3044 64.2156 98.3478 59.4408 107.06 68.6637C107.292 68.9128 107.599 69.0803 107.934 69.1413C108.27 69.2023 108.616 69.1535 108.921 69.0023C110.854 68.132 112.48 66.7005 113.589 64.8938C114.697 63.0872 115.237 60.9889 115.137 58.8716C113.992 36.3224 88.2092 32.302 72.0049 40.5516C55.8005 48.8013 51.3812 64.2889 56.8826 76.4708C61.6772 87.0925 72.9384 90.2635 76.4925 91.004C76.4925 97.3905 77.4508 104.15 81.294 114.336C81.9626 116.182 82.7616 117.978 83.6849 119.71C84.362 120.916 84.8481 121.508 84.9966 121.508C85.3065 121.508 84.3036 119.429 82.7543 114.04C79.419 102.48 77.7716 93.7245 79.0309 81.8871L78.1003 82.0138C77.5167 82.1023 76.9202 82.0463 76.3633 81.8507C75.8063 81.6552 75.3058 81.326 74.9056 80.8922C74.5953 80.5049 74.396 80.0406 74.329 79.5489C74.2621 79.0572 74.3299 78.5565 74.5254 78.1004C75.2006 76.656 76.944 76.5451 78.523 76.8134C79.2229 76.9312 79.6863 77.046 79.9615 77.0886C81.3475 78.232 84.9679 81.2397 85.8025 81.9327C86.6697 83.6256 87.9805 85.1581 89.906 85.4234C92.6117 85.7966 93.668 82.2079 94.0314 80.0507C94.7387 79.6976 95.5253 79.5335 96.3147 79.5743C97.1042 79.6151 97.8697 79.8593 98.5368 80.2833C98.9814 82.4405 100.335 85.7996 103 85.4442C106.215 85.0165 107.672 81.0882 108.331 78.7122C108.371 78.6029 108.384 78.4856 108.369 78.3703C108.354 78.2549 108.311 78.1449 108.245 78.0495C108.178 77.9542 108.089 77.8764 107.986 77.8226C107.883 77.7689 107.768 77.7409 107.652 77.741ZM63.1018 70.5269C63.2265 72.0505 64.0997 74.378 63.6097 75.858C63.5047 76.1758 61.2 71.6268 61.1139 71.3307C59.588 65.8796 60.0145 60.0667 62.3197 54.8967C64.9115 49.032 72.0286 43.389 78.8616 45.4195C81.0832 45.9273 80.6832 46.3431 78.6082 46.6253C66.8529 48.2222 62.1088 58.3489 63.1018 70.5269Z" fill="#191919"/>
<path d="M29.6364 32.5554C29.6364 32.5554 28.89 97.7726 31.2016 80.9347C32.4045 72.1762 31.5828 54.9581 31.6036 34.5037C94.9844 34.575 165.956 33.4513 138.326 32.6851C121.232 32.2079 29.6364 32.5554 29.6364 32.5554Z" fill="#191919"/>
<path d="M169.083 75.9006C169.548 73.2137 169.611 65.5987 169.23 58.8924C168.849 52.1861 168.141 48.9271 167.665 51.6159C167.189 54.3047 167.126 61.9178 167.517 68.6231C167.908 75.3284 168.617 78.5865 169.083 75.9006Z" fill="#191919"/>
<path d="M171.262 166.629C170.892 152.751 170.161 146.025 169.696 151.589C169.283 156.539 169.316 166.992 169.316 171.6C169.316 171.749 169.278 171.739 169.062 171.748C166.558 171.847 165.588 171.901 155.968 172.15C133.179 172.744 133.601 174.06 155.418 174.097C158.395 174.101 164.189 174.139 168.28 173.864C169.218 173.801 170.133 173.871 170.818 173.166C171.539 172.421 171.405 171.986 171.262 166.629Z" fill="#191919"/>
<path d="M35.7703 182.41C35.313 181.567 34.58 180.908 33.6942 180.542C32.8085 180.176 31.8238 180.126 30.9054 180.4C27.0444 181.421 28.2324 188.853 34.7971 190.554C34.8797 190.582 34.9689 190.582 35.0515 190.554C35.2634 190.515 40.4322 189.395 42.032 186.45C42.3142 185.928 42.4759 185.349 42.5052 184.756C42.5345 184.163 42.4307 183.571 42.2013 183.024C41.1499 180.241 38.2631 180.804 35.7703 182.41ZM41.0806 185.943C39.8372 188.23 35.7287 189.285 34.9664 189.475C31.6241 188.545 29.8055 185.795 29.8055 183.658C29.7635 183.344 29.7949 183.024 29.8973 182.723C29.9997 182.423 30.1702 182.15 30.3956 181.927C30.621 181.704 30.8951 181.535 31.1963 181.436C31.4976 181.336 31.8179 181.308 32.132 181.352C32.7662 181.382 33.3781 181.596 33.8927 181.968C34.4073 182.34 34.8024 182.853 35.0297 183.446L35.305 184.123L35.8762 183.679C36.5741 183.15 38.6888 181.863 40.0441 182.262C40.3135 182.354 40.5564 182.51 40.7517 182.717C40.947 182.924 41.0888 183.176 41.1648 183.45C41.3413 183.845 41.4258 184.274 41.4119 184.706C41.398 185.138 41.2861 185.561 41.0846 185.943H41.0806Z" fill="#191919"/>
<path d="M53.9843 181.585C50.6391 179.518 45.6188 182.001 46.1356 187.085C46.5108 190.765 50.3926 191.412 54.0259 190.659L58.9551 190.998L56.2049 187.11C56.4681 186.073 56.3949 184.979 55.9958 183.986C55.5967 182.992 54.8923 182.152 53.9843 181.585ZM56.7563 189.729C55.8039 189.59 54.8414 189.534 53.8794 189.56C53.8368 189.56 50.2451 190.379 48.3581 189.031C48.0287 188.791 47.7572 188.48 47.5633 188.121C47.3694 187.762 47.2581 187.365 47.2374 186.958C47.1287 186.347 47.1546 185.719 47.3133 185.119C47.4721 184.519 47.7599 183.961 48.1567 183.483C48.5534 183.006 49.0496 182.621 49.6105 182.355C50.1715 182.089 50.7836 181.949 51.4044 181.944C52.0415 181.947 52.6684 182.105 53.2308 182.405C53.7933 182.704 54.2744 183.136 54.6326 183.663C54.9908 184.189 55.2153 184.796 55.2867 185.429C55.3582 186.062 55.2744 186.703 55.0426 187.296L56.7563 189.729Z" fill="#191919"/>
<path d="M66.528 187.043L69.9554 193.05L74.547 180.633L60.291 183.764L66.528 187.043ZM63.4818 184.187L71.4354 182.452L66.8666 185.985L63.4818 184.187ZM69.7435 190.469L67.6279 186.789L72.4928 183.027L69.7435 190.469Z" fill="#191919"/>
<path d="M148.543 191.485L153.873 185.413L159.69 190.787V178.686H148.543V191.485ZM149.643 179.787H158.59V188.269L153.789 183.848L149.643 188.565V179.787Z" fill="#191919"/>
<path d="M41.0595 28.2399C46.8569 28.2399 52.8543 23.5998 53.0751 17.0074C53.2959 10.415 47.6192 5.66101 42.2445 5.03434C35.854 4.28887 29.6715 8.75674 28.7904 14.7868C27.7618 21.8069 34.1275 28.2399 41.0595 28.2399ZM33.085 23.6919C34.1078 22.6507 35.3332 21.8304 36.6855 21.2815C38.0378 20.7326 39.4883 20.4668 40.9474 20.5006C42.4065 20.5343 43.8432 20.8669 45.1686 21.4778C46.4941 22.0887 47.6803 22.9649 48.6538 24.0522C47.6103 25.0554 46.3786 25.8422 45.0298 26.3673C43.6809 26.8925 42.2415 27.1456 40.7944 27.1121C39.3473 27.0786 37.9211 26.7592 36.598 26.1722C35.2749 25.5852 34.081 24.7422 33.085 23.6919ZM42.094 6.09265C46.9836 6.63517 52.1584 10.9783 51.9524 16.944C51.866 19.2771 50.9679 21.5068 49.4131 23.2484C48.337 22.0648 47.0312 21.1127 45.5752 20.4502C44.1193 19.7877 42.5436 19.4286 40.9444 19.3949C39.3451 19.3612 37.7557 19.6535 36.2731 20.2541C34.7905 20.8546 33.4457 21.7508 32.3207 22.888C25.6412 14.8244 33.2414 5.10859 42.096 6.09265H42.094Z" fill="#191919"/>
<path d="M64.647 23.4633L114.274 22.2753C115.749 22.2442 117.153 21.6357 118.185 20.5806C119.216 19.5254 119.792 18.1078 119.79 16.6323C119.784 15.2516 119.239 13.9278 118.271 12.9436C117.303 11.9593 115.988 11.3926 114.607 11.3645C103.311 11.2071 75.8113 10.8833 64.4728 11.2586C63.0049 11.3013 61.6114 11.9147 60.5884 12.9684C59.5654 14.022 58.9935 15.433 58.9941 16.9016V17.7926C59.0019 19.2911 59.5994 20.7262 60.6573 21.7875C61.7153 22.8488 63.1486 23.4508 64.647 23.4633ZM60.099 16.9293C60.0925 15.7462 60.549 14.6076 61.3709 13.7566C62.1929 12.9057 63.315 12.4099 64.4976 12.3753C77.028 12.006 102.118 12.3337 114.592 12.4812C115.685 12.5011 116.726 12.9485 117.493 13.7275C118.261 14.5064 118.692 15.5549 118.695 16.6481C118.706 17.8395 118.245 18.9869 117.413 19.8392C116.581 20.6916 115.444 21.1795 114.253 21.1962L64.7738 22.3842C64.1661 22.4003 63.5614 22.2946 62.9953 22.0734C62.4292 21.8521 61.913 21.5197 61.4774 21.0959C61.0417 20.672 60.6953 20.1652 60.4585 19.6054C60.2218 19.0455 60.0996 18.444 60.099 17.8361V16.9293Z" fill="#191919"/>
<path d="M39.5777 17.1766C43.8733 18.1844 47.961 13.0958 44.2535 9.24373C43.5655 8.49735 42.6612 7.98506 41.6673 7.77873C40.6734 7.5724 39.6399 7.68238 38.7117 8.09325C37.7835 8.50412 37.0072 9.19526 36.4918 10.0697C35.9763 10.9442 35.7475 11.958 35.8375 12.9691C35.9569 13.9684 36.3793 14.9072 37.0479 15.6593C37.7165 16.4115 38.5993 16.941 39.5777 17.1766ZM40.2975 8.80021C40.8704 8.75784 41.4458 8.83914 41.9846 9.03858C42.5234 9.23802 43.013 9.55095 43.4203 9.95616C43.8275 10.3614 44.1429 10.8494 44.3451 11.3872C44.5473 11.9249 44.6315 12.4999 44.5921 13.073C44.4816 13.5867 44.2706 14.0734 43.971 14.5051C43.6715 14.9367 43.2894 15.3048 42.8469 15.588C42.4043 15.8712 41.9101 16.064 41.3927 16.1552C40.8752 16.2464 40.3448 16.2342 39.8322 16.1193C39.0806 15.9359 38.4028 15.5281 37.8888 14.9499C37.3749 14.3718 37.0492 13.6508 36.9552 12.883C36.8965 11.9068 37.2079 10.9443 37.8274 10.1876C38.4469 9.43084 39.3289 8.93545 40.2975 8.80021Z" fill="#191919"/>
<path d="M172.531 107.293C171.92 107.878 171.361 108.515 170.859 109.196C170.364 109.956 170.5 110.214 171.303 109.873C176.827 107.53 180.46 101.684 180.357 97.4985C181.774 90.0101 182.291 82.3119 182.938 78.6716C182.972 78.4795 182.954 78.2817 182.885 78.0988C182.817 77.916 182.701 77.7547 182.55 77.6317C182.398 77.5087 182.217 77.4284 182.024 77.3992C181.831 77.3701 181.634 77.3931 181.453 77.4658L166.247 83.5365C166.041 83.6186 165.866 83.7622 165.745 83.9477C165.624 84.1332 165.563 84.3516 165.571 84.573L166.036 105.897C166.947 106.598 168.002 107.087 169.126 107.329C170.249 107.57 171.413 107.558 172.531 107.293ZM175.196 84.9324C175.654 85.0479 176.059 85.3164 176.343 85.6934C176.628 86.0704 176.775 86.5333 176.761 87.0055C176.757 87.5055 176.57 87.9867 176.234 88.3573C175.899 88.728 175.439 88.9621 174.941 89.0152C174.477 89.0281 174.022 88.8791 173.655 88.5935C173.289 88.3079 173.033 87.9036 172.932 87.45C172.887 87.1305 172.913 86.8052 173.007 86.4969C173.102 86.1885 173.263 85.9044 173.478 85.6646C173.694 85.4248 173.959 85.2351 174.256 85.1086C174.553 84.9821 174.873 84.922 175.196 84.9324ZM168.871 87.9578C169.343 86.3095 170.045 88.2954 170.436 92.4425C170.827 96.5896 170.754 101.285 170.288 102.937C169.823 104.588 169.124 102.577 168.722 98.4518C168.32 94.3265 168.391 89.6309 168.871 87.9578Z" fill="#191919"/>
<path d="M113.157 111.29C109.098 110.445 105.118 114.738 105.118 114.738C105.118 114.738 112.543 125.91 101.205 131.37C91.2631 136.153 82.3571 122.38 82.3571 122.38C80.0012 122.516 77.6994 123.141 75.598 124.214C73.4967 125.288 71.6418 126.788 70.1514 128.617C73.4739 135.716 77.8828 142.254 83.2194 147.994C91.5542 156.625 112.01 149.623 112.01 149.623C112.01 149.623 122.84 145.646 130.434 139.808L113.157 111.29ZM91.278 147.062C86.5369 147.59 82.1215 142.363 79.6851 138.96C78.4818 137.392 77.5847 135.612 77.0408 133.713C76.4775 130.786 80.086 135.164 82.1601 137.376C88.3189 143.932 88.3971 143.763 91.6581 145.9C92.5917 146.508 92.3343 146.944 91.278 147.062Z" fill="#38A1FF"/>
</svg>
