<svg width="70" height="65" viewBox="0 0 70 65" fill="none" xmlns="http://www.w3.org/2000/svg">
<circle cx="38.5" cy="33.5" r="31.5" fill="#E7EEFF"/>
<path d="M31.4507 10.0425C30.8754 9.92875 30.1799 9.9125 29.1659 10.0588C28.4405 10.1516 27.7427 10.3964 27.1183 10.7772C26.4939 11.158 25.9568 11.6663 25.5422 12.2688C24.7102 13.4518 24.2032 15.0735 24.0472 16.9715C24.0407 17.589 23.9334 19.799 23.7742 22.75H30.8754C31.3064 22.75 31.7197 22.9212 32.0245 23.226C32.3292 23.5307 32.5004 23.944 32.5004 24.375C32.5004 24.806 32.3292 25.2193 32.0245 25.524C31.7197 25.8288 31.3064 26 30.8754 26H23.5954C23.1859 33.3125 22.6204 42.7212 22.4222 45.2985V45.3083L22.4027 45.5357C22.2467 47.3947 22.0647 49.6048 21.4147 51.6425C20.7224 53.8102 19.4647 55.9 17.0922 57.291C13.7674 59.3548 10.1632 58.4123 7.39743 57.031C7.01171 56.8379 6.71848 56.4995 6.58226 56.0903C6.44604 55.681 6.47798 55.2343 6.67105 54.8486C6.86413 54.4629 7.20253 54.1697 7.6118 54.0335C8.02108 53.8972 8.4677 53.9292 8.85343 54.1222C11.2812 55.3377 13.5204 55.692 15.3892 54.522L15.4314 54.496C16.9427 53.6185 17.7942 52.2957 18.3174 50.6512C18.8537 48.9743 19.0097 47.0893 19.1754 45.1198L19.1819 45.0515V45.045C19.3769 42.4678 19.9327 33.215 20.3389 26H14.6254C14.1945 26 13.7811 25.8288 13.4764 25.524C13.1716 25.2193 13.0004 24.806 13.0004 24.375C13.0004 23.944 13.1716 23.5307 13.4764 23.226C13.7811 22.9212 14.1945 22.75 14.6254 22.75H20.5177C20.6382 20.7601 20.7346 18.7688 20.8069 16.7765C20.9824 14.469 21.6097 12.2102 22.8837 10.4C24.1837 8.5475 26.1142 7.23775 28.6784 6.8445L28.6947 6.84125C29.9492 6.6625 31.0412 6.64625 32.0877 6.8575C33.1407 7.06875 34.0507 7.48475 34.9607 8.03075C35.3305 8.25227 35.5971 8.61161 35.7019 9.02973C35.8068 9.44784 35.7412 9.89047 35.5197 10.2603C35.2982 10.63 34.9388 10.8967 34.5207 11.0015C34.1026 11.1063 33.66 11.0408 33.2902 10.8193C32.7293 10.4508 32.1059 10.1875 31.4507 10.0425ZM54.7759 29.7245C54.9273 29.8754 55.0473 30.0548 55.1292 30.2522C55.2112 30.4496 55.2533 30.6613 55.2533 30.875C55.2533 31.0887 55.2112 31.3004 55.1292 31.4978C55.0473 31.6952 54.9273 31.8746 54.7759 32.0255L44.3109 42.4905C45.7979 45.1751 47.3081 47.8467 48.8414 50.505L48.9747 50.739C49.1859 51.1128 49.3354 51.3565 49.4752 51.5515C49.6702 51.8245 49.8554 52.0195 50.2682 52.247C50.9702 52.3673 51.1782 52.221 51.2627 52.1658C51.4179 52.0492 51.5548 51.91 51.6689 51.753C51.7917 51.5986 51.9109 51.4415 52.0264 51.2817C52.1066 51.1669 52.2063 51.0304 52.3254 50.8722C52.4535 50.7015 52.6139 50.5577 52.7975 50.449C52.9811 50.3403 53.1844 50.2688 53.3956 50.2386C53.6069 50.2084 53.822 50.2201 54.0287 50.2731C54.2354 50.326 54.4297 50.4192 54.6004 50.5473C54.7711 50.6753 54.915 50.8357 55.0237 51.0193C55.1324 51.2029 55.2039 51.4062 55.2341 51.6174C55.2643 51.8287 55.2525 52.0438 55.1996 52.2505C55.1466 52.4573 55.0535 52.6515 54.9254 52.8223L54.7402 53.0757C54.3729 53.586 53.8302 54.3433 53.1152 54.834C52.0882 55.549 50.8662 55.705 49.3842 55.3865C49.2489 55.3578 49.1178 55.3119 48.9942 55.25C48.1285 54.845 47.3828 54.2224 46.8297 53.443C46.5865 53.0904 46.3609 52.7259 46.1537 52.351L46.0074 52.0942C44.6228 49.7023 43.261 47.2972 41.9222 44.8792L32.0259 54.7755C31.7212 55.0806 31.3078 55.2522 30.8766 55.2525C30.4454 55.2528 30.0317 55.0818 29.7266 54.7771C29.4214 54.4724 29.2498 54.059 29.2495 53.6278C29.2492 53.1966 29.4202 52.7829 29.7249 52.4777L40.2744 41.9282C39.0564 39.7261 37.8214 37.5333 36.5694 35.3503C36.2688 34.7252 35.9131 34.1281 35.5067 33.566C35.2254 33.1512 34.8599 32.8002 34.4342 32.5357C34.2359 32.4707 34.0539 32.4902 33.7679 32.669C33.3779 32.9095 32.9587 33.3612 32.5004 33.9722C32.3724 34.143 32.212 34.2868 32.0284 34.3955C31.8447 34.5042 31.6415 34.5757 31.4302 34.6059C31.219 34.6361 31.0039 34.6244 30.7971 34.5714C30.5904 34.5184 30.3961 34.4253 30.2254 34.2973C30.0547 34.1692 29.9109 34.0088 29.8022 33.8252C29.6934 33.6416 29.6219 33.4383 29.5918 33.2271C29.5616 33.0158 29.5733 32.8007 29.6263 32.594C29.6792 32.3872 29.7724 32.193 29.9004 32.0222C30.4139 31.3365 31.1289 30.485 32.0454 29.913C33.0269 29.2988 34.3042 28.9802 35.7017 29.5392C35.745 29.5544 35.7862 29.5728 35.8252 29.5945C36.7937 30.082 37.5477 30.8685 38.1067 31.616C38.6592 32.357 39.1077 33.163 39.4489 33.8423C39.8877 34.58 41.1942 36.9103 42.6632 39.5395L52.4782 29.7245C52.7829 29.4199 53.1962 29.2487 53.6271 29.2487C54.0579 29.2487 54.4712 29.4199 54.7759 29.7245Z" fill="#3782FF"/>
</svg>
